/* XPM */
static char * e_xpm[] = {
"28 28 42 1",
" 	c #FFC9A2",
".	c #FDE9A6",
"+	c #FDE6A6",
"@	c #FDE7A6",
"#	c #FCE8A5",
"$	c #FDE9A5",
"%	c #FAE6A3",
"&	c #FAE6A4",
"*	c #FBE7A4",
"=	c #573215",
"-	c #552F12",
";	c #FCC7A0",
">	c #5D3B1F",
",	c #F5E1A0",
"'	c #FFCAA2",
")	c #FCE8A6",
"!	c #FAE7A4",
"~	c #412108",
"{	c #FBE7A5",
"]	c #331904",
"^	c #4E2A0F",
"/	c #FDE8A6",
"(	c #573115",
"_	c #281201",
":	c #3C1E06",
"<	c #AB9B60",
"[	c #8E7E41",
"}	c #391C05",
"|	c #1C0C00",
"1	c #2F1603",
"2	c #C6B478",
"3	c #D1BF81",
"4	c #140700",
"5	c #000000",
"6	c #0B0400",
"7	c #BCAB70",
"8	c #5E5227",
"9	c #9D8E5E",
"0	c #D5C489",
"a	c #B3A367",
"b	c #DDCB8C",
"c	c #FFCDA2",
"        ............        ",
"        ............        ",
"......  ..............      ",
"......  ..............      ",
"........  ............      ",
"........  ............      ",
"..........  ........        ",
"..........  ........        ",
"..........                  ",
"..........                  ",
"........+@..........        ",
"........@@........#.        ",
"......+@.$%&*%=-----= ;  .  ",
".........>-------------,.. '",
".#.)!-------~~~~~~~~~---..{.",
".#%----~~~~~~]]]]]]]~^---=*.",
" /((~~~~]]]]]]_____]:~~~<...",
"  []}]]]_______|||||1]1]2...",
"  3[[____||||44556|||||7.#..",
"    .[89088||555555[ab3.....",
"    ..a22222222aaaa.........",
"    ....ccc      ...........",
"  ........        ..........",
"  ........        ..........",
"  ........      ............",
"  ........      ............",
"..........      ............",
"..........      ............"};
