/* XPM */
static char * n0_xpm[] = {
"32 32 148 2",
"  	c #009DC4",
". 	c #AFCFE0",
"+ 	c #C4DAE7",
"@ 	c #C3DAE7",
"# 	c #BED7E5",
"$ 	c #CBDEE9",
"% 	c #C7DCE8",
"& 	c #369BC0",
"* 	c #DB7643",
"= 	c #DC6D22",
"- 	c #D7703B",
"; 	c #D2E2ED",
"> 	c #7FB8D2",
", 	c #9EC6DB",
"' 	c #C6DCE7",
") 	c #027CAC",
"! 	c #6496B4",
"~ 	c #7A92AB",
"{ 	c #DB743D",
"] 	c #D86F36",
"^ 	c #90BFD7",
"/ 	c #51A8CA",
"( 	c #ABC0D3",
"_ 	c #B9C7D7",
": 	c #C57A67",
"< 	c #DE7725",
"[ 	c #FDDF48",
"} 	c #FFE349",
"| 	c #D68E78",
"1 	c #B8D3E3",
"2 	c #CEE0EA",
"3 	c #B5C5D6",
"4 	c #BEB3BC",
"5 	c #C9A09D",
"6 	c #DA8D47",
"7 	c #E69930",
"8 	c #FEE048",
"9 	c #E09757",
"0 	c #CEACA9",
"a 	c #DCD3D5",
"b 	c #E6EEF4",
"c 	c #E4EDF3",
"d 	c #047DAC",
"e 	c #A38790",
"f 	c #F8D043",
"g 	c #A3757E",
"h 	c #C4CFDC",
"i 	c #D8B995",
"j 	c #EEB539",
"k 	c #FBDA46",
"l 	c #BE9B75",
"m 	c #087DAC",
"n 	c #EBCD86",
"o 	c #F7D74C",
"p 	c #A0A993",
"q 	c #D8DBC0",
"r 	c #D2CFB2",
"s 	c #D7D3B6",
"t 	c #E0E0C3",
"u 	c #E6E5C7",
"v 	c #A2BAA5",
"w 	c #DFE0C4",
"x 	c #F9D952",
"y 	c #D8BE73",
"z 	c #759ABA",
"A 	c #B0CFE0",
"B 	c #D7BD74",
"C 	c #F3D04E",
"D 	c #ABBFD3",
"E 	c #D7E6EE",
"F 	c #B1C3D4",
"G 	c #F6D254",
"H 	c #E5C882",
"I 	c #F3D152",
"J 	c #BBC9D8",
"K 	c #A9CBDE",
"L 	c #BCCAD9",
"M 	c #E7C77E",
"N 	c #EBCD88",
"O 	c #B2C4D5",
"P 	c #E6C57D",
"Q 	c #B9D4E3",
"R 	c #F0D18C",
"S 	c #ECCD89",
"T 	c #D7B769",
"U 	c #EBCC87",
"V 	c #F7D459",
"W 	c #F6D356",
"X 	c #73B3D0",
"Y 	c #D9E7EF",
"Z 	c #F7D458",
"` 	c #E6C57C",
" .	c #88BBD4",
"..	c #A6BCD1",
"+.	c #C7D0DC",
"@.	c #F4D150",
"#.	c #4F99BA",
"$.	c #5598B9",
"%.	c #D3D8E0",
"&.	c #BECBD6",
"*.	c #C2CDD8",
"=.	c #B7BBC8",
"-.	c #557AA2",
";.	c #B5C6D3",
">.	c #CDD5DE",
",.	c #F7D356",
"'.	c #F7CF42",
").	c #DC6E29",
"!.	c #DC6F29",
"~.	c #DB6D27",
"{.	c #DB6D26",
"].	c #E8CA85",
"^.	c #DCE9F1",
"/.	c #EBCB86",
"(.	c #F9D243",
"_.	c #E08128",
":.	c #E18429",
"<.	c #EBCC86",
"[.	c #6F97B9",
"}.	c #E1D199",
"|.	c #FFE249",
"1.	c #E6D59D",
"2.	c #3783AF",
"3.	c #BDC596",
"4.	c #DBD2A0",
"5.	c #89B2AF",
"6.	c #BCB986",
"7.	c #F4DA58",
"8.	c #F4DC5E",
"9.	c #ECE5B5",
"0.	c #899E9B",
"a.	c #DBE8F0",
"b.	c #E8F0F5",
"c.	c #BAD4E4",
"d.	c #E4D26A",
"e.	c #E4D674",
"f.	c #0D7DAC",
"g.	c #ACC0D3",
"h.	c #7595A0",
"i.	c #DDE1CE",
"j.	c #FBE153",
"k.	c #8EA199",
"l.	c #40A2C0",
"m.	c #F9E055",
"n.	c #F9DF52",
"o.	c #4185A9",
"p.	c #82A0BE",
"q.	c #6693B7",
"    . +         . @               # #           $ $             ",
"  # % $         & * = = = = = = = = = = = = - &   ;         > , ",
"; # % ' ; ) ) ! ~ { = = = = = = = = = = = = ] ~ !   $ ) ) $ ^ / ",
"        ( _ ) : < [ } } } } } } } } } } } } [ < | # 1 2 3 #     ",
"      ) ) 4 5 6 7 8 } } } } } } } } } } } } 8 7 9 0 a b c d     ",
"          e = f } } } } } } } } } } } } } } } } f = g h _ d d d ",
"          i j k } } } } } } } } } } } } } } } } k j l d d _ m m ",
"        # n } } } } o p q r s t t u t v w x } } } } y     ; z d ",
"  A # ; # B } } } } C       d D D E #   F G } } } } B       > > ",
"$ E 2   + H } } } } I         ) J F d d d G } } } } B       / K ",
"A       L M } } } } I         # 2   ) ) d C } } } } N $ ; ; , , ",
"      ) O P } } } } I         ; Q     d d I } } } } R .         ",
"      )   S } } } } I       2 ; Q   ) d   I } } } } T d ) d d m ",
"          S } } } } I       $ . # # d )   I } } } } B d m m )   ",
"          U } } } } I       ;     _ J F . I } } } } T )         ",
"          S } } } } I     . $     d D F _ V } } } } T d         ",
"        2 N } } } } W     . $     d     d C } } } } T         X ",
"      Y # B } } } } Z $   # #   ) d       C } } } } `       >  .",
"    ; 2   B } } } } C D L ..;   ) d       I } } } } ` ; $ # , / ",
"  # +     B } } } } I ) ) L d   ) )       I } } } } T d D +.>   ",
"; . +     T } } } } I     # F d ) d       I } } } } T d L _ m m ",
"      ; ) T } } } } I     @ $ # F ; $ $ . W } } } } T ;       ) ",
"      _ ( T } } } } @.#.$.%.&.*.=.-.;.;.>.,.} } } } ` #       ) ",
"      $ . B } } } } '.).!.!.~.~.{.{.{.{.{.'.} } } } ].#     )   ",
"      E ^./.} } } } (._.:.:.:.:.:.:.:.:._.(.} } } } <.2 $ 3 [.. ",
"      $ . }.} } } } } |.|.|.|.|.|.|.|.|.|.} } } } } 1.# . D 2.  ",
"      $ . 3.} } } } } } } } } } } } } } } } } } } } 4.    m m m ",
". .   $ . 5.6.7.} } } } } } } } } } } } } } } } 8.9.0.d d d d ) ",
"$ $ a.b.c.  ) d.} } } } } } } } } } } } } } } } e.L ) f.m )     ",
"    . g.J   ) h.i.j.} } } } } } } } } } } } j.k.h.L     m       ",
"      ) L J ) L l.m.} } } } } } } } } } } } n.o.  ;     m       ",
"        / [.z z       )     / p.q.)       m       > >   m       "};
