/* XPM */
static char * n3_xpm[] = {
"32 32 213 2",
"  	c #009DC4",
". 	c #AFCFE0",
"+ 	c #C4DAE7",
"@ 	c #B5C7D5",
"# 	c #C6D0DA",
"$ 	c #5598B9",
"% 	c #C2CDD8",
"& 	c #4F99BA",
"* 	c #CBDEE9",
"= 	c #BED7E5",
"- 	c #C7DCE8",
"; 	c #CF7552",
"> 	c #DC6F29",
", 	c #DC6E29",
"' 	c #DB6D27",
") 	c #D2E2ED",
"! 	c #7FB8D2",
"~ 	c #9EC6DB",
"{ 	c #C6DCE7",
"] 	c #027CAC",
"^ 	c #717999",
"/ 	c #8C8EA1",
"( 	c #D47244",
"_ 	c #DC6D22",
": 	c #7194AF",
"< 	c #90BFD7",
"[ 	c #51A8CA",
"} 	c #ABC0D3",
"| 	c #B9C7D7",
"1 	c #B5736E",
"2 	c #E08128",
"3 	c #E18429",
"4 	c #D29D92",
"5 	c #B8D3E3",
"6 	c #CEE0EA",
"7 	c #B5C5D6",
"8 	c #CE9388",
"9 	c #D77D59",
"0 	c #FBD845",
"a 	c #FFE249",
"b 	c #D8815F",
"c 	c #DCA799",
"d 	c #E4D9DA",
"e 	c #E4EDF3",
"f 	c #047DAC",
"g 	c #8B8EA1",
"h 	c #E5942E",
"i 	c #EAA634",
"j 	c #FCDD47",
"k 	c #FFE349",
"l 	c #CDB4B5",
"m 	c #878FA4",
"n 	c #DB7238",
"o 	c #F3C647",
"p 	c #F3C43E",
"q 	c #8B788E",
"r 	c #087DAC",
"s 	c #D0D9CC",
"t 	c #EFE099",
"u 	c #F0DB64",
"v 	c #AFA792",
"w 	c #759ABA",
"x 	c #B0CFE0",
"y 	c #D8DBC0",
"z 	c #EAD564",
"A 	c #81B0B2",
"B 	c #84B0B1",
"C 	c #849D9C",
"D 	c #C3C8BE",
"E 	c #E1E5D6",
"F 	c #CFDACE",
"G 	c #C6CBC0",
"H 	c #F8D652",
"I 	c #C0B389",
"J 	c #D7E6EE",
"K 	c #DBDDC4",
"L 	c #FDE254",
"M 	c #F9E055",
"N 	c #F9DF52",
"O 	c #DED37B",
"P 	c #BBC9D8",
"Q 	c #B1C3D4",
"R 	c #F6D254",
"S 	c #A9CBDE",
"T 	c #BECBD7",
"U 	c #BFCAD4",
"V 	c #4084A9",
"W 	c #40A2C0",
"X 	c #38A1C1",
"Y 	c #F3D04E",
"Z 	c #E1D7B4",
"` 	c #B2C4D5",
" .	c #2A7CAA",
"..	c #B08383",
"+.	c #B4817E",
"@.	c #D8A498",
"#.	c #D09D92",
"$.	c #B4736F",
"%.	c #B47370",
"&.	c #F6D048",
"*.	c #D1D7BC",
"=.	c #367BA8",
"-.	c #D87038",
";.	c #F7CF42",
">.	c #A3AC92",
",.	c #D7703B",
"'.	c #EAD86C",
").	c #BBC497",
"!.	c #7696A0",
"~.	c #4980A6",
"{.	c #F0C144",
"].	c #F3C33E",
"^.	c #FCDC47",
"/.	c #E7C863",
"(.	c #5383A5",
"_.	c #FDE048",
":.	c #FCDB46",
"<.	c #E5952F",
"[.	c #C9926C",
"}.	c #6F7A9B",
"|.	c #457CA6",
"1.	c #BEC7D0",
"2.	c #FDE04E",
"3.	c #FBD946",
"4.	c #DE7826",
"5.	c #DD7324",
"6.	c #73B3D0",
"7.	c #D9E7EF",
"8.	c #B1C1CF",
"9.	c #FCE25A",
"0.	c #FEDF48",
"a.	c #F2C03D",
"b.	c #88BBD4",
"c.	c #FAE051",
"d.	c #F6CB41",
"e.	c #E4922E",
"f.	c #DAC5BD",
"g.	c #32A0C2",
"h.	c #CDCB8B",
"i.	c #D1CD87",
"j.	c #D1C679",
"k.	c #EADA93",
"l.	c #FBDD4C",
"m.	c #C0AA7A",
"n.	c #ABBFD3",
"o.	c #C7D0DC",
"p.	c #1F9CC2",
"q.	c #369BC0",
"r.	c #2F9BC1",
"s.	c #F3D052",
"t.	c #C0A97B",
"u.	c #BCCAD9",
"v.	c #887790",
"w.	c #D96E2F",
"x.	c #BF7C70",
"y.	c #C3DAE7",
"z.	c #F6D356",
"A.	c #E6CFA4",
"B.	c #BFA8AE",
"C.	c #CA775D",
"D.	c #6E94B0",
"E.	c #D4CED3",
"F.	c #C2C2CB",
"G.	c #C5C5CC",
"H.	c #BCB4BD",
"I.	c #BBBEC8",
"J.	c #CFCCD1",
"K.	c #F7D354",
"L.	c #DFCAA0",
"M.	c #BDBFC6",
"N.	c #BA887B",
"O.	c #D27949",
"P.	c #DE7725",
"Q.	c #DE7524",
"R.	c #DCD0AC",
"S.	c #E9E7CC",
"T.	c #FEE355",
"U.	c #FDDF48",
"V.	c #F6CC41",
"W.	c #E1E1C4",
"X.	c #6F97B9",
"Y.	c #F9D444",
"Z.	c #3783AF",
"`.	c #C5D4CA",
" +	c #D2CE86",
".+	c #F0D95E",
"++	c #F8E06C",
"@+	c #E6D78F",
"#+	c #D2C778",
"$+	c #F2E49F",
"%+	c #DBE8F0",
"&+	c #E8F0F5",
"*+	c #BAD4E4",
"=+	c #849C9C",
"-+	c #A4AC91",
";+	c #FCE363",
">+	c #F6DF5B",
",+	c #A3BBA4",
"'+	c #CED0C3",
")+	c #0D7DAC",
"!+	c #ACC0D3",
"~+	c #F9E371",
"{+	c #FEE34B",
"]+	c #FFE34B",
"^+	c #FFE34C",
"/+	c #5DA7BB",
"(+	c #63A8BA",
"_+	c #638FA4",
":+	c #C4CBCC",
"<+	c #C6CDCE",
"[+	c #5E8DA5",
"}+	c #82A0BE",
"|+	c #6693B7",
"    . +         @ # $ $ $ $ $ $ $ % % $ $ $ $ & * *             ",
"  = - *         ; > , ' ' ' ' ' ' ' , > ' ' ' ;   )         ! ~ ",
") = - { ) ] ^ / ( _ _ _ _ _ _ _ _ _ _ _ _ _ _ ( / : * ] ] * < [ ",
"        } | 1 _ 2 3 3 3 3 3 3 3 3 3 3 3 3 3 3 2 _ 4 5 6 7 =     ",
"      ] ^ 8 9 _ 0 a a a a a a a a a a a a a a 0 _ b c d e f     ",
"        g _ h i j k k k k k k k k k k k k k k j i h _ l | f f f ",
"        m n o k k k k k k k k k k k k k k k k k k p _ q f | r r ",
"        s t u k k k k k k k k k k k k k k k k k k 0 p v   ) w f ",
"  x = ) y k k k k k z A B B C D D E F B G H k k k k k I     ! ! ",
"* J 6   K L M N N M O         ] P Q f f f R k k k k k I     [ S ",
"x       T U V V W W X         = 6   ] ] f Y k k k k k Z ) ) ~ ~ ",
"      ] ` `   ]  ...+.+.+.+.+.@.#.+.+.$.%.&.k k k k k *.        ",
"      ]   )   ] =.-._ _ _ _ _ _ _ _ _ _ _ ;.k k k k k >.] f f r ",
"          )   ] =.,._ _ _ _ _ _ _ _ _ _ _ ;.k k k '.).!.r r ]   ",
"          * x   ~.{.].].].].].].].].].].].^.k k k /.] ]         ",
"          )     (._.k k k k k k k k k k k k k :.<.[.}.|.        ",
"        6 6 ) ) 1.2.k k k k k k k k k k k k k 3.4.5._ /       6.",
"      7.=       8.9.k k k k k k k k k k k k k a 0.a._ g     ! b.",
"    ) 6       ] V c.k k k k k k k k k k k k k k k d.e.f.* = ~ [ ",
"  = +       ] ] g.h.i.j.j.k.j.i.j.j.i.i.i.l.k k k k k m.n.o.!   ",
") . +   p.=.=.q.q.q.r.    = Q f ] f       s.k k k k k t.u.| r r ",
"      ) v.w.,.,.,.,.x.    y.* = Q ) * * . z.k k k k k A.      ] ",
"      | B._ _ _ _ _ C.D.: E.F.G.H.^ I.I.J.K.k k k k k L.      ] ",
"      * M.N.O.P.P.P.Q._ _ _ _ _ _ _ _ _ _ ;.k k k k k R.    ]   ",
"      J S.T.2.U.U.U.V._ _ _ _ _ _ _ _ _ _ ;.k k k k k W.* 7 X.. ",
"      * *.k k k k k Y.e.h h h h h h h h e.Y.k k k k k y . n.Z.  ",
"      * `. +.+k k k k k k k k k k k k k k k k k k ++@+B   r r r ",
". .   * .   #+k k k k k k k k k k k k k k k k k k $+] f f f f ] ",
"* * %+&+*+  =+-+;+k k k k k k k k k k k k k k >+,+'+] )+r ]     ",
"    . !+P   ] ] ~+{+{+{+]+^+{+{+{+{+^+{+{+{+{+.+] u.    r       ",
"      ] u.P ] u./+(+(+_+_+_+_+:+<+:+(+(+(+(+_+[+  )     r       ",
"        [ X.w w       ]     [ }+|+]       r       ! !   r       "};
