/* XPM */
static char * n7_xpm[] = {
"32 32 104 2",
"  	c #009DC4",
". 	c #AFCFE0",
"+ 	c #C4DAE7",
"@ 	c #C3DAE7",
"# 	c #BED7E5",
"$ 	c #CBDEE9",
"% 	c #C7DCE8",
"& 	c #119DC3",
"* 	c #CF7451",
"= 	c #DC6D22",
"- 	c #8B8EA1",
"; 	c #7FB8D2",
"> 	c #9EC6DB",
", 	c #D2E2ED",
"' 	c #C6DCE7",
") 	c #027CAC",
"! 	c #5C7AA0",
"~ 	c #7393AE",
"{ 	c #D37349",
"] 	c #8B778E",
"^ 	c #90BFD7",
"/ 	c #51A8CA",
"( 	c #ABC0D3",
"_ 	c #B9C7D7",
": 	c #B5736F",
"< 	c #DC6F22",
"[ 	c #FBD945",
"} 	c #FFE349",
"| 	c #E4CEA3",
"1 	c #B5C5D6",
"2 	c #65799E",
"3 	c #C8A09E",
"4 	c #DC9662",
"5 	c #E5952F",
"6 	c #FCDB46",
"7 	c #EDD5A9",
"8 	c #E4EDF3",
"9 	c #047DAC",
"0 	c #8C8EA1",
"a 	c #F3C33E",
"b 	c #E1C799",
"c 	c #A7A297",
"d 	c #EEB539",
"e 	c #F9D444",
"f 	c #C0A97B",
"g 	c #087DAC",
"h 	c #D9DABC",
"i 	c #EFD85E",
"j 	c #A0A993",
"k 	c #D8DBC0",
"l 	c #D2CFB2",
"m 	c #D7D3B6",
"n 	c #E0E0C3",
"o 	c #E6E5C7",
"p 	c #A2BAA5",
"q 	c #DFE0C4",
"r 	c #F9D952",
"s 	c #C0B389",
"t 	c #759ABA",
"u 	c #B0CFE0",
"v 	c #FEE34B",
"w 	c #FEE24A",
"x 	c #E2D06C",
"y 	c #ABBFD3",
"z 	c #D7E6EE",
"A 	c #B1C3D4",
"B 	c #F6D254",
"C 	c #CEE0EA",
"D 	c #C7DAE3",
"E 	c #BCD2D4",
"F 	c #63A8BA",
"G 	c #638FA4",
"H 	c #56A5BD",
"I 	c #BBC9D8",
"J 	c #A9CBDE",
"K 	c #BCCAD9",
"L 	c #F3D04E",
"M 	c #E3CDA2",
"N 	c #B2C4D5",
"O 	c #B9D4E3",
"P 	c #F3D152",
"Q 	c #DAC79C",
"R 	c #F7D459",
"S 	c #73B3D0",
"T 	c #D9E7EF",
"U 	c #88BBD4",
"V 	c #A6BCD1",
"W 	c #E6CFA4",
"X 	c #C7D0DC",
"Y 	c #F6D356",
"Z 	c #F7D458",
"` 	c #DFCAA0",
" .	c #DCE9F1",
"..	c #C6DBE8",
"+.	c #B2D0E0",
"@.	c #6F97B9",
"#.	c #3783AF",
"$.	c #DBE8F0",
"%.	c #E8F0F5",
"&.	c #BAD4E4",
"*.	c #ACC0D3",
"=.	c #E3D575",
"-.	c #82A0BE",
";.	c #6693B7",
"    . +         . @               # #           $ $             ",
"  # % $       & * = = = = = = = = = = = = = = = = = = -     ; > ",
", # % ' , ) ! ~ { = = = = = = = = = = = = = = = = = = ] ) $ ^ / ",
"        ( _ : < [ } } } } } } } } } } } } } } } } } } | 1 #     ",
"      ) 2 3 4 5 6 } } } } } } } } } } } } } } } } } } 7 8 9     ",
"        0 = a } } } } } } } } } } } } } } } } } } } } b _ 9 9 9 ",
"        c d e } } } } } } } } } } } } } } } } } } } } f 9 _ g g ",
"        h } } } } } i j k l m n n o n p q r } } } } } s   , t 9 ",
"  u # , k } v v w w x       9 y y z #   A B } } } } } s     ; ; ",
"$ z C   D E F G G F H         ) I A 9 9 9 B } } } } } s     / J ",
"u       K I ) )               # C   ) ) 9 L } } } } } M , , > > ",
"      ) N N   ) )             , O     9 9 P } } } } } Q         ",
"      )   ,   ) )           C , O   ) 9   P } } } } } f ) 9 9 g ",
"          ,   ) )           $ . # # 9 )   P } } } } } f g g )   ",
"          $ u   )           ,     _ I A . P } } } } } f         ",
"          ,     )         . $     9 y A _ R } } } } } f         ",
"        C C , , _ A .     . $     9     9 L } } } } } s       S ",
"      T #       y # $ $   # #   ) 9       L } } } } } s     ; U ",
"    , C       ) ) ) ) y K V ,   ) 9       P } } } } } W $ # > / ",
"  # +       ) )       ) ) K 9   ) )       P } } } } } f y X ;   ",
", . +     ) )             # A 9 ) 9       P } } } } } f K _ g g ",
"      , ) )               @ $ # A , $ $ . Y } } } } } W       ) ",
"      _ ( )               , O # A ) . . $ Z } } } } } `       ) ",
"      $ .   )         # $ ,     ) ) 9 9 ) B } } } } } `     )   ",
"      z  .$ A A   #  .C ..+.    9 9 9 9   L } } } } } | $ 1 @.. ",
"      $ . . A A $ +         9 9 9         P } } } } } ` . y #.  ",
"      $ .   ) ) y _ A   ) g 9 9 )         P } } } } } s   g g g ",
". .   $ .   ) ) ) A _ _ )               # R } } } } } f 9 9 9 ) ",
"$ $ $.%.&.  ) ) C , +._ 1 A +.        # C P } } } } } f g )     ",
"    . *.I   ) ) C       A I *.      ,     =.} } } } } p g       ",
"      ) K I ) K       ) ) ) ) _ K _       =.} } } } } p g       ",
"        / @.t t       )     / -.;.)       g       ; ;   g       "};
