/* XPM */
static char * n8_xpm[] = {
"32 32 180 2",
"  	c #009DC4",
". 	c #AFCFE0",
"+ 	c #C4DAE7",
"@ 	c #C3DAE7",
"# 	c #BED7E5",
"$ 	c #CBDEE9",
"% 	c #C7DCE8",
"& 	c #119DC3",
"* 	c #CF7451",
"= 	c #DC6D22",
"- 	c #D2E2ED",
"; 	c #7FB8D2",
"> 	c #9EC6DB",
", 	c #C6DCE7",
"' 	c #027CAC",
") 	c #5C7AA0",
"! 	c #7393AE",
"~ 	c #D37349",
"{ 	c #5C97B7",
"] 	c #90BFD7",
"^ 	c #51A8CA",
"/ 	c #ABC0D3",
"( 	c #B9C7D7",
"_ 	c #B5736F",
": 	c #D29E93",
"< 	c #B8D3E3",
"[ 	c #CEE0EA",
"} 	c #B5C5D6",
"| 	c #65799E",
"1 	c #C8A09E",
"2 	c #D58266",
"3 	c #DC6F22",
"4 	c #FBD945",
"5 	c #FFE349",
"6 	c #D7886E",
"7 	c #DCB9B3",
"8 	c #E4DEE0",
"9 	c #E4EDF3",
"0 	c #047DAC",
"a 	c #8C8EA1",
"b 	c #E2882A",
"c 	c #E5952F",
"d 	c #FCDB46",
"e 	c #CDB3B5",
"f 	c #8B8EA1",
"g 	c #F3C33E",
"h 	c #8B788E",
"i 	c #087DAC",
"j 	c #D4C2AF",
"k 	c #EEB539",
"l 	c #F9D444",
"m 	c #A8A296",
"n 	c #759ABA",
"o 	c #B0CFE0",
"p 	c #DFCA9F",
"q 	c #F7D74D",
"r 	c #9FB9A6",
"s 	c #A2BAA5",
"t 	c #A2AB92",
"u 	c #CFCDB1",
"v 	c #E6E5C7",
"w 	c #D8DBC0",
"x 	c #D1CFB3",
"y 	c #F9D851",
"z 	c #C0B38A",
"A 	c #D7E6EE",
"B 	c #E1CBA0",
"C 	c #F3D052",
"D 	c #BBC9D8",
"E 	c #B1C3D4",
"F 	c #F6D255",
"G 	c #A9CBDE",
"H 	c #DCCAA3",
"I 	c #F3CF4F",
"J 	c #E2D4AE",
"K 	c #D2D0B3",
"L 	c #F5D04B",
"M 	c #A08892",
"N 	c #A18891",
"O 	c #D7B4B0",
"P 	c #CBABA8",
"Q 	c #A17580",
"R 	c #D1D7BC",
"S 	c #F7CF42",
"T 	c #84B0B1",
"U 	c #F0E39E",
"V 	c #F0DC65",
"W 	c #D2CE86",
"X 	c #849D9C",
"Y 	c #EECF70",
"Z 	c #FBDA46",
"` 	c #EEB439",
" .	c #E5C866",
"..	c #319BC0",
"+.	c #D3D9E1",
"@.	c #CD9E6E",
"#.	c #EAA634",
"$.	c #FCDD47",
"%.	c #507BA4",
"&.	c #327CA9",
"*.	c #D3C1C1",
"=.	c #DC6E26",
"-.	c #DC6D25",
";.	c #8A8EA2",
">.	c #73B3D0",
",.	c #D9E7EF",
"'.	c #CABABD",
").	c #F0BB3B",
"!.	c #FBD946",
"~.	c #FEE249",
"{.	c #88BBD4",
"].	c #92939F",
"^.	c #E08128",
"/.	c #F5C840",
"(.	c #D8C4C0",
"_.	c #BFB38A",
":.	c #FDDF4B",
"<.	c #E3D16B",
"[.	c #F2DE7F",
"}.	c #E3D575",
"|.	c #BFA97B",
"1.	c #ABBFD3",
"2.	c #C7D0DC",
"3.	c #C0A97A",
"4.	c #BCCAD9",
"5.	c #F6D357",
"6.	c #E6CFA4",
"7.	c #D9C093",
"8.	c #F4D150",
"9.	c #4F99BA",
"0.	c #5598B9",
"a.	c #D3D8E0",
"b.	c #BECBD6",
"c.	c #C2CDD8",
"d.	c #B7BBC8",
"e.	c #557AA2",
"f.	c #B5C6D3",
"g.	c #CDD5DE",
"h.	c #F7D456",
"i.	c #D8CAA4",
"j.	c #DC6E29",
"k.	c #DC6F29",
"l.	c #DB6D27",
"m.	c #DB6D26",
"n.	c #DDCEA8",
"o.	c #E9E7C9",
"p.	c #E1E1C4",
"q.	c #6F97B9",
"r.	c #F9D243",
"s.	c #E18429",
"t.	c #3783AF",
"u.	c #CAD5C5",
"v.	c #E5D674",
"w.	c #F6DD57",
"x.	c #FFE249",
"y.	c #FBE161",
"z.	c #F0DC7A",
"A.	c #90B4AD",
"B.	c #D2C778",
"C.	c #F2E49F",
"D.	c #DBE8F0",
"E.	c #E8F0F5",
"F.	c #BAD4E4",
"G.	c #9AA695",
"H.	c #BDBA86",
"I.	c #FCE35F",
"J.	c #F8DF58",
"K.	c #BDC596",
"L.	c #D5D2BA",
"M.	c #0D7DAC",
"N.	c #ACC0D3",
"O.	c #FAE36D",
"P.	c #F2DA5C",
"Q.	c #7CAEB4",
"R.	c #849C9C",
"S.	c #CCCEC2",
"T.	c #CED0C3",
"U.	c #7C999E",
"V.	c #82A0BE",
"W.	c #6693B7",
"    . +         . @               # #           $ $             ",
"  # % $       & * = = = = = = = = = = = = = = * & -         ; > ",
"- # % , - ' ) ! ~ = = = = = = = = = = = = = = ~ ! { $ ' ' $ ] ^ ",
"        / ( _ = = = = = = = = = = = = = = = = = = : < [ } #     ",
"      ' | 1 2 3 4 5 5 5 5 5 5 5 5 5 5 5 5 5 5 4 3 6 7 8 9 0     ",
"        a = b c d 5 5 5 5 5 5 5 5 5 5 5 5 5 5 d c b = e ( 0 0 0 ",
"        f = g 5 5 5 5 5 5 5 5 5 5 5 5 5 5 5 5 5 5 g = h 0 ( i i ",
"        j k l 5 5 5 5 5 5 5 5 5 5 5 5 5 5 5 5 5 5 l k m   - n 0 ",
"  o # - p 5 5 5 5 5 q r s s t u u v w s x y 5 5 5 5 5 z     ; ; ",
"$ A [   B 5 5 5 5 5 C         ' D E 0 0 0 F 5 5 5 5 5 z     ^ G ",
"o       H 5 5 5 5 5 C         # [   ' ' 0 I 5 5 5 5 5 J - - > > ",
"      ' K 5 5 5 5 5 L M N N N O P N N Q Q L 5 5 5 5 5 R         ",
"      ' s 5 5 5 5 5 S = = = = = = = = = = S 5 5 5 5 5 t ' 0 0 i ",
"        T U V 5 5 5 S = = = = = = = = = = S 5 5 5 V W X i i '   ",
"          $ Y 5 5 5 Z ` k k k k k k k k ` Z 5 5 5  .' '         ",
"        ..+.@.#.$.5 5 5 5 5 5 5 5 5 5 5 5 5 5 $.#.@.%.&.        ",
"        *.= =.3 4 5 5 5 5 5 5 5 5 5 5 5 5 5 5 4 3 -.= ;.      >.",
"      ,.'.= ).!.~.5 5 5 5 5 5 5 5 5 5 5 5 5 5 ~.!.).= f     ; {.",
"    - [ ].^./.5 5 5 5 5 5 5 5 5 5 5 5 5 5 5 5 5 5 /.^.(.$ # > ^ ",
"  # +   _.5 5 5 5 5 :.<.<.[.<.}.<.<.}.}.}.:.5 5 5 5 5 |.1.2.;   ",
"- . +   z 5 5 5 5 5 C     # E 0 ' 0       C 5 5 5 5 5 3.4.( i i ",
"      - 3.5 5 5 5 5 C     @ $ # E - $ $ . 5.5 5 5 5 5 6.      ' ",
"      ( 7.5 5 5 5 5 8.9.0.a.b.c.d.e.f.f.g.h.5 5 5 5 5 p       ' ",
"      $ i.5 5 5 5 5 S j.k.k.l.l.m.m.m.m.m.S 5 5 5 5 5 n.    '   ",
"      A o.5 5 5 5 5 S = = = = = = = = = = S 5 5 5 5 5 p.$ } q.. ",
"      $ R 5 5 5 5 5 r.^.s.s.s.s.s.s.s.s.^.r.5 5 5 5 5 w . 1.t.  ",
"      $ u.v.w.5 5 5 5 x.x.x.x.x.x.x.x.x.x.5 5 5 5 y.z.A.  i i i ",
". .   $ .   B.5 5 5 5 5 5 5 5 5 5 5 5 5 5 5 5 5 5 C.' 0 0 0 0 ' ",
"$ $ D.E.F.  G.H.I.5 5 5 5 5 5 5 5 5 5 5 5 5 5 J.K.L.' M.i '     ",
"    . N.D   ' ' O.5 5 5 5 5 5 5 5 5 5 5 5 5 5 P.' 4.    i       ",
"      ' 4.D ' 4.Q.T T R.R.R.R.S.T.S.T T T T R.U.  -     i       ",
"        ^ q.n n       '     ^ V.W.'       i       ; ;   i       "};
