/* XPM */
static char * n9_xpm[] = {
"32 32 183 2",
"  	c #009DC4",
". 	c #AFCFE0",
"+ 	c #C4DAE7",
"@ 	c #C3DAE7",
"# 	c #BED7E5",
"$ 	c #CBDEE9",
"% 	c #C7DCE8",
"& 	c #119DC3",
"* 	c #CF7451",
"= 	c #DC6D22",
"- 	c #D2E2ED",
"; 	c #7FB8D2",
"> 	c #9EC6DB",
", 	c #C6DCE7",
"' 	c #5C7AA0",
") 	c #737999",
"! 	c #D37349",
"~ 	c #7393AE",
"{ 	c #5C97B7",
"] 	c #027CAC",
"^ 	c #90BFD7",
"/ 	c #51A8CA",
"( 	c #ABC0D3",
"_ 	c #D0958A",
": 	c #D29E93",
"< 	c #B8D3E3",
"[ 	c #CEE0EA",
"} 	c #B5C5D6",
"| 	c #65799E",
"1 	c #A17580",
"2 	c #D58266",
"3 	c #DC6F22",
"4 	c #FBD945",
"5 	c #FFE349",
"6 	c #D7886E",
"7 	c #CEADAA",
"8 	c #DCD9DD",
"9 	c #E6EEF4",
"0 	c #E4EDF3",
"a 	c #047DAC",
"b 	c #8C8EA1",
"c 	c #E2882A",
"d 	c #E5952F",
"e 	c #FCDB46",
"f 	c #8C778D",
"g 	c #C4CFDC",
"h 	c #B9C7D7",
"i 	c #8B8EA1",
"j 	c #F3C33E",
"k 	c #8B788E",
"l 	c #087DAC",
"m 	c #A8A296",
"n 	c #EEB539",
"o 	c #F9D444",
"p 	c #759ABA",
"q 	c #B0CFE0",
"r 	c #E6CFA4",
"s 	c #F7D74C",
"t 	c #A0A993",
"u 	c #A2BAA5",
"v 	c #A2AB92",
"w 	c #CFCDB1",
"x 	c #E6E5C7",
"y 	c #D8DBC0",
"z 	c #9FB9A6",
"A 	c #F9D851",
"B 	c #C0B389",
"C 	c #D7E6EE",
"D 	c #F3D152",
"E 	c #BBC9D8",
"F 	c #B1C3D4",
"G 	c #F3D04E",
"H 	c #A9CBDE",
"I 	c #E4CEA3",
"J 	c #B2A987",
"K 	c #F5D04A",
"L 	c #A08892",
"M 	c #A18891",
"N 	c #D7B4B0",
"O 	c #CBABA8",
"P 	c #F5CF48",
"Q 	c #ECD4A8",
"R 	c #F7CF42",
"S 	c #C0A97B",
"T 	c #A3BBA5",
"U 	c #76ACB5",
"V 	c #BBC497",
"W 	c #F7E27C",
"X 	c #FBDA46",
"Y 	c #EEB439",
"Z 	c #F0E39F",
"` 	c #D6E0DB",
" .	c #DEE2D4",
"..	c #FBE369",
"+.	c #73B3D0",
"@.	c #D9E7EF",
"#.	c #0D9DC4",
"$.	c #EBD96B",
"%.	c #FCE255",
"&.	c #DBC194",
"*.	c #88BBD4",
"=.	c #3B83A9",
"-.	c #7294A1",
";.	c #FFE34A",
">.	c #56A5BD",
",.	c #E3D576",
"'.	c #E3D575",
").	c #E3D16B",
"!.	c #F2DE7F",
"~.	c #FCDF4B",
"{.	c #ABBFD3",
"].	c #C7D0DC",
"^.	c #099DC4",
"/.	c #127CAB",
"(.	c #BCCAD9",
"_.	c #D5C7C9",
":.	c #D16F44",
"<.	c #CF6F49",
"[.	c #D07450",
"}.	c #B97F79",
"|.	c #F6D356",
"1.	c #C7ADB1",
"2.	c #C77962",
"3.	c #4F99BA",
"4.	c #5598B9",
"5.	c #D3D8E0",
"6.	c #BECBD6",
"7.	c #C2CDD8",
"8.	c #B7BBC8",
"9.	c #557AA2",
"0.	c #B5C6D3",
"a.	c #B5C7D5",
"b.	c #F7D355",
"c.	c #D0C7CA",
"d.	c #D38C74",
"e.	c #D47345",
"f.	c #DC6E22",
"g.	c #DB6D27",
"h.	c #DC6E29",
"i.	c #DC6F29",
"j.	c #DB6D26",
"k.	c #DDCEA8",
"l.	c #E5E5CD",
"m.	c #FCE46D",
"n.	c #FADC57",
"o.	c #FBD946",
"p.	c #F4C63F",
"q.	c #E1E1C4",
"r.	c #6F97B9",
"s.	c #E0E0C3",
"t.	c #F9D243",
"u.	c #E08128",
"v.	c #E18429",
"w.	c #DBDDC1",
"x.	c #3783AF",
"y.	c #DBDFCC",
"z.	c #F0DF80",
"A.	c #F6DE5C",
"B.	c #FFE249",
"C.	c #FDE467",
"D.	c #F3DE7D",
"E.	c #C7CABA",
"F.	c #D2CE86",
"G.	c #DBE8F0",
"H.	c #E8F0F5",
"I.	c #BAD4E4",
"J.	c #9AB7A9",
"K.	c #BDBA86",
"L.	c #F8DE54",
"M.	c #F8DF58",
"N.	c #BDC596",
"O.	c #0D7DAC",
"P.	c #ACC0D3",
"Q.	c #F2DA5C",
"R.	c #F2DC62",
"S.	c #CCCFC7",
"T.	c #84B0B1",
"U.	c #849C9C",
"V.	c #CCCEC2",
"W.	c #CED0C3",
"X.	c #7C989E",
"Y.	c #82A0BE",
"Z.	c #6693B7",
"    . +         . @               # #           $ $             ",
"  # % $     & * = = = = = = = = = = = = = = * &   -         ; > ",
"- # % , - ' ) ! = = = = = = = = = = = = = = ! ~ {   $ ] ] $ ^ / ",
"        ( _ = = = = = = = = = = = = = = = = = = : # < [ } #     ",
"      | 1 2 3 4 5 5 5 5 5 5 5 5 5 5 5 5 5 5 4 3 6 7 8 9 0 a     ",
"      b = c d e 5 5 5 5 5 5 5 5 5 5 5 5 5 5 e d c = f g h a a a ",
"      i = j 5 5 5 5 5 5 5 5 5 5 5 5 5 5 5 5 5 5 j = k a a h l l ",
"      m n o 5 5 5 5 5 5 5 5 5 5 5 5 5 5 5 5 5 5 o n m     - p a ",
"  q # r 5 5 5 5 5 s t u u u v w w x y z A 5 5 5 5 5 B       ; ; ",
"$ C [ B 5 5 5 5 5 D           ] E F a a G 5 5 5 5 5 B       / H ",
"q     B 5 5 5 5 5 D           # [   ] ] G 5 5 5 5 5 I $ - - > > ",
"      J 5 5 5 5 5 K L M M M M N O M M 1 P 5 5 5 5 5 Q .         ",
"      v 5 5 5 5 5 R = = = = = = = = = = R 5 5 5 5 5 S a ] a a l ",
"      T 5 5 5 5 5 R = = = = = = = = = = R 5 5 5 5 5 B a l l ]   ",
"      U V W 5 5 5 X Y n n n n n n n n Y X 5 5 5 5 5 S ]         ",
"          Z 5 5 5 5 5 5 5 5 5 5 5 5 5 5 5 5 5 5 5 5 S a         ",
"        [ `  ...5 5 5 5 5 5 5 5 5 5 5 5 5 5 5 5 5 5 S         +.",
"      @.#   #.$.%.5 5 5 5 5 5 5 5 5 5 5 5 5 5 5 5 5 &.      ; *.",
"    - [       =.-.;.5 5 5 5 5 5 5 5 5 5 5 5 5 5 5 5 &.- $ # > / ",
"  # +       ] ] >.,.'.).).!.).'.).).'.'.~.5 5 5 5 5 S a {.].;   ",
"- . + ^.& /./.& & ^.      # F a ] a     D 5 5 5 5 5 S a (.h l l ",
"      _.:.<.* * [.}.      @ $ # F - $ $ |.5 5 5 5 5 S -       ] ",
"      1.= = = = = 2.3.4.4.5.6.7.8.9.0.a.b.5 5 5 5 5 &.#       ] ",
"      c.d.e.3 3 3 f.g.h.i.i.g.g.j.j.j.j.R 5 5 5 5 5 k.#     ]   ",
"      l.m.n.4 4 o.p.= = = = = = = = = = R 5 5 5 5 5 q.[ $ } r.. ",
"      s.5 5 5 5 5 t.u.v.v.v.v.v.v.v.v.u.t.5 5 5 5 5 w.# . {.x.  ",
"      y.z.A.5 5 5 5 B.B.B.B.B.B.B.B.B.B.5 5 5 5 C.D.E.    l l l ",
". .   $ . F.5 5 5 5 5 5 5 5 5 5 5 5 5 5 5 5 5 5 F.C ] a a a a ] ",
"$ $ G.H.I.J.K.L.5 5 5 5 5 5 5 5 5 5 5 5 5 5 M.N.J.(.] O.l ]     ",
"    . P.E   ] Q.5 5 5 5 5 5 5 5 5 5 5 5 5 5 R.a ] (.    l       ",
"      ] (.E ] S.T.T.T.U.U.U.U.V.W.V.T.T.T.T.X.l   -     l       ",
"        / r.p p       ]     / Y.Z.]       l       ; ;   l       "};
