/* XPM */
static char *_88bafcc3e2b4ba68ccd60cf673f698a[] = {
/* columns rows colors chars-per-pixel */
"32 68 126 2 ",
"   c #4C1840",
".  c #532C49",
"X  c #73314C",
"o  c #74344E",
"O  c #723550",
"+  c #6C4964",
"@  c #875F6D",
"#  c #AA4D66",
"$  c #AF5368",
"%  c #AF5568",
"&  c #B55B6A",
"*  c #B55C6A",
"=  c #B25E6C",
"-  c #8B6472",
";  c #8C6573",
":  c #8A6675",
">  c #8E6976",
",  c #8F6C78",
"<  c #B2666D",
"1  c #B7646E",
"2  c #B8656E",
"3  c #B76B6F",
"4  c #BA6D73",
"5  c #DE8379",
"6  c #E2877A",
"7  c #E2887B",
"8  c #E68B7C",
"9  c #E48D7E",
"0  c #E4917E",
"q  c #E8917F",
"w  c #747A93",
"e  c #826E81",
"r  c #877983",
"t  c #9A7E87",
"y  c #1794BA",
"u  c #2D93B8",
"i  c #2999BF",
"p  c #3E94B8",
"a  c #4C91B1",
"s  c #6386A3",
"d  c #6397B6",
"f  c #6D9EBA",
"g  c #709FB9",
"h  c #079BC2",
"j  c #039CC3",
"k  c #079CC3",
"l  c #019DC4",
"z  c #079DC4",
"x  c #0B9CC3",
"c  c #0D9DC4",
"v  c #109BC2",
"b  c #129CC3",
"n  c #189BC2",
"m  c #229DC3",
"M  c #299DC3",
"N  c #3E9DC1",
"B  c #34A0C5",
"V  c #4AA1C3",
"C  c #7EB1CB",
"Z  c #86818E",
"A  c #9A818A",
"S  c #868998",
"D  c #A68F96",
"F  c #A9939A",
"G  c #AB979D",
"H  c #A2989F",
"J  c #AD999F",
"K  c #BEA29E",
"L  c #AD99A0",
"P  c #AF9FA7",
"I  c #A9A4AF",
"U  c #B2A0A6",
"Y  c #B1A4AB",
"T  c #B7A8AD",
"R  c #B9AAAE",
"E  c #B6AAB0",
"W  c #BCADB2",
"Q  c #AFB3BC",
"!  c #B5B3B8",
"~  c #BFBABE",
"^  c #E89280",
"/  c #E89680",
"(  c #EA9883",
")  c #EA9F84",
"_  c #EEB496",
"`  c #F7BE9B",
"'  c #F8BE9C",
"]  c #C5BABF",
"[  c #C8BCBF",
"{  c #F9C29E",
"}  c #F9C69F",
"|  c #FDC59F",
" . c #F6DB9F",
".. c #FFC9A2",
"X. c #FFCFA3",
"o. c #F9DDA0",
"O. c #F7E1A2",
"+. c #FBE1A3",
"@. c #FBE4A3",
"#. c #FDE5A6",
"$. c #FDE9A6",
"%. c #80AEC6",
"&. c #91B6CC",
"*. c #A1BACC",
"=. c #A8BDCD",
"-. c #B0B7C1",
";. c #BFBCC1",
":. c #B8C0C9",
">. c #C4C0C7",
",. c #C3C3C9",
"<. c #C5C4CB",
"1. c #CDCACE",
"2. c #D0C6C9",
"3. c #C8CED5",
"4. c #D3CED3",
"5. c #D5CDD0",
"6. c #D5D2D4",
"7. c #D2D6DC",
"8. c #DCD6D8",
"9. c #E8E0DF",
"0. c #DDDFE2",
"q. c #E3E0E1",
"w. c #EFEFF0",
"e. c #F1EFF0",
"r. c #F4F2F3",
"t. c #F0F3F6",
/* pixels */
"....$.$.$.$.$.$.$.$.........$.$.$.$.....$.$.$.$.$.$.$.$.4 = = 4 ",
"....$.$.$.$.$.$.$.$.........$.$.$.$.....$.$.$.$.$.$.$.$.1 $ # = ",
"........$.$.$.$.....$.$.$.$.$.$.$.$.$.$.................9 5 $ = ",
"........$.$.$.$.....$.$.$.$.$.$.$.$.$.$.................^ 6 % = ",
"....................$.$.$.$.$.$.$.$.$.$.$.$.............^ 6 % = ",
"....................$.$.$.$.$.$.$.$.$.$.$.$.............( 9 & 1 ",
"$.$.$.$.$.$.$.$.....$.$.$.$.$.$.$.$.$.$.$.$.$.$.........| { 9 9 ",
"$.$.$.$.$.$.$.$.....$.$.$.$.$.$.$.$.$.$.$.$.$.$...........| ^ ^ ",
"$.$.$.$.$.$.$.$.$.$.....$.$.$.$.$.$.$.$.$.$.$.$...........| ^ / ",
"$.$.$.$.$.$.$.$.$.$.....$.$.$.$.$.$.$.$.$.$.$.$.........| { q / ",
"$.$.$.$.$.$.$.$.$.$.$.$.....$.$.$.$.$.$.$.$.............( q 9 / ",
"$.$.$.$.$.$.$.$.$.$.$.$.....$.$.$.$.$.$.$.$.............( q 7 0 ",
"$.$.$.$.$.$.$.$.$.$.$.$.................................| ' 1 3 ",
"$.$.$.$.$.$.$.$.$.$.$.$...................................{ = < ",
"$.$.$.$.$.$.$.$.$.$.....$.$.$.$.$.$.$.$.$.$...............{ = < ",
"$.$.$.$.$.$.$.$.$.$.....$.$.$.$.$.$.$.$.$.$.............X.} 2 3 ",
"$.$.$.$.$.$.$.$.....$.$.$.$.$.$.$.$.$.$.$.$.$.$.........#.+.0 9 ",
"$.$.$.$.$.$.$.$.....$.$.$.$.$.$.$.$.$.$.$.$.$.$.........+.o.0 9 ",
"....$.$.$.$.$.$.....$.$.$.$.$.$.$.$.$.$.$.$.$.$.....$.$.) 0 * 3 ",
"....$.$.$.$.$.$.....$.$.$.$.$.$.$.$.$.$.$.$.$.$.....$.$./ 6 % < ",
"$.$.................$.$.$.$.$.$.$.$.$.$.$.$.$.$.....$.$./ 6 % < ",
"$.$.................$.$.$.$.$.$.$.$.$.$.$.$.$.$.....$.$.) 0 % < ",
"$.$.....................$.$.$.$.$.$.$.$.$.$.....$.$.$.$.@. .< < ",
"$.$.....................$.$.$.$.$.$.$.$.$.$.....$.$.$.$.$.O.< < ",
"$.$.........$.$.$.$.........$.$.$.$.$.$.....$.$.$.$.$.$.$.O.< < ",
"$.$.........$.$.$.$.........$.$.$.$.$.$.....$.$.$.$.$.$.$.O.< < ",
"$.$.....$.$.$.$.$.$.$.$.................$.$.$.$.$.$.$.$.$.O.< < ",
"$.$.....$.$.$.$.$.$.$.$.................$.$.$.$.$.$.$.$.@. .< < ",
"$.$.....$.$.$.$.$.$.$.$.............$.$.$.$.$.$.$.$.$.$.) 0 % < ",
"$.$.....$.$.$.$.$.$.$.$.............$.$.$.$.$.$.$.$.$.$.) 9 % < ",
"....$.$.$.$.$.$.$.$.$.$.............$.$.$.$.$.$.$.$.$.$...` = = ",
"....$.$.$.$.$.$.$.$.$.$.............$.$.$.$.$.$.$.$.$.$.X.} 4 4 ",
"...._ _ 8 8 8 8 ....8 8 8 8 ....$.$.$.$.....8 8 ....$.$.....8 8 ",
"....} } 8 8 8 8 ....8 8 8 8 ....$.$.$.$.....8 8 ....$.$.....8 8 ",
"8 8 8 8 8 8 8 8 8 8 8 8 # # 8 8 8 8 8 8 8 8 # # # # # # 8 8 8 8 ",
"8 8 8 8 8 8 8 8 8 8 8 8 # # 8 8 8 8 8 8 8 8 # # # # # # 8 8 8 8 ",
"- -     - - - - X X             X X - - - - X X         - - - - ",
"- -     - - - - X X             X X - - - - X X         - - - - ",
"- -     - - X X - - - - K K - -     - - - - X X         - - - - ",
"- -     - - X X - - - - K K - -     - - - - X X         - - - - ",
"- -     X X X X - - K K K K K K     X X X X X X         - - - - ",
"- -     X X X X - - K K K K K K     X X X X X X         - - - - ",
"X X     X X     K K K K K K K K     X X     K K K K - - X X X X ",
"X X     X X     K K K K K K K K     X X     K K K K - - X X X X ",
"X X X X         K K K K K K K K     X X     K K K K K K K K X X ",
"X X X X         K K K K K K K K     X X     K K K K K K K K X X ",
"X X X X         - - K K K K - -     X X     - - K K K K K K X X ",
"X X X X         - - K K K K - -     X X     - - K K K K K K X X ",
"X X X X         - - K K K K - -     X X     - - - - - - - - X X ",
"X X X X         - - K K K K - -     X X     - - - - - - - - X X ",
"- - - - - -     - - - - - - X X X X         X X - - - - - -     ",
"- - - - - -     - - - - - - X X X X         X X - - - - - -     ",
"- - - - - -     X X X X         X X - - - - X X - - - - - -     ",
"- - - - - -     X X X X         X X - - - - X X - - - - - -     ",
"X X X X X X     X X         - - K K K K K K     - - - - - -     ",
"X X X X X X     X X         - - K K K K K K     - - - - - -     ",
"X X X X X X                 K K K K K K K K     - - - - - -     ",
"X X X X X X                 K K K K K K K K     - - - - - -     ",
"X X X X     - - - - - -     - - - - - - - -     X X - - - -     ",
"X X X X     - - - - - -     - - - - - - - -     X X - - - -     ",
"    X X     - - - - - -     - - - - - - - -     X X - - X X     ",
"    X X     - - - - - -     - - - - - - - -     X X - - X X     ",
"- -         X X X X X X     - - - - - - - -     X o X X X X : e ",
"- -         X X X X X X     - - - - - - - -     X X t t O + w s ",
"K 9.r ~ , @ J X X X X X     - - - - - - ; - X X X X 6.! ,.=.g f ",
"1.q.Z ;.] A L R 8.2.U G .   - - - - - - - > D e.5.E -.a V B N N ",
"M m h y i i p d <.r.Y :.Q H [ t F W F T P 4.w.3.n u k j c z c c ",
"l l l l x z b n v x x n %.S >.I 0.7.t.*.&.C n x k l l l l l l l "
};
