/* XPM */
static char *_27963b75b334871a7742c7bf38fdcc4[] = {
/* columns rows colors chars-per-pixel */
"32 68 189 2 ",
"   c #4C1840",
".  c #532C49",
"X  c #73314C",
"o  c #74344E",
"O  c #723550",
"+  c #6C4964",
"@  c #AB475F",
"#  c #A34C5D",
"$  c #AB4D5B",
"%  c #AE485E",
"&  c #A94C5E",
"*  c #A6505D",
"=  c #B3515E",
"-  c #875F6D",
";  c #A24C65",
":  c #AF4E62",
">  c #A94C67",
",  c #A74E6A",
"<  c #AA4D68",
"1  c #AC5065",
"2  c #B15061",
"3  c #A14F73",
"4  c #8B6472",
"5  c #8C6573",
"6  c #8A6675",
"7  c #8E6976",
"8  c #8F6C78",
"9  c #DF7D7E",
"0  c #DC8E68",
"q  c #DD8776",
"w  c #DE8879",
"e  c #DF8E7B",
"r  c #DA887C",
"t  c #E68467",
"y  c #E2866D",
"u  c #E18077",
"i  c #E78777",
"p  c #EC8576",
"a  c #E38B77",
"s  c #E58876",
"d  c #E28E74",
"f  c #E58D77",
"g  c #EA8A71",
"h  c #E5877B",
"j  c #ED8278",
"k  c #E9877A",
"l  c #ED8779",
"z  c #E8857F",
"x  c #EC857C",
"c  c #E48B7B",
"v  c #E08E79",
"b  c #E78C79",
"n  c #E38A7C",
"m  c #E78B7E",
"M  c #E28F7D",
"N  c #E58F7E",
"B  c #E88B7A",
"V  c #EB8C78",
"C  c #EA8A7C",
"Z  c #EF897D",
"A  c #E88F7D",
"S  c #F2887B",
"D  c #E2907B",
"F  c #E3967A",
"G  c #E59479",
"H  c #E3927F",
"J  c #E9927F",
"K  c #747A93",
"L  c #826E81",
"P  c #877983",
"I  c #9A7E87",
"U  c #1794BA",
"Y  c #2D93B8",
"T  c #2999BF",
"R  c #3E94B8",
"E  c #4C91B1",
"W  c #6386A3",
"Q  c #6397B6",
"!  c #6D9EBA",
"~  c #709FB9",
"^  c #079BC2",
"/  c #039CC3",
"(  c #079CC3",
")  c #019DC4",
"_  c #079DC4",
"`  c #0B9CC3",
"'  c #0D9DC4",
"]  c #109BC2",
"[  c #129CC3",
"{  c #189BC2",
"}  c #229DC3",
"|  c #299DC3",
" . c #3E9DC1",
".. c #34A0C5",
"X. c #4AA1C3",
"o. c #7EB1CB",
"O. c #86818E",
"+. c #9A818A",
"@. c #868998",
"#. c #A68F96",
"$. c #A9939A",
"%. c #AB979D",
"&. c #A2989F",
"*. c #AD999F",
"=. c #BEA29E",
"-. c #AD99A0",
";. c #AF9FA7",
":. c #A9A4AF",
">. c #B2A0A6",
",. c #B1A4AB",
"<. c #B7A8AD",
"1. c #B9AAAE",
"2. c #B6AAB0",
"3. c #BCADB2",
"4. c #AFB3BC",
"5. c #B5B3B8",
"6. c #BFBABE",
"7. c #DE8982",
"8. c #DF9280",
"9. c #E38585",
"0. c #E88781",
"q. c #E08B86",
"w. c #E48B87",
"e. c #EF8F81",
"r. c #EF8C87",
"t. c #E08B88",
"y. c #E68889",
"u. c #F28983",
"i. c #F18885",
"p. c #E79180",
"a. c #EF918F",
"s. c #C5BABF",
"d. c #C8BCBF",
"f. c #FFBBA4",
"g. c #FFC996",
"h. c #FAC39A",
"j. c #FFC29C",
"k. c #FBCF9E",
"l. c #FFCD9F",
"z. c #F5D19F",
"x. c #FBD99C",
"c. c #F5E49F",
"v. c #FFC3A3",
"b. c #FFC4A1",
"n. c #FFC7A7",
"m. c #F8CBA1",
"M. c #FFC9A2",
"N. c #FFCDA0",
"B. c #FFC6A9",
"V. c #FFCAA9",
"C. c #FFCCA8",
"Z. c #FBD1A1",
"A. c #FED6A3",
"S. c #FFE4A2",
"D. c #F8E2A6",
"F. c #FBEAA2",
"G. c #F9EDA3",
"H. c #FDE9A6",
"J. c #FAE4AB",
"K. c #FDE7AB",
"L. c #FFE5AE",
"P. c #F4EBA8",
"I. c #FEEFAA",
"U. c #FFE3B1",
"Y. c #80AEC6",
"T. c #91B6CC",
"R. c #A1BACC",
"E. c #A8BDCD",
"W. c #B0B7C1",
"Q. c #BFBCC1",
"!. c #B8C0C9",
"~. c #C4C0C7",
"^. c #C3C3C9",
"/. c #C5C4CB",
"(. c #CDCACE",
"). c #D0C6C9",
"_. c #C8CED5",
"`. c #D3CED3",
"'. c #D5CDD0",
"]. c #D5D2D4",
"[. c #D2D6DC",
"{. c #DCD6D8",
"}. c #E8E0DF",
"|. c #DDDFE2",
" X c #E3E0E1",
".X c #EFEFF0",
"XX c #F1EFF0",
"oX c #F4F2F3",
"OX c #F0F3F6",
/* pixels */
"s V s w.* ; , < 3 % z s p m 8.B g 9.1 # 7.f i i.M c c A q N h x ",
"a.0.r.9 = : @ % > $ q.H s i C j H t.& 2 y.n p.r k Z l i J D a V ",
"y 0 g.x.D.L.Z.l.S v b.A.c.G.I.P.h.B.w u e.d j.N.a b c e n.n.b.M.",
"u.A b.z.J.U.m.b.t F f.C.J.F.S.K.V.n.G B m e n.N.b b a d v.b.N.k.",
"M.M.M.M.M.M.M.M.M.M.H.H.H.H.H.H.H.H.H.H.H.H.M.M.M.M.M.M.M.M.M.M.",
"M.M.M.M.M.M.M.M.M.M.H.H.H.H.H.H.H.H.H.H.H.H.M.M.M.M.M.M.M.M.M.M.",
"H.H.H.H.H.H.H.H.M.M.H.H.H.H.H.H.H.H.H.H.H.H.H.H.M.M.M.M.M.M.M.M.",
"H.H.H.H.H.H.H.H.M.M.H.H.H.H.H.H.H.H.H.H.H.H.H.H.M.M.M.M.M.M.M.M.",
"H.H.H.H.H.H.H.H.H.H.M.M.H.H.H.H.H.H.H.H.H.H.H.H.M.M.M.M.M.M.H.H.",
"H.H.H.H.H.H.H.H.H.H.M.M.H.H.H.H.H.H.H.H.H.H.H.H.M.M.M.M.M.M.H.H.",
"H.H.H.H.H.H.H.H.H.H.H.H.M.M.H.H.H.H.H.H.H.H.M.M.M.M.M.M.M.M.H.H.",
"H.H.H.H.H.H.H.H.H.H.H.H.M.M.H.H.H.H.H.H.H.H.M.M.M.M.M.M.M.M.H.H.",
"H.H.H.H.H.H.H.H.H.H.H.H.M.M.M.M.M.M.M.M.M.M.M.M.M.M.M.M.M.M.H.H.",
"H.H.H.H.H.H.H.H.H.H.H.H.M.M.M.M.M.M.M.M.M.M.M.M.M.M.M.M.M.M.H.H.",
"H.H.H.H.H.H.H.H.H.H.M.M.H.H.H.H.H.H.H.H.H.H.M.M.M.M.M.M.M.M.H.H.",
"H.H.H.H.H.H.H.H.H.H.M.M.H.H.H.H.H.H.H.H.H.H.M.M.M.M.M.M.M.M.H.H.",
"H.H.H.H.H.H.H.H.M.M.H.H.H.H.H.H.H.H.H.H.H.H.H.H.M.M.M.M.M.M.M.M.",
"H.H.H.H.H.H.H.H.M.M.H.H.H.H.H.H.H.H.H.H.H.H.H.H.M.M.M.M.M.M.M.M.",
"M.M.H.H.H.H.H.H.M.M.H.H.H.H.H.H.H.H.H.H.H.H.H.H.M.M.H.H.H.H.H.H.",
"M.M.H.H.H.H.H.H.M.M.H.H.H.H.H.H.H.H.H.H.H.H.H.H.M.M.H.H.H.H.H.H.",
"H.H.M.M.M.M.M.M.M.M.H.H.H.H.H.H.H.H.H.H.H.H.H.H.M.M.H.H.H.H.H.H.",
"H.H.M.M.M.M.M.M.M.M.H.H.H.H.H.H.H.H.H.H.H.H.H.H.M.M.H.H.H.H.H.H.",
"H.H.M.M.M.M.M.M.M.M.M.M.H.H.H.H.H.H.H.H.H.H.M.M.H.H.H.H.H.H.H.H.",
"H.H.M.M.M.M.M.M.M.M.M.M.H.H.H.H.H.H.H.H.H.H.M.M.H.H.H.H.H.H.H.H.",
"H.H.M.M.M.M.H.H.H.H.M.M.M.M.H.H.H.H.H.H.M.M.H.H.H.H.H.H.H.H.H.H.",
"H.H.M.M.M.M.H.H.H.H.M.M.M.M.H.H.H.H.H.H.M.M.H.H.H.H.H.H.H.H.H.H.",
"H.H.M.M.H.H.H.H.H.H.H.H.M.M.M.M.M.M.M.M.H.H.H.H.H.H.H.H.H.H.H.H.",
"H.H.M.M.H.H.H.H.H.H.H.H.M.M.M.M.M.M.M.M.H.H.H.H.H.H.H.H.H.H.H.H.",
"H.H.M.M.H.H.H.H.H.H.H.H.M.M.M.M.M.M.H.H.H.H.H.H.H.H.H.H.H.H.H.H.",
"H.H.M.M.H.H.H.H.H.H.H.H.M.M.M.M.M.M.H.H.H.H.H.H.H.H.H.H.H.H.H.H.",
"M.M.H.H.H.H.H.H.H.H.H.H.M.M.M.M.M.M.H.H.H.H.H.H.H.H.H.H.H.H.M.M.",
"M.M.H.H.H.H.H.H.H.H.H.H.M.M.M.M.M.M.H.H.H.H.H.H.H.H.H.H.H.H.M.M.",
"M.M.M.M.m m m m M.M.m m m m M.M.H.H.H.H.M.M.m m M.M.H.H.M.M.m m ",
"M.M.M.M.m m m m M.M.c m m m M.M.H.H.H.H.M.M.m m M.M.H.H.M.M.m m ",
"m m c c m m m m m m m m > > m m c c m c m m > > > > > > m m m m ",
"m m c c c m m m c c m c > > m m c c m m m m > > > > > > c m m m ",
"4 4     4 4 4 4 X X             X X 4 4 4 4 X X         4 4 4 4 ",
"4 4     4 4 4 4 X X             X X 4 4 4 4 X X         4 4 4 4 ",
"4 4     4 4 X X 4 4 4 4 =.=.4 4     4 4 4 4 X X         4 4 4 4 ",
"4 4     4 4 X X 4 4 4 4 =.=.4 4     4 4 4 4 X X         4 4 4 4 ",
"4 4     X X X X 4 4 =.=.=.=.=.=.    X X X X X X         4 4 4 4 ",
"4 4     X X X X 4 4 =.=.=.=.=.=.    X X X X X X         4 4 4 4 ",
"X X     X X     =.=.=.=.=.=.=.=.    X X     =.=.=.=.4 4 X X X X ",
"X X     X X     =.=.=.=.=.=.=.=.    X X     =.=.=.=.4 4 X X X X ",
"X X X X         =.=.=.=.=.=.=.=.    X X     =.=.=.=.=.=.=.=.X X ",
"X X X X         =.=.=.=.=.=.=.=.    X X     =.=.=.=.=.=.=.=.X X ",
"X X X X         4 4 =.=.=.=.4 4     X X     4 4 =.=.=.=.=.=.X X ",
"X X X X         4 4 =.=.=.=.4 4     X X     4 4 =.=.=.=.=.=.X X ",
"X X X X         4 4 =.=.=.=.4 4     X X     4 4 4 4 4 4 4 4 X X ",
"X X X X         4 4 =.=.=.=.4 4     X X     4 4 4 4 4 4 4 4 X X ",
"4 4 4 4 4 4     4 4 4 4 4 4 X X X X         X X 4 4 4 4 4 4     ",
"4 4 4 4 4 4     4 4 4 4 4 4 X X X X         X X 4 4 4 4 4 4     ",
"4 4 4 4 4 4     X X X X         X X 4 4 4 4 X X 4 4 4 4 4 4     ",
"4 4 4 4 4 4     X X X X         X X 4 4 4 4 X X 4 4 4 4 4 4     ",
"X X X X X X     X X         4 4 =.=.=.=.=.=.    4 4 4 4 4 4     ",
"X X X X X X     X X         4 4 =.=.=.=.=.=.    4 4 4 4 4 4     ",
"X X X X X X                 =.=.=.=.=.=.=.=.    4 4 4 4 4 4     ",
"X X X X X X                 =.=.=.=.=.=.=.=.    4 4 4 4 4 4     ",
"X X X X     4 4 4 4 4 4     4 4 4 4 4 4 4 4     X X 4 4 4 4     ",
"X X X X     4 4 4 4 4 4     4 4 4 4 4 4 4 4     X X 4 4 4 4     ",
"    X X     4 4 4 4 4 4     4 4 4 4 4 4 4 4     X X 4 4 X X     ",
"    X X     4 4 4 4 4 4     4 4 4 4 4 4 4 4     X X 4 4 X X     ",
"4 4         X X X X X X     4 4 4 4 4 4 4 4     X o X X X X 6 L ",
"4 4         X X X X X X     4 4 4 4 4 4 4 4     X X I I O + K W ",
"=.}.P 6.8 - *.X X X X X     4 4 4 4 4 4 5 4 X X X X ].5.^.E.~ ! ",
"(. XO.Q.s.+.-.1.{.).>.%..   4 4 4 4 4 4 4 7 #.XX'.2.W.E X... . .",
"| } ^ U T T R Q /.oX,.!.4.&.d.I $.3.$.<.;.`..X_.{ Y ( / ' _ ' ' ",
") ) ) ) ` _ [ { ] ` ` { Y.@.~.:.|.[.OXR.T.o.{ ` ( ) ) ) ) ) ) ) "
};
