/* XPM */
static char *_2a6c1bbc68e4be3b0770afc5152d622[] = {
/* columns rows colors chars-per-pixel */
"32 68 8 1 ",
"  c #4C1840",
". c #73314C",
"X c #A94C66",
"o c #8B6472",
"O c #E68B7C",
"+ c #BEA29E",
"@ c #FFC9A2",
"# c #FDE9A6",
/* pixels */
"@@########@@@@####@@########@@@@",
"@@########@@@@####@@########@@@@",
"@@@@####@@##########@@@@@@@@@@@@",
"@@@@####@@##########@@@@@@@@@@@@",
"@@@@@@@@@@############@@@@@@@@@@",
"@@@@@@@@@@############@@@@@@@@@@",
"########@@##############@@@@@@@@",
"########@@##############@@@@@@@@",
"##########@@############@@@@@@##",
"##########@@############@@@@@@##",
"############@@########@@@@@@@@##",
"############@@########@@@@@@@@##",
"############@@@@@@@@@@@@@@@@@@##",
"############@@@@@@@@@@@@@@@@@@##",
"##########@@##########@@@@@@@@##",
"##########@@##########@@@@@@@@##",
"########@@##############@@@@@@@@",
"########@@##############@@@@@@@@",
"@@######@@##############@@######",
"@@######@@##############@@######",
"##@@@@@@@@##############@@######",
"##@@@@@@@@##############@@######",
"##@@@@@@@@@@##########@@########",
"##@@@@@@@@@@##########@@########",
"##@@@@####@@@@######@@##########",
"##@@@@####@@@@######@@##########",
"##@@########@@@@@@@@############",
"##@@########@@@@@@@@############",
"##@@########@@@@@@##############",
"##@@########@@@@@@##############",
"@@##########@@@@@@############@@",
"@@##########@@@@@@############@@",
"@@@@OOOO@@OOOO@@####@@OO@@##@@OO",
"@@@@OOOO@@OOOO@@####@@OO@@##@@OO",
"OOOOOOOOOOOOXXOOOOOOOOXXXXXXOOOO",
"OOOOOOOOOOOOXXOOOOOOOOXXXXXXOOOO",
"oo  oooo..      ..oooo..    oooo",
"oo  oooo..      ..oooo..    oooo",
"oo  oo..oooo++oo  oooo..    oooo",
"oo  oo..oooo++oo  oooo..    oooo",
"oo  ....oo++++++  ......    oooo",
"oo  ....oo++++++  ......    oooo",
"..  ..  ++++++++  ..  ++++oo....",
"..  ..  ++++++++  ..  ++++oo....",
"....    ++++++++  ..  ++++++++..",
"....    ++++++++  ..  ++++++++..",
"....    oo++++oo  ..  oo++++++..",
"....    oo++++oo  ..  oo++++++..",
"....    oo++++oo  ..  oooooooo..",
"....    oo++++oo  ..  oooooooo..",
"oooooo  oooooo....    ..oooooo  ",
"oooooo  oooooo....    ..oooooo  ",
"oooooo  ....    ..oooo..oooooo  ",
"oooooo  ....    ..oooo..oooooo  ",
"......  ..    oo++++++  oooooo  ",
"......  ..    oo++++++  oooooo  ",
"......        ++++++++  oooooo  ",
"......        ++++++++  oooooo  ",
"....  oooooo  oooooooo  ..oooo  ",
"....  oooooo  oooooooo  ..oooo  ",
"  ..  oooooo  oooooooo  ..oo..  ",
"  ..  oooooo  oooooooo  ..oo..  ",
"oo    ......  oooooooo  ......oo",
"oo    ......  oooooooo  ......oo",
"++  ........  oooooooo....  ++++",
"++  ........  oooooooo....  ++++",
"++  oooo....  ..oooooo....  ++++",
"++  oooo....  ..oooooo....  ++++"
};
