/* XPM */
static char *b9a648c12346431e923900b129511d11[] = {
/* columns rows colors chars-per-pixel */
"32 68 186 2 ",
"   c #4C1840",
".  c #73314C",
"X  c #9F4C5C",
"o  c #AA4358",
"O  c #A74A5F",
"+  c #A34C5D",
"@  c #A44C5C",
"#  c #A9485B",
"$  c #AB4D5B",
"%  c #AF485D",
"&  c #A94C5E",
"*  c #B3475E",
"=  c #B04A5F",
"-  c #A05157",
";  c #A4505D",
":  c #A4575D",
">  c #AE5159",
",  c #9F4868",
"<  c #9E5163",
"1  c #9F5066",
"2  c #9A5665",
"3  c #9C5565",
"4  c #A04765",
"5  c #AF4667",
"6  c #A34E63",
"7  c #A24864",
"8  c #A64964",
"9  c #AD4961",
"0  c #AF4E62",
"q  c #A94C67",
"w  c #A5476B",
"e  c #AC436C",
"r  c #A04A6D",
"t  c #AA4B6B",
"y  c #AC4B6E",
"u  c #AC4F6E",
"i  c #B14D65",
"p  c #B34568",
"a  c #B04F6E",
"s  c #B94C69",
"d  c #A35062",
"f  c #A55767",
"g  c #AF5463",
"h  c #AC5065",
"j  c #A85865",
"k  c #A45269",
"l  c #A6506D",
"z  c #A85368",
"x  c #B15061",
"c  c #B25165",
"v  c #B3536E",
"b  c #A14F73",
"n  c #A44C72",
"m  c #B04A72",
"M  c #B04C70",
"N  c #A95274",
"B  c #8B6472",
"V  c #DE876C",
"C  c #D4896C",
"Z  c #DD8776",
"A  c #D68B76",
"S  c #D98B75",
"D  c #DD8B76",
"F  c #DE8678",
"G  c #DF857C",
"H  c #DE8879",
"J  c #DB8E7A",
"K  c #DF8E7B",
"L  c #DA887C",
"P  c #DF8D7F",
"I  c #DD9676",
"U  c #DF917A",
"Y  c #E68467",
"T  c #E28371",
"R  c #E38377",
"E  c #E78777",
"W  c #EA8676",
"Q  c #EC8576",
"!  c #E28977",
"~  c #E78B76",
"^  c #E18C77",
"/  c #E58D77",
"(  c #EA8A71",
")  c #E5877B",
"_  c #E4867E",
"`  c #ED8278",
"'  c #E9877A",
"]  c #ED8779",
"[  c #E8857F",
"{  c #EC857C",
"}  c #E38A78",
"|  c #E58A78",
" . c #E08E79",
".. c #E48D7A",
"X. c #E38A7C",
"o. c #E78B7E",
"O. c #E28F7D",
"+. c #E58C7E",
"@. c #E88B7A",
"#. c #EA8D7B",
"$. c #EA8A7C",
"%. c #EF897D",
"&. c #E88C7D",
"*. c #F2887B",
"=. c #F8887C",
"-. c #E2907B",
";. c #E3967A",
":. c #E59479",
">. c #E3927F",
",. c #E6917C",
"<. c #E9927F",
"1. c #BEA29E",
"2. c #DE8B83",
"3. c #DD8F82",
"4. c #DF9280",
"5. c #DF9D87",
"6. c #E38585",
"7. c #ED8481",
"8. c #E38A82",
"9. c #E28F81",
"0. c #E68E82",
"q. c #E08B86",
"w. c #EA8980",
"e. c #EF8A82",
"r. c #EF8F81",
"t. c #E4838C",
"y. c #EE8788",
"u. c #E08B88",
"i. c #E68889",
"p. c #F18885",
"a. c #F08A88",
"s. c #E79180",
"d. c #EEB496",
"f. c #FFBBA4",
"g. c #FFCC93",
"h. c #FFCC94",
"j. c #F7C19F",
"k. c #FAC39A",
"l. c #FCC79B",
"z. c #FFC09D",
"x. c #FBC49F",
"c. c #FBCB9B",
"v. c #FFCA9E",
"b. c #EFE495",
"n. c #F1E495",
"m. c #F5E49F",
"M. c #FFE39F",
"N. c #FFE59F",
"B. c #F2F698",
"V. c #FFC3A3",
"C. c #FFC4A2",
"Z. c #FFC3A4",
"A. c #FFC4A5",
"S. c #F6C8A4",
"D. c #FBCAA1",
"F. c #FFC9A2",
"G. c #FFCDA0",
"H. c #F8CCA7",
"J. c #FFCCA4",
"K. c #FFC6A9",
"L. c #FFC8A9",
"P. c #FFCCA8",
"I. c #FFC9AD",
"U. c #FFCEAF",
"Y. c #FED6A3",
"T. c #FFDBAF",
"R. c #FADEAC",
"E. c #FFDCB1",
"W. c #FFE4A2",
"Q. c #FBEAA2",
"!. c #F9EDA3",
"~. c #FBEAA4",
"^. c #FDE9A6",
"/. c #FFEFA7",
"(. c #F2E7A9",
"). c #F7E1AF",
"_. c #FBE7A8",
"`. c #FDE7AB",
"'. c #FFE6AE",
"]. c #F4EBA8",
"[. c #FEEFAA",
"{. c #FFEBAF",
"}. c #F7F1A3",
"|. c #FBF5A9",
" X c #FFE4B2",
".X c #F9EEB6",
/* pixels */
"3.#.4 6 s < b % [ ~ Q o.4.@.( 6.h + 2./ E p.O.| | &.Z +.) { F.F.",
"t.e.z : * 8 q $ q.>.~ E $.` >.u.& x i.X.s.L ' %.] E <.-.! #.F.F.",
"A.h.R.~.l.I.*. .C.Y.m.!.[.].k.K.H R r.^ z.G.! ..| K A.A.#.P | | ",
"5.v.E.{.J.L.Y ;.f.P._.Q.W.`.L.A.:.@.o.K A.G.....! ^ V.C.e.t.y.7.",
"F.F.F.F.F.F.F.F.F.F.^.^.^.^.^.^.^.^.^.^.^.^.F.F.F.F.F.F.g.Z.A I ",
"F.F.F.F.F.F.F.F.F.F.^.^.^.^.^.^.^.^.^.^.^.^.F.F.F.F.F.F.v.5.i o ",
"^.^.^.^.^.^.^.^.F.F.^.^.^.^.^.^.^.^.^.^.^.^.^.^.F.F.F.F.b.W.X v ",
"^.^.^.^.^.^.^.^.F.F.^.^.^.^.^.^.^.^.^.^.^.^.^.^.F.F.F.F.|.n.l e ",
"^.^.^.^.^.^.^.^.^.^.F.F.^.^.^.^.^.^.^.^.^.^.^.^.F.F.F.F.]./.w a ",
"^.^.^.^.^.^.^.^.^.^.F.F.^.^.^.^.^.^.^.^.^.^.^.^.F.F.F.F._.N.u - ",
"^.^.^.^.^.^.^.^.^.^.^.^.F.F.^.^.^.^.^.^.^.^.F.F.F.F.F.F.)..X@ d ",
"^.^.^.^.^.^.^.^.^.^.^.^.F.F.^.^.^.^.^.^.^.^.F.F.F.F.F.F.[.B.T. X",
"^.^.^.^.^.^.^.^.^.^.^.^.F.F.F.F.F.F.F.F.F.F.F.F.F.F.F.F.U V c 0 ",
"^.^.^.^.^.^.^.^.^.^.^.^.F.F.F.F.F.F.F.F.F.F.F.F.F.F.F.F.T =.7 t ",
"^.^.^.^.^.^.^.^.^.^.F.F.^.^.^.^.^.^.^.^.^.^.F.F.F.F.F.F.S ~ 2 3 ",
"^.^.^.^.^.^.^.^.^.^.F.F.^.^.^.^.^.^.^.^.^.^.F.F.F.F.F.F.P &.5 p ",
"^.^.^.^.^.^.^.^.F.F.^.^.^.^.^.^.^.^.^.^.^.^.^.^.F.F.F.F.'.M.+.| ",
"^.^.^.^.^.^.^.^.F.F.^.^.^.^.^.^.^.^.^.^.^.^.^.^.F.F.F.F.(.}.F ..",
"F.F.^.^.^.^.^.^.F.F.^.^.^.^.^.^.^.^.^.^.^.^.^.^.F.F.^.^.A.U.@ M ",
"F.F.^.^.^.^.^.^.F.F.^.^.^.^.^.^.^.^.^.^.^.^.^.^.F.F.^.^.z.j.j r ",
"^.^.F.F.F.F.F.F.F.F.^.^.^.^.^.^.^.^.^.^.^.^.^.^.F.F.^.^.D.P.; y ",
"^.^.F.F.F.F.F.F.F.F.^.^.^.^.^.^.^.^.^.^.^.^.^.^.F.F.^.^.K.A.> = ",
"^.^.F.F.F.F.F.F.F.F.F.F.^.^.^.^.^.^.^.^.^.^.F.F.^.^.^.^._ D q.3.",
"^.^.F.F.F.F.F.F.F.F.F.F.^.^.^.^.^.^.^.^.^.^.F.F.^.^.^.^.8. .w.,.",
"^.^.F.F.F.F.^.^.^.^.F.F.F.F.^.^.^.^.^.^.F.F.^.^.^.^.^.^.K.A.R @.",
"^.^.F.F.F.F.^.^.^.^.F.F.F.F.^.^.^.^.^.^.F.F.^.^.^.^.^.^.c.l.9.P ",
"^.^.F.F.^.^.^.^.^.^.^.^.F.F.F.F.F.F.F.F.^.^.^.^.^.^.^.^.S.H.0.W ",
"^.^.F.F.^.^.^.^.^.^.^.^.F.F.F.F.F.F.F.F.^.^.^.^.^.^.^.^.F.v.} ^ ",
"^.^.F.F.^.^.^.^.^.^.^.^.F.F.F.F.F.F.^.^.^.^.^.^.^.^.^.^.J o.# 1 ",
"^.^.F.F.^.^.^.^.^.^.^.^.F.F.F.F.F.F.^.^.^.^.^.^.^.^.^.^.C @.% N ",
"F.F.^.^.^.^.^.^.^.^.^.^.F.F.F.F.F.F.^.^.^.^.^.^.^.^.^.^.a.e.O , ",
"F.F.^.^.^.^.^.^.^.^.^.^.F.F.F.F.F.F.^.^.^.^.^.^.^.^.^.^.2.G g 9 ",
"F.F.d.d.o.o.o.o.F.F.o.o.o.o.F.F.^.^.^.^.F.F.o.o.F.F.^.^.+ h n m ",
"F.F.x.x.o.o.o.o.F.F.o.o.o.o.F.F.^.^.^.^.F.F.o.o.F.F.^.^.f O k & ",
"o.o.| | o.o.o.o.o.o.o.o.q q o.o.| | o.| o.o.q q q q q q o.o.o.o.",
"o.o.| | | | o.o.o.o.o.| q q o.o.o.o.o.o.o.o.q q q q q q o.o.o.o.",
"B B     B B B B . .             . . B B B B . .         B B B B ",
"B B     B B B B . .             . . B B B B . .         B B B B ",
"B B     B B . . B B B B 1.1.B B     B B B B . .         B B B B ",
"B B     B B . . B B B B 1.1.B B     B B B B . .         B B B B ",
"B B     . . . . B B 1.1.1.1.1.1.    . . . . . .         B B B B ",
"B B     . . . . B B 1.1.1.1.1.1.    . . . . . .         B B B B ",
". .     . .     1.1.1.1.1.1.1.1.    . .     1.1.1.1.B B . . . . ",
". .     . .     1.1.1.1.1.1.1.1.    . .     1.1.1.1.B B . . . . ",
". . . .         1.1.1.1.1.1.1.1.    . .     1.1.1.1.1.1.1.1.. . ",
". . . .         1.1.1.1.1.1.1.1.    . .     1.1.1.1.1.1.1.1.. . ",
". . . .         B B 1.1.1.1.B B     . .     B B 1.1.1.1.1.1.. . ",
". . . .         B B 1.1.1.1.B B     . .     B B 1.1.1.1.1.1.. . ",
". . . .         B B 1.1.1.1.B B     . .     B B B B B B B B . . ",
". . . .         B B 1.1.1.1.B B     . .     B B B B B B B B . . ",
"B B B B B B     B B B B B B . . . .         . . B B B B B B     ",
"B B B B B B     B B B B B B . . . .         . . B B B B B B     ",
"B B B B B B     . . . .         . . B B B B . . B B B B B B     ",
"B B B B B B     . . . .         . . B B B B . . B B B B B B     ",
". . . . . .     . .         B B 1.1.1.1.1.1.    B B B B B B     ",
". . . . . .     . .         B B 1.1.1.1.1.1.    B B B B B B     ",
". . . . . .                 1.1.1.1.1.1.1.1.    B B B B B B     ",
". . . . . .                 1.1.1.1.1.1.1.1.    B B B B B B     ",
". . . .     B B B B B B     B B B B B B B B     . . B B B B     ",
". . . .     B B B B B B     B B B B B B B B     . . B B B B     ",
"    . .     B B B B B B     B B B B B B B B     . . B B . .     ",
"    . .     B B B B B B     B B B B B B B B     . . B B . .     ",
"B B         . . . . . .     B B B B B B B B     . . . . . . B B ",
"B B         . . . . . .     B B B B B B B B     . . . . . . B B ",
"1.1.    . . . . . . . .     B B B B B B B B . . . .     1.1.1.1.",
"1.1.    . . . . . . . .     B B B B B B B B . . . .     1.1.1.1.",
"1.1.    B B B B . . . .     . . B B B B B B . . . .     1.1.1.1.",
"1.1.    B B B B . . . .     . . B B B B B B . . . .     1.1.1.1."
};
