/* XPM */
static char *_eeb8878792e4aa8a95b455b4b7721e2[] = {
/* columns rows colors chars-per-pixel */
"32 68 93 2 ",
"   c #4C1840",
".  c #532C49",
"X  c #73314C",
"o  c #74344E",
"O  c #723550",
"+  c #6C4964",
"@  c #875F6D",
"#  c #A94C66",
"$  c #8B6472",
"%  c #8C6573",
"&  c #8A6675",
"*  c #8E6976",
"=  c #8F6C78",
"-  c #E68B7C",
";  c #747A93",
":  c #826E81",
">  c #877983",
",  c #9A7E87",
"<  c #1794BA",
"1  c #2D93B8",
"2  c #2999BF",
"3  c #3E94B8",
"4  c #4C91B1",
"5  c #6386A3",
"6  c #6397B6",
"7  c #6D9EBA",
"8  c #709FB9",
"9  c #079BC2",
"0  c #039CC3",
"q  c #079CC3",
"w  c #019DC4",
"e  c #079DC4",
"r  c #0B9CC3",
"t  c #0D9DC4",
"y  c #109BC2",
"u  c #129CC3",
"i  c #189BC2",
"p  c #229DC3",
"a  c #299DC3",
"s  c #3E9DC1",
"d  c #34A0C5",
"f  c #4AA1C3",
"g  c #7EB1CB",
"h  c #86818E",
"j  c #9A818A",
"k  c #868998",
"l  c #A68F96",
"z  c #A9939A",
"x  c #AB979D",
"c  c #A2989F",
"v  c #AD999F",
"b  c #BEA29E",
"n  c #AD99A0",
"m  c #AF9FA7",
"M  c #A9A4AF",
"N  c #B2A0A6",
"B  c #B1A4AB",
"V  c #B7A8AD",
"C  c #B9AAAE",
"Z  c #B6AAB0",
"A  c #BCADB2",
"S  c #AFB3BC",
"D  c #B5B3B8",
"F  c #BFBABE",
"G  c #C5BABF",
"H  c #C8BCBF",
"J  c #FFC9A2",
"K  c #FDE9A6",
"L  c #80AEC6",
"P  c #91B6CC",
"I  c #A1BACC",
"U  c #A8BDCD",
"Y  c #B0B7C1",
"T  c #BFBCC1",
"R  c #B8C0C9",
"E  c #C4C0C7",
"W  c #C3C3C9",
"Q  c #C5C4CB",
"!  c #CDCACE",
"~  c #D0C6C9",
"^  c #C8CED5",
"/  c #D3CED3",
"(  c #D5CDD0",
")  c #D5D2D4",
"_  c #D2D6DC",
"`  c #DCD6D8",
"'  c #E8E0DF",
"]  c #DDDFE2",
"[  c #E3E0E1",
"{  c #EFEFF0",
"}  c #F1EFF0",
"|  c #F4F2F3",
" . c #F0F3F6",
/* pixels */
"J J K K K K K K K K J J J J K K K K J J K K K K K K K K J J J J ",
"J J K K K K K K K K J J J J K K K K J J K K K K K K K K J J J J ",
"J J J J K K K K J J K K K K K K K K K K J J J J J J J J J J J J ",
"J J J J K K K K J J K K K K K K K K K K J J J J J J J J J J J J ",
"J J J J J J J J J J K K K K K K K K K K K K J J J J J J J J J J ",
"J J J J J J J J J J K K K K K K K K K K K K J J J J J J J J J J ",
"K K K K K K K K J J K K K K K K K K K K K K K K J J J J J J J J ",
"K K K K K K K K J J K K K K K K K K K K K K K K J J J J J J J J ",
"K K K K K K K K K K J J K K K K K K K K K K K K J J J J J J K K ",
"K K K K K K K K K K J J K K K K K K K K K K K K J J J J J J K K ",
"K K K K K K K K K K K K J J K K K K K K K K J J J J J J J J K K ",
"K K K K K K K K K K K K J J K K K K K K K K J J J J J J J J K K ",
"K K K K K K K K K K K K J J J J J J J J J J J J J J J J J J K K ",
"K K K K K K K K K K K K J J J J J J J J J J J J J J J J J J K K ",
"K K K K K K K K K K J J K K K K K K K K K K J J J J J J J J K K ",
"K K K K K K K K K K J J K K K K K K K K K K J J J J J J J J K K ",
"K K K K K K K K J J K K K K K K K K K K K K K K J J J J J J J J ",
"K K K K K K K K J J K K K K K K K K K K K K K K J J J J J J J J ",
"J J K K K K K K J J K K K K K K K K K K K K K K J J K K K K K K ",
"J J K K K K K K J J K K K K K K K K K K K K K K J J K K K K K K ",
"K K J J J J J J J J K K K K K K K K K K K K K K J J K K K K K K ",
"K K J J J J J J J J K K K K K K K K K K K K K K J J K K K K K K ",
"K K J J J J J J J J J J K K K K K K K K K K J J K K K K K K K K ",
"K K J J J J J J J J J J K K K K K K K K K K J J K K K K K K K K ",
"K K J J J J K K K K J J J J K K K K K K J J K K K K K K K K K K ",
"K K J J J J K K K K J J J J K K K K K K J J K K K K K K K K K K ",
"K K J J K K K K K K K K J J J J J J J J K K K K K K K K K K K K ",
"K K J J K K K K K K K K J J J J J J J J K K K K K K K K K K K K ",
"K K J J K K K K K K K K J J J J J J K K K K K K K K K K K K K K ",
"K K J J K K K K K K K K J J J J J J K K K K K K K K K K K K K K ",
"J J K K K K K K K K K K J J J J J J K K K K K K K K K K K K J J ",
"J J K K K K K K K K K K J J J J J J K K K K K K K K K K K K J J ",
"J J J J - - - - J J - - - - J J K K K K J J - - J J K K J J - - ",
"J J J J - - - - J J - - - - J J K K K K J J - - J J K K J J - - ",
"- - - - - - - - - - - - # # - - - - - - - - # # # # # # - - - - ",
"- - - - - - - - - - - - # # - - - - - - - - # # # # # # - - - - ",
"$ $     $ $ $ $ X X             X X $ $ $ $ X X         $ $ $ $ ",
"$ $     $ $ $ $ X X             X X $ $ $ $ X X         $ $ $ $ ",
"$ $     $ $ X X $ $ $ $ b b $ $     $ $ $ $ X X         $ $ $ $ ",
"$ $     $ $ X X $ $ $ $ b b $ $     $ $ $ $ X X         $ $ $ $ ",
"$ $     X X X X $ $ b b b b b b     X X X X X X         $ $ $ $ ",
"$ $     X X X X $ $ b b b b b b     X X X X X X         $ $ $ $ ",
"X X     X X     b b b b b b b b     X X     b b b b $ $ X X X X ",
"X X     X X     b b b b b b b b     X X     b b b b $ $ X X X X ",
"X X X X         b b b b b b b b     X X     b b b b b b b b X X ",
"X X X X         b b b b b b b b     X X     b b b b b b b b X X ",
"X X X X         $ $ b b b b $ $     X X     $ $ b b b b b b X X ",
"X X X X         $ $ b b b b $ $     X X     $ $ b b b b b b X X ",
"X X X X         $ $ b b b b $ $     X X     $ $ $ $ $ $ $ $ X X ",
"X X X X         $ $ b b b b $ $     X X     $ $ $ $ $ $ $ $ X X ",
"$ $ $ $ $ $     $ $ $ $ $ $ X X X X         X X $ $ $ $ $ $     ",
"$ $ $ $ $ $     $ $ $ $ $ $ X X X X         X X $ $ $ $ $ $     ",
"$ $ $ $ $ $     X X X X         X X $ $ $ $ X X $ $ $ $ $ $     ",
"$ $ $ $ $ $     X X X X         X X $ $ $ $ X X $ $ $ $ $ $     ",
"X X X X X X     X X         $ $ b b b b b b     $ $ $ $ $ $     ",
"X X X X X X     X X         $ $ b b b b b b     $ $ $ $ $ $     ",
"X X X X X X                 b b b b b b b b     $ $ $ $ $ $     ",
"X X X X X X                 b b b b b b b b     $ $ $ $ $ $     ",
"X X X X     $ $ $ $ $ $     $ $ $ $ $ $ $ $     X X $ $ $ $     ",
"X X X X     $ $ $ $ $ $     $ $ $ $ $ $ $ $     X X $ $ $ $     ",
"    X X     $ $ $ $ $ $     $ $ $ $ $ $ $ $     X X $ $ X X     ",
"    X X     $ $ $ $ $ $     $ $ $ $ $ $ $ $     X X $ $ X X     ",
"$ $         X X X X X X     $ $ $ $ $ $ $ $     X o X X X X & : ",
"$ $         X X X X X X     $ $ $ $ $ $ $ $     X X , , O + ; 5 ",
"b ' > F = @ v X X X X X     $ $ $ $ $ $ % $ X X X X ) D W U 8 7 ",
"! [ h T G j n C ` ~ N x .   $ $ $ $ $ $ $ * l } ( Z Y 4 f d s s ",
"a p 9 < 2 2 3 6 Q | B R S c H , z A z V m / { ^ i 1 q 0 t e t t ",
"w w w w r e u i y r r i L k E M ] _  .I P g i r q w w w w w w w "
};
