/* XPM */
static char * col03_xpm[] = {
"28 28 166 2",
"  	c #FFC9A2",
". 	c #FDE9A6",
"+ 	c #F6C39C",
"@ 	c #989860",
"# 	c #9BA965",
"$ 	c #FCE9AC",
"% 	c #C6B681",
"& 	c #69863B",
"* 	c #669635",
"= 	c #749C41",
"- 	c #F2DFA0",
"; 	c #F1DE9E",
"> 	c #79914A",
", 	c #5B8B2B",
"' 	c #6B9E37",
") 	c #749D46",
"! 	c #F3E0A1",
"~ 	c #FCE8A5",
"{ 	c #D9C68C",
"] 	c #9D8E66",
"^ 	c #BAAA79",
"/ 	c #F5E1A0",
"( 	c #D0C18C",
"_ 	c #5B892C",
": 	c #669733",
"< 	c #6C9C3B",
"[ 	c #E2B291",
"} 	c #F7C29C",
"| 	c #9D795F",
"1 	c #6A5034",
"2 	c #9E793C",
"3 	c #9C7949",
"4 	c #927157",
"5 	c #DCAD8A",
"6 	c #E9D698",
"7 	c #94925B",
"8 	c #59862C",
"9 	c #719936",
"0 	c #869B4C",
"a 	c #775C3E",
"b 	c #A37D40",
"c 	c #C69844",
"d 	c #BE8E34",
"e 	c #987334",
"f 	c #987751",
"g 	c #EBB995",
"h 	c #FAC59F",
"i 	c #D0A483",
"j 	c #DDCB91",
"k 	c #A6AB69",
"l 	c #A28E56",
"m 	c #D7A64D",
"n 	c #D8A545",
"o 	c #CE9C38",
"p 	c #CE9A34",
"q 	c #CD9934",
"r 	c #CC9A34",
"s 	c #C39132",
"t 	c #936A29",
"u 	c #795E4A",
"v 	c #C49A7C",
"w 	c #9C7758",
"x 	c #A18147",
"y 	c #B68A42",
"z 	c #D19E45",
"A 	c #CB9837",
"B 	c #BB8A2E",
"C 	c #BA8A2F",
"D 	c #C29031",
"E 	c #BA8A32",
"F 	c #BE8D30",
"G 	c #B38730",
"H 	c #705440",
"I 	c #DAAE90",
"J 	c #876C4A",
"K 	c #AB8754",
"L 	c #A9834E",
"M 	c #AE8445",
"N 	c #BC8D38",
"O 	c #BA892F",
"P 	c #C39032",
"Q 	c #B4842C",
"R 	c #C29132",
"S 	c #BB8C31",
"T 	c #A37729",
"U 	c #9A7028",
"V 	c #594529",
"W 	c #93745D",
"X 	c #B99A71",
"Y 	c #D9BB8E",
"Z 	c #E2C599",
"` 	c #C8A87A",
" .	c #A9844C",
"..	c #AD8341",
"+.	c #BB8C2F",
"@.	c #C19030",
"#.	c #BB8B30",
"$.	c #A3782C",
"%.	c #9B7129",
"&.	c #976D28",
"*.	c #51391C",
"=.	c #3D2715",
"-.	c #D5B689",
";.	c #D9BC8E",
">.	c #DFC195",
",.	c #DBBC91",
"'.	c #CEB084",
").	c #BD9D70",
"!.	c #AC7E2C",
"~.	c #AF812D",
"{.	c #9B712B",
"].	c #835D25",
"^.	c #65441D",
"/.	c #6F6246",
"(.	c #412914",
"_.	c #CFB083",
":.	c #DABC8E",
"<.	c #D6B78B",
"[.	c #D7B68B",
"}.	c #E6C89C",
"|.	c #BF9E6E",
"1.	c #9C722E",
"2.	c #B1822D",
"3.	c #9A7029",
"4.	c #906724",
"5.	c #6A471F",
"6.	c #603F1A",
"7.	c #57493E",
"8.	c #CBB983",
"9.	c #543E2D",
"0.	c #CAAA7F",
"a.	c #DFC094",
"b.	c #E4C69A",
"c.	c #D2B488",
"d.	c #997136",
"e.	c #8F6725",
"f.	c #7B5521",
"g.	c #5F3E1E",
"h.	c #655134",
"i.	c #978A63",
"j.	c #F5E1A1",
"k.	c #87674F",
"l.	c #665338",
"m.	c #D2B68C",
"n.	c #D7B88C",
"o.	c #D7B88B",
"p.	c #D5B68A",
"q.	c #DCBF94",
"r.	c #866236",
"s.	c #61401D",
"t.	c #6C5336",
"u.	c #A57F63",
"v.	c #876E59",
"w.	c #C2A67F",
"x.	c #D8B98C",
"y.	c #D0B386",
"z.	c #785738",
"A.	c #554129",
"B.	c #786949",
"C.	c #C7B782",
"D.	c #80614A",
"E.	c #645138",
"F.	c #492F19",
"G.	c #4A321C",
"H.	c #58452D",
"I.	c #CABA84",
"                . . . . . . . . . . . .                 ",
"                . . . . . . . . . . . .                 ",
". . . . . .     . . . . . . . . . . . . . .             ",
". . . . . .     . . . . . . . . . . . . . .             ",
". . . . . . . .     . . . . . . . . . . . .             ",
". . . . . . . . + @ # $ . . . . . . . . . .             ",
". . . . . . . . % & * = - . . . . . . .                 ",
". . . . . . . . ; > , ' ) ! . ~ { ] ^ /                 ",
". . . . . . . . ; ( _ : < [ } | 1 2 3 4 5               ",
". . . . . . . . . 6 7 8 9 0 a b c d d e f g             ",
". . . . . . . . h i j k l m n o p q r s t u             ",
". . . . . . . . v w x y z A B C q D E F G H             ",
". . . . . .   I J K L M N O P D Q R S T U V             ",
". . . . . .   W X Y Z `  ...+.@.#.$.U %.&.*.            ",
". . . . . .   =.-.;.>.,.'.).!.~.%.%.{.].^./.    . . . . ",
". . . . . .   (._.:.<.[.}.|.1.2.3.4.5.6.7.8.    . . . . ",
"              9.0.a.Y -.b.c.d.e.f.g.h.i.j..     . . . . ",
"              k.l.m.n.o.p.q.r.s.t.^ % . . .     . . . . ",
"                u.v.w.x.y.z.A.B.C.. . .     . . . . . . ",
"                  D.E.F.G.H.I.. . . . .     . . . . . . ",
"        . . . .         . . . . . .     . . . . . . . . ",
"        . . . .         . . . . . .     . . . . . . . . ",
"    . . . . . . . .                 . . . . . . . . . . ",
"    . . . . . . . .                 . . . . . . . . . . ",
"    . . . . . . . .             . . . . . . . . . . . . ",
"    . . . . . . . .             . . . . . . . . . . . . ",
". . . . . . . . . .             . . . . . . . . . . . . ",
". . . . . . . . . .             . . . . . . . . . . . . "};
