/* XPM */
static char * col04_xpm[] = {
"28 28 165 2",
"  	c #FFC9A2",
". 	c #FDE9A6",
"+ 	c #F4E2A0",
"@ 	c #97A361",
"# 	c #9BA965",
"$ 	c #FCE9AC",
"% 	c #C6B681",
"& 	c #69863B",
"* 	c #669635",
"= 	c #749E41",
"- 	c #F2DFA0",
"; 	c #F3BF9A",
"> 	c #7A8B49",
", 	c #5B8B2B",
"' 	c #6B9E37",
") 	c #749D46",
"! 	c #F3E0A1",
"~ 	c #FCE8A5",
"{ 	c #D9C68C",
"] 	c #9D8E66",
"^ 	c #BAAA79",
"/ 	c #F5E1A0",
"( 	c #D2A789",
"_ 	c #5B8A2C",
": 	c #669733",
"< 	c #6C9C3B",
"[ 	c #E0CE94",
"} 	c #9C8B61",
"| 	c #6A5535",
"1 	c #9E793C",
"2 	c #9B7D4A",
"3 	c #918159",
"4 	c #DBC88E",
"5 	c #E9D698",
"6 	c #94925B",
"7 	c #59862C",
"8 	c #719936",
"9 	c #869F4D",
"0 	c #77613E",
"a 	c #A27E40",
"b 	c #C69844",
"c 	c #BE8E34",
"d 	c #987334",
"e 	c #987751",
"f 	c #EBB995",
"g 	c #F8E5A3",
"h 	c #CEBE87",
"i 	c #DFAF8D",
"j 	c #A79D66",
"k 	c #A28E56",
"l 	c #D7A64D",
"m 	c #D8A545",
"n 	c #CE9C38",
"o 	c #CE9A34",
"p 	c #CD9934",
"q 	c #CC9A34",
"r 	c #C39132",
"s 	c #936A29",
"t 	c #795E4A",
"u 	c #C3B37F",
"v 	c #9B875A",
"w 	c #A17C47",
"x 	c #B68A42",
"y 	c #D19E45",
"z 	c #CB9837",
"A 	c #BB8A2E",
"B 	c #BA8A2F",
"C 	c #C29031",
"D 	c #BA8A32",
"E 	c #BE8D30",
"F 	c #B38730",
"G 	c #705440",
"H 	c #D8C893",
"I 	c #876C4A",
"J 	c #AB8754",
"K 	c #A9834E",
"L 	c #AE8445",
"M 	c #BC8D38",
"N 	c #BA892F",
"O 	c #C39032",
"P 	c #B4842C",
"Q 	c #C29132",
"R 	c #BB8C31",
"S 	c #A37729",
"T 	c #9A7028",
"U 	c #5A4128",
"V 	c #92865F",
"W 	c #B99A71",
"X 	c #D9BB8E",
"Y 	c #E2C599",
"Z 	c #C8A87A",
"` 	c #A9844C",
" .	c #AD8341",
"..	c #BB8C2F",
"+.	c #C19030",
"@.	c #BB8B30",
"#.	c #A3782C",
"$.	c #9B7129",
"%.	c #976D28",
"&.	c #51391C",
"*.	c #3D2715",
"=.	c #D5B689",
"-.	c #D9BC8E",
";.	c #DFC195",
">.	c #DBBC91",
",.	c #CEB084",
"'.	c #BD9D70",
").	c #AC7E2C",
"!.	c #AF812D",
"~.	c #9B712B",
"{.	c #835D25",
"].	c #65441D",
"^.	c #6F5644",
"/.	c #412914",
"(.	c #CFB083",
"_.	c #DABC8E",
":.	c #D6B78B",
"<.	c #D7B68B",
"[.	c #E6C89C",
"}.	c #BF9E6E",
"|.	c #9C722E",
"1.	c #B1822D",
"2.	c #9A7029",
"3.	c #906724",
"4.	c #6A471F",
"5.	c #603F1A",
"6.	c #57493E",
"7.	c #CBB983",
"8.	c #543E2D",
"9.	c #CAAA7F",
"0.	c #DFC094",
"a.	c #E4C69A",
"b.	c #D2B488",
"c.	c #997136",
"d.	c #8F6725",
"e.	c #7B5521",
"f.	c #5F3E1E",
"g.	c #655134",
"h.	c #978A63",
"i.	c #F5E1A1",
"j.	c #87674F",
"k.	c #665338",
"l.	c #D2B68C",
"m.	c #D7B88C",
"n.	c #D7B88B",
"o.	c #D5B68A",
"p.	c #DCBF94",
"q.	c #866236",
"r.	c #61401D",
"s.	c #6C5336",
"t.	c #A49266",
"u.	c #86775A",
"v.	c #C2A67F",
"w.	c #D8B98C",
"x.	c #D0B386",
"y.	c #785738",
"z.	c #554129",
"A.	c #786949",
"B.	c #C7B782",
"C.	c #7F6D4C",
"D.	c #645138",
"E.	c #492F19",
"F.	c #4A321C",
"G.	c #58452D",
"H.	c #CABA84",
"                . . . . . . . . . . . .                 ",
"                . . . . . . . . . . . .                 ",
". . . . . .     + @ # $ . . . . . . . . . .             ",
". . . . . .     % & * = - . . . . . . . . .             ",
". . . . . . . . ; > , ' ) ! . ~ { ] ^ / . .             ",
". . . . . . . . ; ( _ : < [ / } | 1 2 3 4 .             ",
". . . . . . . . . 5 6 7 8 9 0 a b c c d e f             ",
". . . . . . . . g h i j k l m n o p q r s t             ",
". . . . . . . . u v w x y z A B p C D E F G             ",
". . . . . . . H I J K L M N O C P Q R S T U             ",
". . . . . . . V W X Y Z `  ...+.@.#.T $.%.&.            ",
". . . . . . . *.=.-.;.>.,.'.).!.$.$.~.{.].^.            ",
". . . . . .   /.(._.:.<.[.}.|.1.2.3.4.5.6.7.            ",
". . . . . .   8.9.0.X =.a.b.c.d.e.f.g.h.i..             ",
". . . . . .   j.k.l.m.n.o.p.q.r.s.^ % . . .     . . . . ",
". . . . . .     t.u.v.w.x.y.z.A.B.. . . . .     . . . . ",
"                . C.D.E.F.G.H.. . . . . . .     . . . . ",
"                . . . . . . . . . . . . . .     . . . . ",
"                    . . . . . . . . . .     . . . . . . ",
"                    . . . . . . . . . .     . . . . . . ",
"        . . . .         . . . . . .     . . . . . . . . ",
"        . . . .         . . . . . .     . . . . . . . . ",
"    . . . . . . . .                 . . . . . . . . . . ",
"    . . . . . . . .                 . . . . . . . . . . ",
"    . . . . . . . .             . . . . . . . . . . . . ",
"    . . . . . . . .             . . . . . . . . . . . . ",
". . . . . . . . . .             . . . . . . . . . . . . ",
". . . . . . . . . .             . . . . . . . . . . . . "};
