/* XPM */
static char * col01_xpm[] = {
"28 28 165 2",
"  	c #FFC9A2",
". 	c #FDE9A6",
"+ 	c #F4E2A0",
"@ 	c #97A361",
"# 	c #9C9F63",
"$ 	c #FECBA8",
"% 	c #C6B681",
"& 	c #69863B",
"* 	c #669635",
"= 	c #749C41",
"- 	c #F3C29C",
"; 	c #F3BF9A",
"> 	c #7A8B49",
", 	c #5B8B2B",
"' 	c #6B9E37",
") 	c #749D46",
"! 	c #F3E0A1",
"~ 	c #FCE8A5",
"{ 	c #D9C68C",
"] 	c #9D8E66",
"^ 	c #BAAA79",
"/ 	c #F5E1A0",
"( 	c #D2A789",
"_ 	c #5B8A2C",
": 	c #669733",
"< 	c #6C9C3B",
"[ 	c #E0CE94",
"} 	c #9C8B61",
"| 	c #6A5535",
"1 	c #9E793C",
"2 	c #9B7D4A",
"3 	c #918159",
"4 	c #DCAD8A",
"5 	c #E9D698",
"6 	c #939D5D",
"7 	c #59872C",
"8 	c #719936",
"9 	c #869F4D",
"0 	c #77613E",
"a 	c #A27E40",
"b 	c #C69844",
"c 	c #BE8E34",
"d 	c #987334",
"e 	c #988152",
"f 	c #F8E5A3",
"g 	c #CEBE87",
"h 	c #DDCB91",
"i 	c #A6AB69",
"j 	c #A28E56",
"k 	c #D7A64D",
"l 	c #D8A545",
"m 	c #CE9C38",
"n 	c #CE9A34",
"o 	c #CD9934",
"p 	c #CC9A34",
"q 	c #C39132",
"r 	c #936A29",
"s 	c #786B4C",
"t 	c #C3B37F",
"u 	c #9B875A",
"v 	c #A18147",
"w 	c #B68A42",
"x 	c #D19E45",
"y 	c #CB9837",
"z 	c #BB8A2E",
"A 	c #BA8A2F",
"B 	c #C29031",
"C 	c #BA8A32",
"D 	c #BE8D30",
"E 	c #B38730",
"F 	c #6F5F41",
"G 	c #DAAE90",
"H 	c #876C4A",
"I 	c #AB8754",
"J 	c #A9834E",
"K 	c #AE8445",
"L 	c #BC8D38",
"M 	c #BA892F",
"N 	c #C39032",
"O 	c #B4842C",
"P 	c #C29132",
"Q 	c #BB8C31",
"R 	c #A37729",
"S 	c #9A7028",
"T 	c #594529",
"U 	c #93745D",
"V 	c #B99A71",
"W 	c #D9BB8E",
"X 	c #E2C599",
"Y 	c #C8A87A",
"Z 	c #A9844C",
"` 	c #AD8341",
" .	c #BB8C2F",
"..	c #C19030",
"+.	c #BB8B30",
"@.	c #A3782C",
"#.	c #9B7129",
"$.	c #976D28",
"%.	c #51391C",
"&.	c #3D2715",
"*.	c #D5B689",
"=.	c #D9BC8E",
"-.	c #DFC195",
";.	c #DBBC91",
">.	c #CEB084",
",.	c #BD9D70",
"'.	c #AC7E2C",
").	c #AF812D",
"!.	c #9B712B",
"~.	c #835D25",
"{.	c #65441D",
"].	c #6F6246",
"^.	c #412914",
"/.	c #CFB083",
"(.	c #DABC8E",
"_.	c #D6B78B",
":.	c #D7B68B",
"<.	c #E6C89C",
"[.	c #BF9E6E",
"}.	c #9C722E",
"|.	c #B1822D",
"1.	c #9A7029",
"2.	c #906724",
"3.	c #6A471F",
"4.	c #603F1A",
"5.	c #57483E",
"6.	c #CDA080",
"7.	c #543E2D",
"8.	c #CAAA7F",
"9.	c #DFC094",
"0.	c #E4C69A",
"a.	c #D2B488",
"b.	c #997136",
"c.	c #8F6725",
"d.	c #7B5521",
"e.	c #5F3E1E",
"f.	c #655134",
"g.	c #978A63",
"h.	c #F6C29D",
"i.	c #877651",
"j.	c #664D38",
"k.	c #D2B68C",
"l.	c #D7B88C",
"m.	c #D7B88B",
"n.	c #D5B68A",
"o.	c #DCBF94",
"p.	c #866236",
"q.	c #61401D",
"r.	c #6C5336",
"s.	c #C79D7E",
"t.	c #A57F63",
"u.	c #876E59",
"v.	c #C2A67F",
"w.	c #D8B98C",
"x.	c #D0B386",
"y.	c #785738",
"z.	c #554129",
"A.	c #786949",
"B.	c #C7B782",
"C.	c #7F6D4C",
"D.	c #644A37",
"E.	c #492F19",
"F.	c #4A321C",
"G.	c #583F2C",
"H.	c #CCA081",
"                . . . . . . . . . . . .                 ",
"                . . . . . . . . . . . .                 ",
". . . . . .     . . . . . . . . . . . . . .             ",
". . . . . .     . . . . . . . . . . . . . .             ",
". . . . . . . .     . . . . . . . . . . . .             ",
". . . . . . . .     . . . . . . . . . . . .             ",
". . . . . . . . . .     . . . . . . . .                 ",
". . . . . . . . . .     . . . . . . . .                 ",
". . . . . . . . + @ # $                                 ",
". . . . . . . . % & * = -                               ",
". . . . . . . . ; > , ' ) ! . ~ { ] ^ /                 ",
". . . . . . . . ; ( _ : < [ / } | 1 2 3 4               ",
". . . . . .     . 5 6 7 8 9 0 a b c c d e 5             ",
". . . . . .     f g h i j k l m n o p q r s             ",
". . . . . .     t u v w x y z A o B C D E F     . . . . ",
". . . . . .   G H I J K L M N B O P Q R S T     . . . . ",
"              U V W X Y Z `  ...+.@.S #.$.%.    . . . . ",
"              &.*.=.-.;.>.,.'.).#.#.!.~.{.].    . . . . ",
"              ^./.(._.:.<.[.}.|.1.2.3.4.5.6.. . . . . . ",
"              7.8.9.W *.0.a.b.c.d.e.f.g.h.  . . . . . . ",
"        . . . i.j.k.l.m.n.o.p.q.r.^ s.  . . . . . . . . ",
"        . . . . t.u.v.w.x.y.z.A.B..     . . . . . . . . ",
"    . . . . . . . C.D.E.F.G.H.      . . . . . . . . . . ",
"    . . . . . . . .                 . . . . . . . . . . ",
"    . . . . . . . .             . . . . . . . . . . . . ",
"    . . . . . . . .             . . . . . . . . . . . . ",
". . . . . . . . . .             . . . . . . . . . . . . ",
". . . . . . . . . .             . . . . . . . . . . . . "};
