/* XPM */
static char * e01_xpm[] = {
"28 28 147 2",
"  	c #FFC9A2",
". 	c #FDE9A6",
"+ 	c #FFCCA2",
"@ 	c #FEDCA4",
"# 	c #FFCEA3",
"$ 	c #FDE7A6",
"% 	c #FDE8A6",
"& 	c #FFCDA2",
"* 	c #FEE1A5",
"= 	c #FCE8A5",
"- 	c #F7E3A1",
"; 	c #F6E2A0",
"> 	c #F6E3A1",
", 	c #F2DE9E",
"' 	c #88724C",
") 	c #7F6744",
"! 	c #7F6743",
"~ 	c #896F4C",
"{ 	c #F6C79C",
"] 	c #F8D7A0",
"^ 	c #FFCAA2",
"/ 	c #FEDBA4",
"( 	c #FED1A3",
"_ 	c #F2DD9E",
": 	c #EFDB9B",
"< 	c #EFDB9C",
"[ 	c #D6C28A",
"} 	c #634427",
"| 	c #644629",
"1 	c #634528",
"2 	c #624427",
"3 	c #532F12",
"4 	c #532D11",
"5 	c #542E13",
"6 	c #644128",
"7 	c #967F57",
"8 	c #F3DD9E",
"9 	c #FEEAA6",
"0 	c #FED5A3",
"a 	c #FDE9A5",
"b 	c #F1DD9D",
"c 	c #DDCA8F",
"d 	c #89734C",
"e 	c #532B0D",
"f 	c #4E290C",
"g 	c #4F290D",
"h 	c #502C10",
"i 	c #45240A",
"j 	c #3E1F07",
"k 	c #3D1F07",
"l 	c #412108",
"m 	c #52290A",
"n 	c #A18C60",
"o 	c #DECB8F",
"p 	c #F4E09F",
"q 	c #F0DD9C",
"r 	c #A08B5E",
"s 	c #420300",
"t 	c #4A2508",
"u 	c #4C290E",
"v 	c #3B1D06",
"w 	c #3B1E06",
"x 	c #341904",
"y 	c #2E1603",
"z 	c #321804",
"A 	c #49260C",
"B 	c #4C280D",
"C 	c #644B27",
"D 	c #A28E5F",
"E 	c #EDD99B",
"F 	c #FFCBA2",
"G 	c #E5C090",
"H 	c #5F4A1A",
"I 	c #3A1803",
"J 	c #381B05",
"K 	c #381C05",
"L 	c #371B05",
"M 	c #2C1502",
"N 	c #271201",
"O 	c #210E00",
"P 	c #251101",
"Q 	c #331904",
"R 	c #310F00",
"S 	c #817147",
"T 	c #E7D494",
"U 	c #FEEAA7",
"V 	c #F2C499",
"W 	c #AE9D63",
"X 	c #84743C",
"Y 	c #51411E",
"Z 	c #2C1603",
"` 	c #2F1B08",
" .	c #2E1D0A",
"..	c #201001",
"+.	c #200F01",
"@.	c #1F0D00",
"#.	c #1A0A00",
"$.	c #170900",
"%.	c #070200",
"&.	c #0B0400",
"*.	c #201202",
"=.	c #281907",
"-.	c #2C1E0C",
";.	c #625534",
">.	c #CFBD82",
",.	c #FAE6A3",
"'.	c #FEC9A1",
").	c #FAC69E",
"!.	c #F9D6A0",
"~.	c #B6A56C",
"{.	c #716437",
"].	c #A19261",
"^.	c #B9A974",
"/.	c #665A30",
"(.	c #564B2A",
"_.	c #433921",
":.	c #3F3722",
"<.	c #3D3621",
"[.	c #37311C",
"}.	c #332D1A",
"|.	c #867845",
"1.	c #B3A369",
"2.	c #D5C387",
"3.	c #D9C789",
"4.	c #FBE7A4",
"5.	c #FDDEA4",
"6.	c #CEB47E",
"7.	c #D2B881",
"8.	c #D3BA82",
"9.	c #D2BF82",
"0.	c #D2BA82",
"a.	c #D2B781",
"b.	c #D1B680",
"c.	c #C5AB76",
"d.	c #C5AE76",
"e.	c #C3B376",
"f.	c #EFDC9B",
"g.	c #FDE3A5",
"h.	c #FDDFA4",
"i.	c #FDEAA7",
"j.	c #FFCBA3",
"k.	c #FFCCA3",
"l.	c #FFD1A4",
"m.	c #FEDCA5",
"n.	c #FEDEA5",
"o.	c #FDE5A5",
"p.	c #FDE6A6",
"                . . . . . . . . . . . .                 ",
"                . . . . . . . . . . . .                 ",
". . . . . .     . . . . . . . . . . . . . .             ",
". . . . . .     . . . . . . . . . . . . . .             ",
". . . . . . . .     . . . . . . . . . . . .             ",
". . . . . . . .     . . . . . . . . . . . .             ",
". . . . . . . . . .     . . . . . . . .                 ",
". . . . . . . . . .     . . . . . . . .                 ",
". . . . . . . . . .                                     ",
". . . . . . . . . .                                     ",
". . . . . . . . + @ . . . . . . . . . .                 ",
". . . . . . . . # $ % . . . . . . . . .                 ",
". . . . . . & * . = - ; > , ' ) ! ) ) ~ { ] ^ / (       ",
". . . . . . _ : < [ } | 1 2 3 4 4 4 4 5 6 7 8 9 0 &     ",
". . . a b c d e f g h h i j k k k k k l 4 m n o p . . . ",
". . . q r s t u l v v v w x y y y y z j A B C D E . . . ",
"    F G H I J K L M M M M M N O O O P Q K R S T U . . . ",
"      V W X Y Z `  ...+.@.#.$.%.&.$.*.=.-.;.>.,.. . . . ",
"      '.).!.~.{.].^./.(._.:.<.[.[.}.|.1.2.3.4.. . . . . ",
"            5.6.7.8.9.0.a.a.b.c.d.e.f.= g.h.. . . . . . ",
"        . . . i.j.k.j.^ l.l.l.l.m.U n./ . . . . . . . . ",
"        . . . .         o.o.o.o.p..     . . . . . . . . ",
"    . . . . . . . .                 . . . . . . . . . . ",
"    . . . . . . . .                 . . . . . . . . . . ",
"    . . . . . . . .             . . . . . . . . . . . . ",
"    . . . . . . . .             . . . . . . . . . . . . ",
". . . . . . . . . .             . . . . . . . . . . . . ",
". . . . . . . . . .             . . . . . . . . . . . . "};
