/* XPM */
static char * e02_xpm[] = {
"28 28 117 2",
"  	c #FFC9A2",
". 	c #FDE9A6",
"+ 	c #FFCEA3",
"@ 	c #FED4A3",
"# 	c #FDE8A6",
"$ 	c #ECD899",
"% 	c #EBD799",
"& 	c #FEDCA4",
"* 	c #FFCDA2",
"= 	c #FFCAA2",
"- 	c #FFDDA5",
"; 	c #FFEBA8",
"> 	c #FFECA8",
", 	c #DECA8F",
"' 	c #BFAB78",
") 	c #C0AC78",
"! 	c #BFAB77",
"~ 	c #573316",
"{ 	c #552F12",
"] 	c #552E11",
"^ 	c #502605",
"/ 	c #583216",
"( 	c #C19676",
"_ 	c #E6CC94",
": 	c #FEDEA4",
"< 	c #FAE1A3",
"[ 	c #D4C188",
"} 	c #856D49",
"| 	c #866F4A",
"1 	c #6C5031",
"2 	c #532D10",
"3 	c #4D280C",
"4 	c #432006",
"5 	c #44230A",
"6 	c #44240A",
"7 	c #45240A",
"8 	c #532C0E",
"9 	c #6F5434",
"0 	c #F3DF9F",
"a 	c #FBE4A4",
"b 	c #FEDBA4",
"c 	c #EDD99A",
"d 	c #6B4F30",
"e 	c #512D11",
"f 	c #512C10",
"g 	c #412108",
"h 	c #3E1F07",
"i 	c #361B05",
"j 	c #311703",
"k 	c #311803",
"l 	c #311804",
"m 	c #4C290E",
"n 	c #502B0F",
"o 	c #745C36",
"p 	c #C8B47F",
"q 	c #FFD1A3",
"r 	c #FDE6A6",
"s 	c #BE9F71",
"t 	c #46290D",
"u 	c #391A04",
"v 	c #391C05",
"w 	c #371B05",
"x 	c #2C1502",
"y 	c #2D1502",
"z 	c #271101",
"A 	c #210F00",
"B 	c #231001",
"C 	c #321804",
"D 	c #381C05",
"E 	c #2D0000",
"F 	c #BCAB71",
"G 	c #E5C18F",
"H 	c #9B8751",
"I 	c #7A6B3B",
"J 	c #301D06",
"K 	c #3F301A",
"L 	c #382B16",
"M 	c #261804",
"N 	c #1D0C00",
"O 	c #180900",
"P 	c #130600",
"Q 	c #030100",
"R 	c #0E0500",
"S 	c #251805",
"T 	c #392E17",
"U 	c #453A23",
"V 	c #978859",
"W 	c #F4E19F",
"X 	c #FDDCA4",
"Y 	c #FFCCA3",
"Z 	c #E8CF94",
"` 	c #948652",
" .	c #B6A66F",
"..	c #AE9E69",
"+.	c #8D7F4F",
"@.	c #7A6E46",
"#.	c #786E46",
"$.	c #756B44",
"%.	c #6B623A",
"&.	c #6B613A",
"*.	c #938655",
"=.	c #CEBD7F",
"-.	c #E8D595",
";.	c #F3DF9E",
">.	c #FFD2A4",
",.	c #F1C798",
"'.	c #F0C698",
").	c #EFDB9A",
"!.	c #F0DA9A",
"~.	c #F1C498",
"{.	c #F0C397",
"].	c #EDBF94",
"^.	c #EBD697",
"/.	c #F3E09E",
"(.	c #FEEAA7",
"_.	c #FFD0A3",
":.	c #FEDFA5",
"                . . . . . . . . . . . .                 ",
"                . . . . . . . . . . . .                 ",
". . . . . .     . . . . . . . . . . . . . .             ",
". . . . . .     . . . . . . . . . . . . . .             ",
". . . . . . . .     . . . . . . . . . . . .             ",
". . . . . . . .     . . . . . . . . . . . .             ",
". . . . . . . . . .     . . . . . . . .                 ",
". . . . . . . . . .     . . . . . . . .                 ",
". . . . . . . . . .                                     ",
". . . . . . . . . .                                     ",
". . . . . . . .   + . . . . . . . . . .                 ",
". . . . . . . . @ @ # . . . $ $ $ % $ &     *           ",
". . . . . . = - ; > , ' ) ! ~ { ] ^ / ( _ # :           ",
". . . . . . < [ } | 1 2 3 4 5 6 6 6 7 8 9 0 a b         ",
". . . . . c d e f g h h h i j k k l h m n o p q . . . . ",
". . . . r s t u v w x y y y z A A B C D E F ; q . . . . ",
"          G H I J K L M N O P Q R S T U V W X = . . . . ",
"            Y Z `  ...+.@.#.$.%.&.*.=.-.;..     . . . . ",
"              >.,.'.).!.~.~.{.].^./.(.. _.  . . . . . . ",
"                    . # :.:.:.:.# . . .     . . . . . . ",
"        . . . .         . . . . . .     . . . . . . . . ",
"        . . . .         . . . . . .     . . . . . . . . ",
"    . . . . . . . .                 . . . . . . . . . . ",
"    . . . . . . . .                 . . . . . . . . . . ",
"    . . . . . . . .             . . . . . . . . . . . . ",
"    . . . . . . . .             . . . . . . . . . . . . ",
". . . . . . . . . .             . . . . . . . . . . . . ",
". . . . . . . . . .             . . . . . . . . . . . . "};
