/* XPM */
static char * e03_xpm[] = {
"28 28 54 1",
" 	c #FFC9A2",
".	c #FDE9A6",
"+	c #FDEAA6",
"@	c #F9E5A3",
"#	c #FDE7A6",
"$	c #EEDB9B",
"%	c #C2AF7A",
"&	c #C0AD78",
"*	c #6C5132",
"=	c #6C5032",
"-	c #6B4F30",
";	c #CDAA80",
">	c #FAE5A4",
",	c #FEDEA5",
"'	c #FAE6A4",
")	c #AB9668",
"!	c #6F5536",
"~	c #543A20",
"{	c #432106",
"]	c #391700",
"^	c #371B05",
"/	c #371C05",
"(	c #3D1F07",
"_	c #4E2A0C",
":	c #A69263",
"<	c #F2DD9E",
"[	c #F0D59B",
"}	c #7D683E",
"|	c #412C10",
"1	c #311B07",
"2	c #240E00",
"3	c #210700",
"4	c #170200",
"5	c #150300",
"6	c #261100",
"7	c #46351D",
"8	c #D6C487",
"9	c #FEEAA7",
"0	c #FDE6A6",
"a	c #FBDBA3",
"b	c #C3B379",
"c	c #C1B078",
"d	c #A79765",
"e	c #9B855E",
"f	c #97815B",
"g	c #948659",
"h	c #CAB97E",
"i	c #EEDB9A",
"j	c #FCE8A6",
"k	c #FCE8A5",
"l	c #FBE7A5",
"m	c #FBE6A4",
"n	c #FCDCA3",
"o	c #FBE5A4",
"        ............        ",
"        ............        ",
"......  ..............      ",
"......  ..............      ",
"........  ............      ",
"........  ............      ",
"..........  ........        ",
"..........  ........        ",
"..........                  ",
"..........                  ",
"........  ..........        ",
"........  ..........        ",
"......  ....++@@@#....      ",
"......  ..@$%&*=-;>,..      ",
"......  ')!~{]^/(_:<..  ....",
"......  [}|123456789..  ....",
"        0abcdefghij...  ....",
"        ..klmnno......  ....",
"          ..........  ......",
"          ..........  ......",
"    ....    ......  ........",
"    ....    ......  ........",
"  ........        ..........",
"  ........        ..........",
"  ........      ............",
"  ........      ............",
"..........      ............",
"..........      ............"};
