/* XPM */
static char * e04_xpm[] = {
"28 28 22 1",
" 	c #FFC9A2",
".	c #FDE9A6",
"+	c #EAD698",
"@	c #CAB680",
"#	c #AB9769",
"$	c #937F56",
"%	c #C1A779",
"&	c #FCE5A5",
"*	c #D2BC85",
"=	c #492E13",
"-	c #331803",
";	c #2D1503",
">	c #281202",
",	c #4A3219",
"'	c #E5D193",
")	c #FAE1A3",
"!	c #D6C488",
"~	c #C5B17C",
"{	c #BA9B74",
"]	c #BFAC79",
"^	c #E9D697",
"/	c #FDE7A6",
"        ............        ",
"        ............        ",
"......  ..............      ",
"......  ..............      ",
"........  ............      ",
"........  ............      ",
"..........  ........        ",
"..........  ........        ",
"..........                  ",
"..........                  ",
"........  ..........        ",
"........  ..........        ",
"......  ..............      ",
"......  ..............      ",
"......  ....+@#$%&....  ....",
"......  ...*=-;>,'....  ....",
"        ...)!~{]^.....  ....",
"        ....../.......  ....",
"          ..........  ......",
"          ..........  ......",
"    ....    ......  ........",
"    ....    ......  ........",
"  ........        ..........",
"  ........        ..........",
"  ........      ............",
"  ........      ............",
"..........      ............",
"..........      ............"};
