/* XPM */
static char * en02_xpm[] = {
"28 28 560 2",
"  	c #FFC89E",
". 	c #FFCC9F",
"+ 	c #FFCB9C",
"@ 	c #FDC9A2",
"# 	c #FFCDAE",
"$ 	c #FDC8A9",
"% 	c #FFCFA8",
"& 	c #FBC899",
"* 	c #FAEB98",
"= 	c #FDECA6",
"- 	c #F9E5A8",
"; 	c #FDE9AA",
"> 	c #FBE79E",
", 	c #FFF0A1",
"' 	c #F9E59C",
") 	c #FFECAB",
"! 	c #FEECAA",
"~ 	c #F8E79F",
"{ 	c #FFEEA5",
"] 	c #FFE1A3",
"^ 	c #F9CEA3",
"/ 	c #FFCFAF",
"( 	c #FDC7A3",
"_ 	c #FDC99A",
": 	c #FFC99D",
"< 	c #FFCAA4",
"[ 	c #FCC19F",
"} 	c #FFCCA9",
"| 	c #FEC8A4",
"1 	c #FFCFA4",
"2 	c #FCCC9E",
"3 	c #F4C494",
"4 	c #FFCD9D",
"5 	c #F7BD8D",
"6 	c #FFD09E",
"7 	c #FBEAA4",
"8 	c #FCEAAA",
"9 	c #FAE6AB",
"0 	c #FFEFB4",
"a 	c #FAE6A7",
"b 	c #F9E6A2",
"c 	c #FDEAA6",
"d 	c #FBE7A8",
"e 	c #F6E4A2",
"f 	c #FFF2B4",
"g 	c #F5E1A4",
"h 	c #FFECAF",
"i 	c #F6D0A1",
"j 	c #F6C5A5",
"k 	c #FFCBAD",
"l 	c #FFCCA4",
"m 	c #FFCCA2",
"n 	c #FFC9A2",
"o 	c #FFC6A4",
"p 	c #FFCEA9",
"q 	c #FCE9A7",
"r 	c #F8E9A8",
"s 	c #F4E39E",
"t 	c #FFF4AB",
"u 	c #FFE7A7",
"v 	c #FAD1A3",
"w 	c #F6C7A9",
"x 	c #FCE4A6",
"y 	c #FFEBAA",
"z 	c #F8E49F",
"A 	c #FAE7A3",
"B 	c #FFEDAD",
"C 	c #FAE8A8",
"D 	c #FFEEA9",
"E 	c #FCECA1",
"F 	c #FDEF96",
"G 	c #F9E8A0",
"H 	c #F7E6A0",
"I 	c #FEEC9A",
"J 	c #FFE896",
"K 	c #FFE1A6",
"L 	c #FACA99",
"M 	c #FFCA94",
"N 	c #F7C7A1",
"O 	c #FFD0A9",
"P 	c #FCC49F",
"Q 	c #FFCBA4",
"R 	c #FFEAA1",
"S 	c #F8E3A2",
"T 	c #FFF0B3",
"U 	c #FFEDA8",
"V 	c #FCE69A",
"W 	c #FFE19E",
"X 	c #FCD2AA",
"Y 	c #F8C5B4",
"Z 	c #FFE2A6",
"` 	c #FFEEA7",
" .	c #FFEC9C",
"..	c #FFEB9F",
"+.	c #FBE7A2",
"@.	c #FFEDAB",
"#.	c #FAE8A0",
"$.	c #F8E795",
"%.	c #FCEB9D",
"&.	c #FFEAB5",
"*.	c #FCE6B7",
"=.	c #FDEAA5",
"-.	c #FDEA9D",
";.	c #FFEAB1",
">.	c #FACDA4",
",.	c #FFCAA2",
"'.	c #FBD0AE",
").	c #F6C6A2",
"!.	c #FFCEA6",
"~.	c #FDC69D",
"{.	c #FFE7B5",
"].	c #D1806E",
"^.	c #DD8677",
"/.	c #E4BF9C",
"(.	c #FCE5A7",
"_.	c #E3BE8D",
":.	c #E68B7C",
"<.	c #DC8278",
"[.	c #B75D6B",
"}.	c #ECB88F",
"|.	c #FBDE9C",
"1.	c #FFE8A8",
"2.	c #FFE6B0",
"3.	c #A94C66",
"4.	c #F6CFA4",
"5.	c #FEE4A7",
"6.	c #FDE4AC",
"7.	c #D47A75",
"8.	c #F6CBA3",
"9.	c #EFBE9D",
"0.	c #FAC2A5",
"a.	c #FFCA9E",
"b.	c #F8E2A8",
"c.	c #D07873",
"d.	c #D17774",
"e.	c #CC7671",
"f.	c #D78373",
"g.	c #FECEA6",
"h.	c #FFCDA1",
"i.	c #FFEA9D",
"j.	c #FCDCA3",
"k.	c #6B333C",
"l.	c #6F334F",
"m.	c #4F1636",
"n.	c #4E1D32",
"o.	c #CA9FA9",
"p.	c #C3A49F",
"q.	c #B89996",
"r.	c #C3A6A2",
"s.	c #C1A69F",
"t.	c #C1A49C",
"u.	c #BA9896",
"v.	c #CAA2AA",
"w.	c #431829",
"x.	c #4E1D3D",
"y.	c #6C3646",
"z.	c #853B50",
"A.	c #7E344E",
"B.	c #793550",
"C.	c #B2868A",
"D.	c #BFA196",
"E.	c #C7A4A2",
"F.	c #C0A298",
"G.	c #F3B897",
"H.	c #F9C596",
"I.	c #F5EEA0",
"J.	c #FFECB7",
"K.	c #4F1A36",
"L.	c #53184E",
"M.	c #4A1446",
"N.	c #451934",
"O.	c #C09DA3",
"P.	c #BAA298",
"Q.	c #C1A9A7",
"R.	c #B6A0A2",
"S.	c #B9A4A1",
"T.	c #BDA59B",
"U.	c #C3A6A0",
"V.	c #BF9BA5",
"W.	c #4C213D",
"X.	c #4D1447",
"Y.	c #6F3146",
"Z.	c #793449",
"`.	c #551245",
" +	c #471546",
".+	c #C2A4AC",
"++	c #BCA595",
"@+	c #BEA19D",
"#+	c #C0A39F",
"$+	c #F1B795",
"%+	c #FFD1A2",
"&+	c #F9EAAF",
"*+	c #F1D48C",
"=+	c #4D153C",
"-+	c #571143",
";+	c #411E48",
">+	c #531637",
",+	c #B5A6A1",
"'+	c #C5A399",
")+	c #C4A0A0",
"!+	c #C092AE",
"~+	c #D1A0A4",
"{+	c #B6B285",
"]+	c #C499A3",
"^+	c #C0A1A6",
"/+	c #44183C",
"(+	c #55123E",
"_+	c #71374F",
":+	c #6B374D",
"<+	c #4B123B",
"[+	c #501740",
"}+	c #CAA0AC",
"|+	c #C0A699",
"1+	c #B8A191",
"2+	c #C6A09F",
"3+	c #F3CB9A",
"4+	c #F9EEAE",
"5+	c #EAD9AF",
"6+	c #4A1C4A",
"7+	c #4A1E42",
"8+	c #4E143A",
"9+	c #451746",
"0+	c #906473",
"a+	c #7D7171",
"b+	c #BA9791",
"c+	c #B7B2AC",
"d+	c #B89DA4",
"e+	c #B9A58D",
"f+	c #8A6378",
"g+	c #8C647E",
"h+	c #4C1D41",
"i+	c #4A1E3F",
"j+	c #6E2C48",
"k+	c #712B50",
"l+	c #511E47",
"m+	c #401530",
"n+	c #86626E",
"o+	c #896C70",
"p+	c #C1A5A2",
"q+	c #ABA2A7",
"r+	c #F7E486",
"s+	c #CC7570",
"t+	c #4B104A",
"u+	c #511936",
"v+	c #4A1B3F",
"w+	c #4D103A",
"x+	c #976872",
"y+	c #836171",
"z+	c #C3A7A3",
"A+	c #B3A78F",
"B+	c #C5A8A4",
"C+	c #B99C96",
"D+	c #976773",
"E+	c #8B605A",
"F+	c #4E1536",
"G+	c #7A3A4B",
"H+	c #6C3145",
"I+	c #47133A",
"J+	c #561B3B",
"K+	c #8D6377",
"L+	c #7C6472",
"M+	c #C09CA0",
"N+	c #C3AA96",
"O+	c #CF7A70",
"P+	c #FDC798",
"Q+	c #FFECB1",
"R+	c #E4897B",
"S+	c #451D38",
"T+	c #521A3D",
"U+	c #471838",
"V+	c #4C1D47",
"W+	c #885F6D",
"X+	c #926967",
"Y+	c #CA9CB6",
"Z+	c #B4A192",
"`+	c #BEA199",
" @	c #C3A29B",
".@	c #81687D",
"+@	c #8E687D",
"@@	c #4C1B39",
"#@	c #411850",
"$@	c #762C3B",
"%@	c #78324E",
"&@	c #451551",
"*@	c #49173A",
"=@	c #916564",
"-@	c #85666C",
";@	c #906787",
">@	c #846182",
",@	c #BE7472",
"'@	c #FFCF90",
")@	c #F0ED9E",
"!@	c #511A5D",
"~@	c #3E1A36",
"{@	c #591649",
"]@	c #46193A",
"^@	c #86676C",
"/@	c #8B5C6E",
"(@	c #B7A9A6",
"_@	c #C19A95",
":@	c #BAA6A8",
"<@	c #CDA0A3",
"[@	c #875C87",
"}@	c #7F6264",
"|@	c #591550",
"1@	c #461944",
"2@	c #7F3146",
"3@	c #832F49",
"4@	c #45123B",
"5@	c #4F2440",
"6@	c #93636F",
"7@	c #8D5E68",
"8@	c #8E5C68",
"9@	c #8E635C",
"0@	c #F3C69F",
"a@	c #FFED9E",
"b@	c #E6C99D",
"c@	c #7F6072",
"d@	c #9A5F69",
"e@	c #279ABF",
"f@	c #3098BC",
"g@	c #0B9DC4",
"h@	c #0D9DC4",
"i@	c #8B686D",
"j@	c #82767D",
"k@	c #836D77",
"l@	c #0C9DC4",
"m@	c #0A9DC4",
"n@	c #029CC3",
"o@	c #654863",
"p@	c #734A64",
"q@	c #039DC4",
"r@	c #422041",
"s@	c #414361",
"t@	c #009DC4",
"u@	c #019DC4",
"v@	c #876870",
"w@	c #926677",
"x@	c #FFD2AE",
"y@	c #F4E1B6",
"z@	c #E6C794",
"A@	c #A5536E",
"B@	c #85B9F5",
"C@	c #71B4FB",
"D@	c #8AB2FE",
"E@	c #84BBF3",
"F@	c #7FB2FF",
"G@	c #7EB4FA",
"H@	c #71B3FF",
"I@	c #0C95D1",
"J@	c #0B95D1",
"K@	c #7AB2FF",
"L@	c #83B4F7",
"M@	c #099DC4",
"N@	c #299DC2",
"O@	c #049DC4",
"P@	c #FBEB9E",
"Q@	c #EDED93",
"R@	c #FFEFAA",
"S@	c #EBC688",
"T@	c #A4516C",
"U@	c #0C9AC9",
"V@	c #264F91",
"W@	c #1F5696",
"X@	c #1F4D9A",
"Y@	c #274F8C",
"Z@	c #1B4F81",
"`@	c #315472",
" #	c #16619B",
".#	c #1E4B9C",
"+#	c #1E518A",
"@#	c #3B9CC1",
"##	c #44A5D9",
"$#	c #5D93D7",
"%#	c #254481",
"&#	c #FAE2A6",
"*#	c #FFEBAD",
"=#	c #F3D0AA",
"-#	c #9E5E7A",
";#	c #70B1F1",
">#	c #85BBFD",
",#	c #0C98CD",
"'#	c #70BCF6",
")#	c #8EB0F8",
"!#	c #0C9BC7",
"~#	c #72B2FC",
"{#	c #169EC7",
"]#	c #23538A",
"^#	c #FFE9A9",
"/#	c #D18F8E",
"(#	c #0C9ACB",
"_#	c #8CACE9",
":#	c #6CB0EB",
"<#	c #80B2FB",
"[#	c #63B1ED",
"}#	c #0B9CC6",
"|#	c #254381",
"1#	c #69AFF5",
"2#	c #FFEBAB",
"3#	c #F8C488",
"4#	c #FFD3B6",
"5#	c #D28F8D",
"6#	c #7CC4FF",
"7#	c #7ABCFF",
"8#	c #21568E",
"9#	c #67AEF2",
"0#	c #63ADEF",
"a#	c #F6C4A7",
"b#	c #F8E0A0",
"c#	c #FFCFA2",
"d#	c #E6A48B",
"e#	c #B4606F",
"f#	c #24528E",
"g#	c #86B5F9",
"h#	c #20587D",
"i#	c #0B95D0",
"j#	c #73B1FB",
"k#	c #4795CD",
"l#	c #6FB1FA",
"m#	c #DD8777",
"n#	c #FCE4A4",
"o#	c #FFCA99",
"p#	c #CE7A71",
"q#	c #7BB3F7",
"r#	c #A0ACFF",
"s#	c #16517D",
"t#	c #7CACF8",
"u#	c #205299",
"v#	c #7AAAF1",
"w#	c #38A2D3",
"x#	c #6BAFF5",
"y#	c #F8CA99",
"z#	c #B15669",
"A#	c #81BEF7",
"B#	c #84AEF6",
"C#	c #7DB2FE",
"D#	c #26528F",
"E#	c #265485",
"F#	c #89B3FF",
"G#	c #7AB8FF",
"H#	c #81C9F9",
"I#	c #1B4A80",
"J#	c #0C9CC7",
"K#	c #7FBAFC",
"L#	c #75B7FF",
"M#	c #78ACF4",
"N#	c #50A8E0",
"O#	c #FFEAAA",
"P#	c #FBCFB4",
"Q#	c #EDB090",
"R#	c #CB8789",
"S#	c #1F4C8F",
"T#	c #185488",
"U#	c #28508B",
"V#	c #304A85",
"W#	c #1E477D",
"X#	c #2A5393",
"Y#	c #0C9CC6",
"Z#	c #8FB4FF",
"`#	c #204E8C",
" $	c #259DC3",
".$	c #FEE0BD",
"+$	c #F6DE9E",
"@$	c #FFC796",
"#$	c #FABEA3",
"$$	c #9C5F7C",
"%$	c #199EC7",
"&$	c #279EC8",
"*$	c #0E99C1",
"=$	c #7DB1FF",
"-$	c #87B4F8",
";$	c #245288",
">$	c #1D9DC3",
",$	c #059DC5",
"'$	c #239FC8",
")$	c #71B0FA",
"!$	c #DC8676",
"~$	c #FEE6A6",
"{$	c #F9C8A7",
"]$	c #DC8677",
"^$	c #877494",
"/$	c #B9929D",
"($	c #E38C7F",
"_$	c #D98D88",
":$	c #DA8D87",
"<$	c #CB7A7B",
"[$	c #A45570",
"}$	c #A7506B",
"|$	c #E68B7D",
"1$	c #E28C80",
"2$	c #D68372",
"3$	c #FEE5AD",
"4$	c #F6D09F",
"5$	c #F4D0A0",
"6$	c #FDDCB1",
"7$	c #C3696F",
"8$	c #F6CBA0",
"9$	c #FEE7BC",
"0$	c #D88473",
"a$	c #F8C7A9",
"b$	c #FFD1B1",
"c$	c #F5C8A7",
"d$	c #F4CA9C",
"e$	c #F2BF99",
"f$	c #CC816B",
"g$	c #FCE1AA",
"h$	c #F7CFA1",
"i$	c #F6CFA1",
"j$	c #D98574",
"k$	c #CB806B",
"l$	c #BD7962",
"m$	c #FFE4B5",
"n$	c #FFE9B1",
"o$	c #FFEAAC",
"p$	c #FFE9A6",
"q$	c #FFE8A5",
"r$	c #FFECAD",
"s$	c #F4E0A3",
"t$	c #FFEEB3",
"u$	c #F5DFA5",
"v$	c #FFEEB2",
"w$	c #FFEFAD",
"x$	c #FAD9A3",
"y$	c #FBD0A5",
"z$	c #FFCBA6",
"A$	c #FFC8A3",
"B$	c #FBC39E",
"C$	c #FECAA3",
"D$	c #FCCCA4",
"E$	c #FCEBA3",
"F$	c #FCEBA5",
"G$	c #F9E8A2",
"H$	c #FBEAA2",
"I$	c #F5E59A",
"J$	c #FAE9A1",
"K$	c #FFF0AB",
"L$	c #F4E2A4",
"M$	c #FEE9AA",
"N$	c #FEE9A8",
"O$	c #FBE7A0",
"P$	c #FAE89E",
"Q$	c #F6E49A",
"R$	c #FDECA4",
"S$	c #FFF4AD",
"T$	c #F1E09B",
"U$	c #FCEAA2",
"V$	c #FAE69F",
"W$	c #FAE79B",
"X$	c #FFE4A4",
"Y$	c #FDD1A0",
"Z$	c #FCC79D",
"`$	c #FFC9A1",
" %	c #FFCCA3",
".%	c #FFCDA4",
"+%	c #FCC79F",
"@%	c #FCEBA6",
"#%	c #FBE9A9",
"$%	c #F6E4A4",
"%%	c #FFEFA7",
"&%	c #F7E59B",
"  . + @ # $ % & * = - ; > , ' ) ! ~ { ] ^ / ( _ : < [ } ",
"| @ 1 2 3 4 5 6 7 8 9 0 a b c d e f g h i j k l m n o p ",
"q 8 r s t u v w x y z A B C D E F G H I J K L M N O P Q ",
"R S T U V W X Y Z `  ...+.@.#.$.%.&.*.=.-.;.>.,.'.).!.~.",
"{.].^./.(._.:.<.[.}.|.1.2.3.4.5.6.:.3.7.9 8.9.0.:.:.:.a.",
"b.:.c.3.7.3.:.3.3.3.:.:.:.3.3.d.:.:.3.3.3.3.e.f.:.:.g.h.",
"i.j.:.k.l.m.n.o.p.q.r.s.t.u.v.w.x.y.z.A.B.C.D.E.F.3.G.H.",
"I.J.:.K.L.M.N.O.P.Q.R.S.T.U.V.W.X.Y.Z.`. +.+++@+#+3.$+%+",
"&+*+[.=+-+;+>+,+'+)+!+~+{+]+^+/+(+_+:+<+[+}+|+1+2+3.:.3+",
"4+5+[.6+7+8+9+0+a+b+c+d+e+f+g+h+i+j+k+l+m+n+o+p+q+3.:.% ",
"r+s+3.t+u+v+w+x+y+z+A+B+C+D+E+F+ +G+H+I+J+K+L+M+N+3.O+P+",
"Q+R+7.S+T+U+V+W+X+Y+Z+`+ @.@+@@@#@$@%@&@*@=@-@;@>@[.,@'@",
")@R+7.!@~@{@]@^@/@(@_@:@<@[@}@|@1@2@3@4@5@6@7@8@9@3.3.0@",
"a@b@3.c@d@e@f@g@h@i@j@k@l@m@n@o@p@l@q@r@s@t@u@v@w@:.:.x@",
"y@z@A@h@h@h@B@C@h@D@E@F@G@H@I@J@K@L@l@M@N@t@t@u@O@:.P@Q@",
"R@S@T@h@h@U@h@V@W@h@X@Y@Z@`@ #h@h@.#+#h@@#t@##$#%#:.&#*#",
"=#f.-#h@;#>#,#h@h@h@h@'#)#h@h@h@!#h@h@l@~#~#{#~#]#:.:.^#",
"+ :./#h@(#_#:#h@h@h@h@h@<#[#h@h@h@h@h@}#~#|#t@t@1#:.:.2#",
"3#4#5#h@h@h@6#|#h@h@h@h@h@7#8#h@h@h@h@m@9#|#t@t@0#:.a#b#",
"c#d#e#h@h@h@~#f#h@h@h@h@h@g#h#h@h@h@h@i#j#|#k#~#l#3.m#n#",
"o#p#[.h@h@q#r#s#h@h@h@h@h@t#u#h@h@h@h@h@v#|#w#x#|#3.^.2#",
"y#z#A@A#B#C#D#E#h@h@h@F#G#H#I#J#J#K#L#h@M#|#N#~#|#3.:.O#",
"P#Q#R#S#T#U#h@h@h@h@h@h@V#W#X#Y#Y#Z#`#h@ $|#{#~#|#:..$+$",
"@$#$$$g@%$&$*$l@l@l@h@h@h@h@h@h@=$-$;$h@>$,$'$)$|#:.!$~$",
"{$:.3.3.3.]$:.:.:.^$^$/$:.:.:.:.($_$:$<$[$}$3.|$1$:.2$3$",
"4$5$6$3.7$:.:.!$8$9$3.0$a$b$c$:.d$e$f$g$h$i$j$k$l$m$n$o$",
"p$q$r$s$Q+t$u$v$w$x$y$z$A$B$C$D$E$F$G$H$I$J$K$L$M$N$z O$",
"P$Q$R$S$T$F$U$V$W$X$Y$Z$`$ %.%+%@%e #%! F$@%$%Q+G$R$%%&%"};
