/* XPM */
static char * en04_xpm[] = {
"28 28 556 2",
"  	c None",
". 	c #FFC89E",
"+ 	c #FFCC9F",
"@ 	c #FFCB9C",
"# 	c #FDC9A2",
"$ 	c #FFCDAE",
"% 	c #FDC8A9",
"& 	c #FFCFA8",
"* 	c #FBC899",
"= 	c #FAEB98",
"- 	c #FDECA6",
"; 	c #F9E5A8",
"> 	c #FDE9AA",
", 	c #FBE79E",
"' 	c #FFF0A1",
") 	c #F9E59C",
"! 	c #FFECAB",
"~ 	c #FEECAA",
"{ 	c #F8E79F",
"] 	c #FFEEA5",
"^ 	c #FFE1A3",
"/ 	c #F9CEA3",
"( 	c #FFCFAF",
"_ 	c #FDC7A3",
": 	c #FDC99A",
"< 	c #FFC99D",
"[ 	c #FFCAA4",
"} 	c #FCC19F",
"| 	c #FFCCA9",
"1 	c #FEC8A4",
"2 	c #FFCFA4",
"3 	c #FCCC9E",
"4 	c #F4C494",
"5 	c #FFCD9D",
"6 	c #F7BD8D",
"7 	c #FFD09E",
"8 	c #FBEAA4",
"9 	c #FCEAAA",
"0 	c #FAE6AB",
"a 	c #FFEFB4",
"b 	c #FAE6A7",
"c 	c #F9E6A2",
"d 	c #FDEAA6",
"e 	c #FBE7A8",
"f 	c #F6E4A2",
"g 	c #FFF2B4",
"h 	c #F5E1A4",
"i 	c #FFECAF",
"j 	c #F6D0A1",
"k 	c #F6C5A5",
"l 	c #FFCBAD",
"m 	c #FFCCA4",
"n 	c #FFCCA2",
"o 	c #FFC9A2",
"p 	c #FFC6A4",
"q 	c #FFCEA9",
"r 	c #FCE9A7",
"s 	c #F8E9A8",
"t 	c #F4E39E",
"u 	c #FFF4AB",
"v 	c #FFE7A7",
"w 	c #FAD1A3",
"x 	c #F6C7A9",
"y 	c #FCE4A6",
"z 	c #FFEBAA",
"A 	c #F8E49F",
"B 	c #FAE7A3",
"C 	c #FFEDAD",
"D 	c #FAE8A8",
"E 	c #FFEEA9",
"F 	c #FCECA1",
"G 	c #FDEF96",
"H 	c #F9E8A0",
"I 	c #F7E6A0",
"J 	c #FEEC9A",
"K 	c #FFE896",
"L 	c #FFE1A6",
"M 	c #FACA99",
"N 	c #FFCA94",
"O 	c #F7C7A1",
"P 	c #FFD0A9",
"Q 	c #FCC49F",
"R 	c #FFCBA4",
"S 	c #FFEAA1",
"T 	c #F8E3A2",
"U 	c #FFF0B3",
"V 	c #FFEDA8",
"W 	c #FCE69A",
"X 	c #FFE19E",
"Y 	c #FCD2AA",
"Z 	c #F8C5B4",
"` 	c #FFE2A6",
" .	c #FFEEA7",
"..	c #FFEC9C",
"+.	c #FFEB9F",
"@.	c #FBE7A2",
"#.	c #FFEDAB",
"$.	c #FAE8A0",
"%.	c #F8E795",
"&.	c #FCEB9D",
"*.	c #FFEAB5",
"=.	c #FCE6B7",
"-.	c #FDEAA5",
";.	c #FDEA9D",
">.	c #FFEAB1",
",.	c #FACDA4",
"'.	c #FFCAA2",
").	c #FBD0AE",
"!.	c #F6C6A2",
"~.	c #FFCEA6",
"{.	c #FDC69D",
"].	c #FFE7B5",
"^.	c #D1806E",
"/.	c #DD8677",
"(.	c #E4BF9C",
"_.	c #FCE5A7",
":.	c #E3BE8D",
"<.	c #E68B7C",
"[.	c #DC8278",
"}.	c #B75D6B",
"|.	c #ECB88F",
"1.	c #FBDE9C",
"2.	c #FFE8A8",
"3.	c #FFE6B0",
"4.	c #A94C66",
"5.	c #F6CFA4",
"6.	c #FEE4A7",
"7.	c #FDE4AC",
"8.	c #D47A75",
"9.	c #F6CBA3",
"0.	c #EFBE9D",
"a.	c #FAC2A5",
"b.	c #FFCA9E",
"c.	c #F8E2A8",
"d.	c #D07873",
"e.	c #D17774",
"f.	c #CC7671",
"g.	c #D78373",
"h.	c #FECEA6",
"i.	c #FFCDA1",
"j.	c #FFEA9D",
"k.	c #FCDCA3",
"l.	c #6B333C",
"m.	c #6F334F",
"n.	c #4F1636",
"o.	c #4E1D32",
"p.	c #CA9FA9",
"q.	c #C3A49F",
"r.	c #B89996",
"s.	c #C3A6A2",
"t.	c #C1A69F",
"u.	c #C1A49C",
"v.	c #BA9896",
"w.	c #CAA2AA",
"x.	c #431829",
"y.	c #4E1D3D",
"z.	c #6C3646",
"A.	c #853B50",
"B.	c #7E344E",
"C.	c #793550",
"D.	c #B2868A",
"E.	c #BFA196",
"F.	c #C7A4A2",
"G.	c #C0A298",
"H.	c #F3B897",
"I.	c #F9C596",
"J.	c #F5EEA0",
"K.	c #FFECB7",
"L.	c #4F1A36",
"M.	c #53184E",
"N.	c #4A1446",
"O.	c #451934",
"P.	c #C09DA3",
"Q.	c #BAA298",
"R.	c #C1A9A7",
"S.	c #B6A0A2",
"T.	c #B9A4A1",
"U.	c #BDA59B",
"V.	c #C3A6A0",
"W.	c #BF9BA5",
"X.	c #4C213D",
"Y.	c #4D1447",
"Z.	c #6F3146",
"`.	c #793449",
" +	c #551245",
".+	c #471546",
"++	c #C2A4AC",
"@+	c #BCA595",
"#+	c #BEA19D",
"$+	c #C0A39F",
"%+	c #F1B795",
"&+	c #FFD1A2",
"*+	c #F9EAAF",
"=+	c #F1D48C",
"-+	c #4D153C",
";+	c #571143",
">+	c #411E48",
",+	c #531637",
"'+	c #B5A6A1",
")+	c #C5A399",
"!+	c #C4A0A0",
"~+	c #C092AE",
"{+	c #D1A0A4",
"]+	c #B6B285",
"^+	c #C499A3",
"/+	c #C0A1A6",
"(+	c #44183C",
"_+	c #55123E",
":+	c #71374F",
"<+	c #6B374D",
"[+	c #4B123B",
"}+	c #501740",
"|+	c #CAA0AC",
"1+	c #C0A699",
"2+	c #B8A191",
"3+	c #C6A09F",
"4+	c #F3CB9A",
"5+	c #F9EEAE",
"6+	c #EAD9AF",
"7+	c #4A1C4A",
"8+	c #4A1E42",
"9+	c #4E143A",
"0+	c #451746",
"a+	c #906473",
"b+	c #7D7171",
"c+	c #BA9791",
"d+	c #B7B2AC",
"e+	c #B89DA4",
"f+	c #B9A58D",
"g+	c #8A6378",
"h+	c #8C647E",
"i+	c #4C1D41",
"j+	c #4A1E3F",
"k+	c #6E2C48",
"l+	c #712B50",
"m+	c #511E47",
"n+	c #401530",
"o+	c #86626E",
"p+	c #896C70",
"q+	c #C1A5A2",
"r+	c #ABA2A7",
"s+	c #F7E486",
"t+	c #CC7570",
"u+	c #4B104A",
"v+	c #511936",
"w+	c #4A1B3F",
"x+	c #4D103A",
"y+	c #976872",
"z+	c #836171",
"A+	c #C3A7A3",
"B+	c #B3A78F",
"C+	c #C5A8A4",
"D+	c #B99C96",
"E+	c #976773",
"F+	c #8B605A",
"G+	c #4E1536",
"H+	c #7A3A4B",
"I+	c #6C3145",
"J+	c #47133A",
"K+	c #561B3B",
"L+	c #8D6377",
"M+	c #7C6472",
"N+	c #C09CA0",
"O+	c #C3AA96",
"P+	c #CF7A70",
"Q+	c #FDC798",
"R+	c #FFECB1",
"S+	c #E4897B",
"T+	c #451D38",
"U+	c #521A3D",
"V+	c #471838",
"W+	c #4C1D47",
"X+	c #885F6D",
"Y+	c #926967",
"Z+	c #CA9CB6",
"`+	c #B4A192",
" @	c #BEA199",
".@	c #C3A29B",
"+@	c #81687D",
"@@	c #8E687D",
"#@	c #4C1B39",
"$@	c #411850",
"%@	c #762C3B",
"&@	c #78324E",
"*@	c #451551",
"=@	c #49173A",
"-@	c #916564",
";@	c #85666C",
">@	c #906787",
",@	c #846182",
"'@	c #BE7472",
")@	c #FFCF90",
"!@	c #F0ED9E",
"~@	c #511A5D",
"{@	c #3E1A36",
"]@	c #591649",
"^@	c #46193A",
"/@	c #86676C",
"(@	c #8B5C6E",
"_@	c #B7A9A6",
":@	c #C19A95",
"<@	c #BAA6A8",
"[@	c #CDA0A3",
"}@	c #875C87",
"|@	c #7F6264",
"1@	c #591550",
"2@	c #461944",
"3@	c #7F3146",
"4@	c #832F49",
"5@	c #45123B",
"6@	c #4F2440",
"7@	c #93636F",
"8@	c #8D5E68",
"9@	c #8E5C68",
"0@	c #8E635C",
"a@	c #F3C69F",
"b@	c #FFED9E",
"c@	c #E6C99D",
"d@	c #7F6072",
"e@	c #9A5F69",
"f@	c #0C9DC4",
"g@	c #0A9DC4",
"h@	c #029CC3",
"i@	c #1793B9",
"j@	c #8B686D",
"k@	c #82777E",
"l@	c #826E79",
"m@	c #029DC4",
"n@	c #009DC4",
"o@	c #654B66",
"p@	c #734A64",
"q@	c #019DC4",
"r@	c #039DC4",
"s@	c #422041",
"t@	c #414160",
"u@	c #876870",
"v@	c #926677",
"w@	c #FFD2AE",
"x@	c #F4E1B6",
"y@	c #E6C794",
"z@	c #A85676",
"A@	c #84BBF3",
"B@	c #7FB2FF",
"C@	c #7EB4FA",
"D@	c #71B3FF",
"E@	c #0C95D1",
"F@	c #0B95D1",
"G@	c #79B2FE",
"H@	c #83B4F7",
"I@	c #099DC4",
"J@	c #299DC2",
"K@	c #0D9DC4",
"L@	c #7FB6F1",
"M@	c #60AEED",
"N@	c #E38C7F",
"O@	c #FBEB9E",
"P@	c #EDED93",
"Q@	c #FFEFAA",
"R@	c #EBC688",
"S@	c #A4546F",
"T@	c #1F4D9A",
"U@	c #274F8C",
"V@	c #1B4F81",
"W@	c #315472",
"X@	c #16619B",
"Y@	c #1E4B9C",
"Z@	c #1E518A",
"`@	c #3B9CC1",
" #	c #44A5D9",
".#	c #5D93D7",
"+#	c #254381",
"@#	c #1780AE",
"##	c #0C9AC9",
"$#	c #265091",
"%#	c #E0897E",
"&#	c #FAE2A6",
"*#	c #FFEBAD",
"=#	c #F3D0AA",
"-#	c #9E5E7A",
";#	c #70BCF6",
">#	c #8EB0F8",
",#	c #0C9BC7",
"'#	c #72B2FC",
")#	c #169EC7",
"!#	c #70B1F1",
"~#	c #85BBFD",
"{#	c #0C98CD",
"]#	c #FFE9A9",
"^#	c #D18F8E",
"/#	c #80B2FB",
"(#	c #63B1ED",
"_#	c #0B9CC6",
":#	c #0C9ACB",
"<#	c #8CACE9",
"[#	c #6CB0EB",
"}#	c #FFEBAB",
"|#	c #F8C488",
"1#	c #FFD3B6",
"2#	c #D28F8D",
"3#	c #7ABCFF",
"4#	c #21568E",
"5#	c #67AEF2",
"6#	c #7CC4FF",
"7#	c #206597",
"8#	c #F6C4A7",
"9#	c #F8E0A0",
"0#	c #FFCFA2",
"a#	c #E6A48B",
"b#	c #B4606F",
"c#	c #86B5F9",
"d#	c #20587D",
"e#	c #0B95D0",
"f#	c #0A9DC3",
"g#	c #4795CD",
"h#	c #235793",
"i#	c #A84D67",
"j#	c #DD8777",
"k#	c #FCE4A4",
"l#	c #FFCA99",
"m#	c #CE7A71",
"n#	c #7CACF8",
"o#	c #205299",
"p#	c #3B97BD",
"q#	c #38A2D3",
"r#	c #6BAFF5",
"s#	c #7BB3F7",
"t#	c #A0ACFF",
"u#	c #16517D",
"v#	c #A05A75",
"w#	c #F8CA99",
"x#	c #B15669",
"y#	c #A5536E",
"z#	c #89B3FF",
"A#	c #7AB8FF",
"B#	c #81C9F9",
"C#	c #1B4A80",
"D#	c #0C9CC7",
"E#	c #7FBAFC",
"F#	c #75B7FF",
"G#	c #3398BE",
"H#	c #50A8E0",
"I#	c #81BEF7",
"J#	c #84AEF6",
"K#	c #7DB2FE",
"L#	c #26528F",
"M#	c #265485",
"N#	c #A35672",
"O#	c #FFEAAA",
"P#	c #FBCFB4",
"Q#	c #EDB090",
"R#	c #CB8789",
"S#	c #304A85",
"T#	c #1E477D",
"U#	c #2A5393",
"V#	c #0C9CC6",
"W#	c #8FB4FF",
"X#	c #204E8C",
"Y#	c #259DC3",
"Z#	c #1F4C8F",
"`#	c #185488",
" $	c #28508B",
".$	c #E48B7E",
"+$	c #FEE0BD",
"@$	c #F6DE9E",
"#$	c #FFC796",
"$$	c #FABEA3",
"%$	c #9C5F7C",
"&$	c #1A9EC7",
"*$	c #279EC8",
"=$	c #0E99C1",
"-$	c #71ADF4",
";$	c #7CB1F0",
">$	c #23598D",
",$	c #1C9DC3",
"'$	c #129DC5",
")$	c #2B9FC9",
"!$	c #0E9BC3",
"~$	c #E58B7D",
"{$	c #DC8676",
"]$	c #FEE6A6",
"^$	c #F9C8A7",
"/$	c #DC8677",
"($	c #877494",
"_$	c #B9929D",
":$	c #DA8F8D",
"<$	c #DA8D87",
"[$	c #D68372",
"}$	c #FEE5AD",
"|$	c #F6D09F",
"1$	c #F4D0A0",
"2$	c #FDDCB1",
"3$	c #C3696F",
"4$	c #F6CBA0",
"5$	c #FEE7BC",
"6$	c #D88473",
"7$	c #F8C7A9",
"8$	c #FFD1B1",
"9$	c #F5C8A7",
"0$	c #F4CA9C",
"a$	c #F2BF99",
"b$	c #CC816B",
"c$	c #FCE1AA",
"d$	c #F7CFA1",
"e$	c #F6CFA1",
"f$	c #D98574",
"g$	c #CB806B",
"h$	c #BD7962",
"i$	c #FFE4B5",
"j$	c #FFE9B1",
"k$	c #FFEAAC",
"l$	c #FFE9A6",
"m$	c #FFE8A5",
"n$	c #FFECAD",
"o$	c #F4E0A3",
"p$	c #FFEEB3",
"q$	c #F5DFA5",
"r$	c #FFEEB2",
"s$	c #FFEFAD",
"t$	c #FAD9A3",
"u$	c #FBD0A5",
"v$	c #FFCBA6",
"w$	c #FFC8A3",
"x$	c #FBC39E",
"y$	c #FECAA3",
"z$	c #FCCCA4",
"A$	c #FCEBA3",
"B$	c #FCEBA5",
"C$	c #F9E8A2",
"D$	c #FBEAA2",
"E$	c #F5E59A",
"F$	c #FAE9A1",
"G$	c #FFF0AB",
"H$	c #F4E2A4",
"I$	c #FEE9AA",
"J$	c #FEE9A8",
"K$	c #FBE7A0",
"L$	c #FAE89E",
"M$	c #F6E49A",
"N$	c #FDECA4",
"O$	c #FFF4AD",
"P$	c #F1E09B",
"Q$	c #FCEAA2",
"R$	c #FAE69F",
"S$	c #FAE79B",
"T$	c #FFE4A4",
"U$	c #FDD1A0",
"V$	c #FCC79D",
"W$	c #FFC9A1",
"X$	c #FFCCA3",
"Y$	c #FFCDA4",
"Z$	c #FCC79F",
"`$	c #FCEBA6",
" %	c #FBE9A9",
".%	c #F6E4A4",
"+%	c #FFEFA7",
"@%	c #F7E59B",
". + @ # $ % & * = - ; > , ' ) ! ~ { ] ^ / ( _ : < [ } | ",
"1 # 2 3 4 5 6 7 8 9 0 a b c d e f g h i j k l m n o p q ",
"r 9 s t u v w x y z A B C D E F G H I J K L M N O P Q R ",
"S T U V W X Y Z `  ...+.@.#.$.%.&.*.=.-.;.>.,.'.).!.~.{.",
"].^./.(._.:.<.[.}.|.1.2.3.4.5.6.7.<.4.8.0 9.0.a.<.<.<.b.",
"c.<.d.4.8.4.<.4.4.4.<.<.<.4.4.e.<.<.4.4.4.4.f.g.<.<.h.i.",
"j.k.<.l.m.n.o.p.q.r.s.t.u.v.w.x.y.z.A.B.C.D.E.F.G.4.H.I.",
"J.K.<.L.M.N.O.P.Q.R.S.T.U.V.W.X.Y.Z.`. +.+++@+#+$+4.%+&+",
"*+=+}.-+;+>+,+'+)+!+~+{+]+^+/+(+_+:+<+[+}+|+1+2+3+4.<.4+",
"5+6+}.7+8+9+0+a+b+c+d+e+f+g+h+i+j+k+l+m+n+o+p+q+r+4.<.& ",
"s+t+4.u+v+w+x+y+z+A+B+C+D+E+F+G+.+H+I+J+K+L+M+N+O+4.P+Q+",
"R+S+8.T+U+V+W+X+Y+Z+`+ @.@+@@@#@$@%@&@*@=@-@;@>@,@}.'@)@",
"!@S+8.~@{@]@^@/@(@_@:@<@[@}@|@1@2@3@4@5@6@7@8@9@0@4.4.a@",
"b@c@4.d@e@f@g@h@i@j@k@l@m@n@n@o@p@q@r@s@t@    u@v@<.<.w@",
"x@y@z@A@B@C@D@E@F@G@H@f@I@J@n@n@n@n@n@K@K@K@K@L@M@N@O@P@",
"Q@R@S@T@U@V@W@X@K@K@Y@Z@K@`@n@n@ #.#+#@#K@K@##K@$#%#&#*#",
"=#g.-#K@;#>#K@K@K@,#K@K@f@n@'#'#)#'#+#K@K@!#~#{#K@<.<.]#",
"@ <.^#K@K@/#(#K@K@K@K@K@_#n@'#+#n@n@'#K@K@:#<#[#K@<.<.}#",
"|#1#2#K@K@K@3#4#K@K@K@K@g@n@5#+#n@n@'#K@K@K@K@6#7#<.8#9#",
"0#a#b#K@K@K@c#d#K@K@K@K@e#f#'#+#g#'#'#K@K@K@K@'#h#i#j#k#",
"l#m#}.K@K@K@n#o#K@K@K@K@K@p#'#+#q#r#+#K@K@K@s#t#u#v#/.}#",
"w#x#y#K@z#A#B#C#D#D#E#F#K@G#'#+#H#'#+#n@I#J#K#L#M#N#<.O#",
"P#Q#R#K@K@S#T#U#V#V#W#X#K@Y#n@+#)#'#+#K@Z#`# $K@K@.$+$@$",
"#$$$%$f@&$*$=$K@K@-$;$>$K@,$q@q@n@'#+#K@K@'$)$!$K@~${$]$",
"^$<.4.4.4./$<.<.<.($($_$<.<.<.<.N@:$<$e.4.4.4.<.<.<.[$}$",
"|$1$2$4.3$<.<.{$4$5$4.6$7$8$9$<.0$a$b$c$d$e$f$g$h$i$j$k$",
"l$m$n$o$R+p$q$r$s$t$u$v$w$x$y$z$A$B$C$D$E$F$G$H$I$J$A K$",
"L$M$N$O$P$B$Q$R$S$T$U$V$W$X$Y$Z$`$f  %~ B$`$.%R+C$N$+%@%"};
