/* XPM */
static char * en06_xpm[] = {
"28 28 546 2",
"  	c None",
". 	c #FFC89E",
"+ 	c #FFCC9F",
"@ 	c #FFCB9C",
"# 	c #FDC9A2",
"$ 	c #FFCDAE",
"% 	c #FDC8A9",
"& 	c #FFCFA8",
"* 	c #FBC899",
"= 	c #FAEB98",
"- 	c #FDECA6",
"; 	c #F9E5A8",
"> 	c #FDE9AA",
", 	c #FBE79E",
"' 	c #FFF0A1",
") 	c #F9E59C",
"! 	c #FFECAB",
"~ 	c #FEECAA",
"{ 	c #F8E79F",
"] 	c #FFEEA5",
"^ 	c #FFE1A3",
"/ 	c #F9CEA3",
"( 	c #FFCFAF",
"_ 	c #FDC7A3",
": 	c #FDC99A",
"< 	c #FFC99D",
"[ 	c #FFCAA4",
"} 	c #FCC19F",
"| 	c #FFCCA9",
"1 	c #FEC8A4",
"2 	c #FFCFA4",
"3 	c #FCCC9E",
"4 	c #F4C494",
"5 	c #FFCD9D",
"6 	c #F7BD8D",
"7 	c #FFD09E",
"8 	c #FBEAA4",
"9 	c #FCEAAA",
"0 	c #FAE6AB",
"a 	c #FFEFB4",
"b 	c #FAE6A7",
"c 	c #F9E6A2",
"d 	c #FDEAA6",
"e 	c #FBE7A8",
"f 	c #F6E4A2",
"g 	c #FFF2B4",
"h 	c #F5E1A4",
"i 	c #FFECAF",
"j 	c #F6D0A1",
"k 	c #F6C5A5",
"l 	c #FFCBAD",
"m 	c #FFCCA4",
"n 	c #FFCCA2",
"o 	c #FFC9A2",
"p 	c #FFC6A4",
"q 	c #FFCEA9",
"r 	c #FCE9A7",
"s 	c #F8E9A8",
"t 	c #F4E39E",
"u 	c #FFF4AB",
"v 	c #FFE7A7",
"w 	c #FAD1A3",
"x 	c #F6C7A9",
"y 	c #FCE4A6",
"z 	c #FFEBAA",
"A 	c #F8E49F",
"B 	c #FAE7A3",
"C 	c #FFEDAD",
"D 	c #FAE8A8",
"E 	c #FFEEA9",
"F 	c #FCECA1",
"G 	c #FDEF96",
"H 	c #F9E8A0",
"I 	c #F7E6A0",
"J 	c #FEEC9A",
"K 	c #FFE896",
"L 	c #FFE1A6",
"M 	c #FACA99",
"N 	c #FFCA94",
"O 	c #F7C7A1",
"P 	c #FFD0A9",
"Q 	c #FCC49F",
"R 	c #FFCBA4",
"S 	c #FFEAA1",
"T 	c #F8E3A2",
"U 	c #FFF0B3",
"V 	c #FFEDA8",
"W 	c #FCE69A",
"X 	c #FFE19E",
"Y 	c #FCD2AA",
"Z 	c #F8C5B4",
"` 	c #FFE2A6",
" .	c #FFEEA7",
"..	c #FFEC9C",
"+.	c #FFEB9F",
"@.	c #FBE7A2",
"#.	c #FFEDAB",
"$.	c #FAE8A0",
"%.	c #F8E795",
"&.	c #FCEB9D",
"*.	c #FFEAB5",
"=.	c #FCE6B7",
"-.	c #FDEAA5",
";.	c #FDEA9D",
">.	c #FFEAB1",
",.	c #FACDA4",
"'.	c #FFCAA2",
").	c #FBD0AE",
"!.	c #F6C6A2",
"~.	c #FFCEA6",
"{.	c #FDC69D",
"].	c #FFE7B5",
"^.	c #D1806E",
"/.	c #DD8677",
"(.	c #E4BF9C",
"_.	c #FCE5A7",
":.	c #E3BE8D",
"<.	c #E68B7C",
"[.	c #DC8278",
"}.	c #B75D6B",
"|.	c #ECB88F",
"1.	c #FBDE9C",
"2.	c #FFE8A8",
"3.	c #FFE6B0",
"4.	c #A94C66",
"5.	c #F6CFA4",
"6.	c #FEE4A7",
"7.	c #FDE4AC",
"8.	c #D47A75",
"9.	c #F6CBA3",
"0.	c #EFBE9D",
"a.	c #FAC2A5",
"b.	c #FFCA9E",
"c.	c #F8E2A8",
"d.	c #D07873",
"e.	c #D17774",
"f.	c #CC7671",
"g.	c #D78373",
"h.	c #FECEA6",
"i.	c #FFCDA1",
"j.	c #FFEA9D",
"k.	c #FCDCA3",
"l.	c #6B333C",
"m.	c #6F334F",
"n.	c #4F1636",
"o.	c #4E1D32",
"p.	c #CA9FA9",
"q.	c #C3A49F",
"r.	c #B89996",
"s.	c #C3A6A2",
"t.	c #C1A69F",
"u.	c #C1A49C",
"v.	c #BA9896",
"w.	c #CAA2AA",
"x.	c #431829",
"y.	c #4E1D3D",
"z.	c #6C3646",
"A.	c #853B50",
"B.	c #7E344E",
"C.	c #793550",
"D.	c #B2868A",
"E.	c #BFA196",
"F.	c #C7A4A2",
"G.	c #C0A298",
"H.	c #F3B897",
"I.	c #F9C596",
"J.	c #F5EEA0",
"K.	c #FFECB7",
"L.	c #4F1A36",
"M.	c #53184E",
"N.	c #4A1446",
"O.	c #451934",
"P.	c #C09DA3",
"Q.	c #BAA298",
"R.	c #C1A9A7",
"S.	c #B6A0A2",
"T.	c #B9A4A1",
"U.	c #BDA59B",
"V.	c #C3A6A0",
"W.	c #BF9BA5",
"X.	c #4C213D",
"Y.	c #4D1447",
"Z.	c #6F3146",
"`.	c #793449",
" +	c #551245",
".+	c #471546",
"++	c #C2A4AC",
"@+	c #BCA595",
"#+	c #BEA19D",
"$+	c #C0A39F",
"%+	c #F1B795",
"&+	c #FFD1A2",
"*+	c #F9EAAF",
"=+	c #F1D48C",
"-+	c #4D153C",
";+	c #571143",
">+	c #411E48",
",+	c #531637",
"'+	c #B5A6A1",
")+	c #C5A399",
"!+	c #C4A0A0",
"~+	c #C092AE",
"{+	c #D1A0A4",
"]+	c #B6B285",
"^+	c #C499A3",
"/+	c #C0A1A6",
"(+	c #44183C",
"_+	c #55123E",
":+	c #71374F",
"<+	c #6B374D",
"[+	c #4B123B",
"}+	c #501740",
"|+	c #CAA0AC",
"1+	c #C0A699",
"2+	c #B8A191",
"3+	c #C6A09F",
"4+	c #F3CB9A",
"5+	c #F9EEAE",
"6+	c #EAD9AF",
"7+	c #4A1C4A",
"8+	c #4A1E42",
"9+	c #4E143A",
"0+	c #451746",
"a+	c #906473",
"b+	c #7D7171",
"c+	c #BA9791",
"d+	c #B7B2AC",
"e+	c #B89DA4",
"f+	c #B9A58D",
"g+	c #8A6378",
"h+	c #8C647E",
"i+	c #4C1D41",
"j+	c #4A1E3F",
"k+	c #6E2C48",
"l+	c #712B50",
"m+	c #511E47",
"n+	c #401530",
"o+	c #86626E",
"p+	c #896C70",
"q+	c #C1A5A2",
"r+	c #ABA2A7",
"s+	c #F7E486",
"t+	c #CC7570",
"u+	c #4B104A",
"v+	c #511936",
"w+	c #4A1B3F",
"x+	c #4D103A",
"y+	c #976872",
"z+	c #836171",
"A+	c #C3A7A3",
"B+	c #B3A78F",
"C+	c #C5A8A4",
"D+	c #B99C96",
"E+	c #976773",
"F+	c #8B605A",
"G+	c #4E1536",
"H+	c #7A3A4B",
"I+	c #6C3145",
"J+	c #47133A",
"K+	c #561B3B",
"L+	c #8D6377",
"M+	c #7C6472",
"N+	c #C09CA0",
"O+	c #C3AA96",
"P+	c #CF7A70",
"Q+	c #FDC798",
"R+	c #FFECB1",
"S+	c #E4897B",
"T+	c #451D38",
"U+	c #521A3D",
"V+	c #471838",
"W+	c #4C1D47",
"X+	c #885F6D",
"Y+	c #926967",
"Z+	c #CA9CB6",
"`+	c #B4A192",
" @	c #BEA199",
".@	c #C3A29B",
"+@	c #81687D",
"@@	c #8E687D",
"#@	c #4C1B39",
"$@	c #411850",
"%@	c #762C3B",
"&@	c #78324E",
"*@	c #451551",
"=@	c #49173A",
"-@	c #916564",
";@	c #85666C",
">@	c #906787",
",@	c #846182",
"'@	c #BE7472",
")@	c #FFCF90",
"!@	c #F0ED9E",
"~@	c #511A5D",
"{@	c #3E1A36",
"]@	c #591649",
"^@	c #46193A",
"/@	c #86676C",
"(@	c #8B5C6E",
"_@	c #B7A9A6",
":@	c #C19A95",
"<@	c #BAA6A8",
"[@	c #CDA0A3",
"}@	c #875C87",
"|@	c #7F6264",
"1@	c #591550",
"2@	c #461944",
"3@	c #802B40",
"4@	c #832F49",
"5@	c #45123B",
"6@	c #4F2440",
"7@	c #93636F",
"8@	c #8D5E68",
"9@	c #8E5C68",
"0@	c #8E635C",
"a@	c #F3C69F",
"b@	c #FFED9E",
"c@	c #E6C99D",
"d@	c #7F6072",
"e@	c #9A5F6A",
"f@	c #019DC4",
"g@	c #009DC4",
"h@	c #8B686D",
"i@	c #82777E",
"j@	c #826E79",
"k@	c #0D9DC4",
"l@	c #6C324B",
"m@	c #7B2F46",
"n@	c #421F41",
"o@	c #47193F",
"p@	c #876870",
"q@	c #926677",
"r@	c #FFD2AE",
"s@	c #F4E1B6",
"t@	c #E6C794",
"u@	c #A75676",
"v@	c #83B4F7",
"w@	c #0C9DC4",
"x@	c #099DC4",
"y@	c #299DC2",
"z@	c #85B9F5",
"A@	c #71B4FB",
"B@	c #8BB2FF",
"C@	c #84BBF3",
"D@	c #7FB2FF",
"E@	c #7EB4FA",
"F@	c #6CB1FA",
"G@	c #0C97CD",
"H@	c #E38B7F",
"I@	c #FBEB9E",
"J@	c #EDED93",
"K@	c #FFEFAA",
"L@	c #EBC688",
"M@	c #A4546F",
"N@	c #1E4B9C",
"O@	c #1E518A",
"P@	c #3B9CC1",
"Q@	c #44A5D9",
"R@	c #5D93D7",
"S@	c #254381",
"T@	c #1780AE",
"U@	c #0C9AC9",
"V@	c #264F91",
"W@	c #1F5696",
"X@	c #1F4D9A",
"Y@	c #274F8C",
"Z@	c #1B4F81",
"`@	c #315472",
" #	c #16619B",
".#	c #E08C81",
"+#	c #FAE2A6",
"@#	c #FFEBAD",
"##	c #F3D0AA",
"$#	c #9E5D7B",
"%#	c #72B2FC",
"&#	c #169EC7",
"*#	c #70B1F1",
"=#	c #85BBFD",
"-#	c #0C98CD",
";#	c #70BCF6",
">#	c #8EB0F8",
",#	c #FFE9A9",
"'#	c #D18F8E",
")#	c #0B9CC6",
"!#	c #0C9ACB",
"~#	c #8CACE9",
"{#	c #6CB0EB",
"]#	c #80B2FB",
"^#	c #63B1ED",
"/#	c #FFEBAB",
"(#	c #F8C488",
"_#	c #FFD3B6",
":#	c #D28F8D",
"<#	c #0A9DC4",
"[#	c #67AEF2",
"}#	c #7CC4FF",
"|#	c #7ABCFF",
"1#	c #1D6F9F",
"2#	c #F6C4A7",
"3#	c #F8E0A0",
"4#	c #FFCFA2",
"5#	c #E6A48B",
"6#	c #B4606F",
"7#	c #0B95D0",
"8#	c #0A9DC3",
"9#	c #4795CD",
"0#	c #24528E",
"a#	c #86B5F9",
"b#	c #1F5D83",
"c#	c #A84D67",
"d#	c #DD8777",
"e#	c #FCE4A4",
"f#	c #FFCA99",
"g#	c #CE7A71",
"h#	c #3B97BD",
"i#	c #38A2D3",
"j#	c #6BAFF5",
"k#	c #7BB3F7",
"l#	c #A0ACFF",
"m#	c #16517D",
"n#	c #7CACF8",
"o#	c #205299",
"p#	c #A05A75",
"q#	c #F8CA99",
"r#	c #B15669",
"s#	c #A5536E",
"t#	c #7FBAFC",
"u#	c #75B7FF",
"v#	c #3398BE",
"w#	c #50A8E0",
"x#	c #81BEF7",
"y#	c #84AEF6",
"z#	c #7DB2FE",
"A#	c #26528F",
"B#	c #265485",
"C#	c #89B3FF",
"D#	c #7AB8FF",
"E#	c #81C9F9",
"F#	c #1B4A80",
"G#	c #A35672",
"H#	c #FFEAAA",
"I#	c #FBCFB4",
"J#	c #EDB090",
"K#	c #CB8789",
"L#	c #8FB4FF",
"M#	c #204E8C",
"N#	c #259DC3",
"O#	c #1F4C8F",
"P#	c #185488",
"Q#	c #28508B",
"R#	c #304A85",
"S#	c #1E477D",
"T#	c #2A5393",
"U#	c #E48B7E",
"V#	c #FEE0BD",
"W#	c #F6DE9E",
"X#	c #FFC796",
"Y#	c #FABEA3",
"Z#	c #A3658E",
"`#	c #86B4F7",
" $	c #2A5C92",
".$	c #279EC8",
"+$	c #1D99C0",
"@$	c #029DC4",
"#$	c #039DC4",
"$$	c #69AFF4",
"%$	c #244D87",
"&$	c #119DC5",
"*$	c #289FC8",
"=$	c #0E9BC3",
"-$	c #DC8676",
";$	c #FEE6A6",
">$	c #F9C8A7",
",$	c #DC8677",
"'$	c #877494",
")$	c #B9929D",
"!$	c #D68372",
"~$	c #FEE5AD",
"{$	c #F6D09F",
"]$	c #F4D0A0",
"^$	c #FDDCB1",
"/$	c #C3696F",
"($	c #F6CBA0",
"_$	c #FEE7BC",
":$	c #D88473",
"<$	c #F8C7A9",
"[$	c #FFD1B1",
"}$	c #F5C8A7",
"|$	c #F4CA9C",
"1$	c #F2BF99",
"2$	c #CC816B",
"3$	c #FCE1AA",
"4$	c #F7CFA1",
"5$	c #F6CFA1",
"6$	c #D98574",
"7$	c #CB806B",
"8$	c #BD7962",
"9$	c #FFE4B5",
"0$	c #FFE9B1",
"a$	c #FFEAAC",
"b$	c #FFE9A6",
"c$	c #FFE8A5",
"d$	c #FFECAD",
"e$	c #F4E0A3",
"f$	c #FFEEB3",
"g$	c #F5DFA5",
"h$	c #FFEEB2",
"i$	c #FFEFAD",
"j$	c #FAD9A3",
"k$	c #FBD0A5",
"l$	c #FFCBA6",
"m$	c #FFC8A3",
"n$	c #FBC39E",
"o$	c #FECAA3",
"p$	c #FCCCA4",
"q$	c #FCEBA3",
"r$	c #FCEBA5",
"s$	c #F9E8A2",
"t$	c #FBEAA2",
"u$	c #F5E59A",
"v$	c #FAE9A1",
"w$	c #FFF0AB",
"x$	c #F4E2A4",
"y$	c #FEE9AA",
"z$	c #FEE9A8",
"A$	c #FBE7A0",
"B$	c #FAE89E",
"C$	c #F6E49A",
"D$	c #FDECA4",
"E$	c #FFF4AD",
"F$	c #F1E09B",
"G$	c #FCEAA2",
"H$	c #FAE69F",
"I$	c #FAE79B",
"J$	c #FFE4A4",
"K$	c #FDD1A0",
"L$	c #FCC79D",
"M$	c #FFC9A1",
"N$	c #FFCCA3",
"O$	c #FFCDA4",
"P$	c #FCC79F",
"Q$	c #FCEBA6",
"R$	c #FBE9A9",
"S$	c #F6E4A4",
"T$	c #FFEFA7",
"U$	c #F7E59B",
". + @ # $ % & * = - ; > , ' ) ! ~ { ] ^ / ( _ : < [ } | ",
"1 # 2 3 4 5 6 7 8 9 0 a b c d e f g h i j k l m n o p q ",
"r 9 s t u v w x y z A B C D E F G H I J K L M N O P Q R ",
"S T U V W X Y Z `  ...+.@.#.$.%.&.*.=.-.;.>.,.'.).!.~.{.",
"].^./.(._.:.<.[.}.|.1.2.3.4.5.6.7.<.4.8.0 9.0.a.<.<.<.b.",
"c.<.d.4.8.4.<.4.4.4.<.<.<.4.4.e.<.<.4.4.4.4.f.g.<.<.h.i.",
"j.k.<.l.m.n.o.p.q.r.s.t.u.v.w.x.y.z.A.B.C.D.E.F.G.4.H.I.",
"J.K.<.L.M.N.O.P.Q.R.S.T.U.V.W.X.Y.Z.`. +.+++@+#+$+4.%+&+",
"*+=+}.-+;+>+,+'+)+!+~+{+]+^+/+(+_+:+<+[+}+|+1+2+3+4.<.4+",
"5+6+}.7+8+9+0+a+b+c+d+e+f+g+h+i+j+k+l+m+n+o+p+q+r+4.<.& ",
"s+t+4.u+v+w+x+y+z+A+B+C+D+E+F+G+.+H+I+J+K+L+M+N+O+4.P+Q+",
"R+S+8.T+U+V+W+X+Y+Z+`+ @.@+@@@#@$@%@&@*@=@-@;@>@,@}.'@)@",
"!@S+8.~@{@]@^@/@(@_@:@<@[@}@|@1@2@3@4@5@6@7@8@9@0@4.4.a@",
"b@c@4.d@e@f@g@g@f@h@i@j@k@k@  l@m@k@k@n@o@  k@p@q@<.<.r@",
"s@t@u@v@w@x@y@g@g@g@g@g@k@k@k@k@z@A@k@B@C@D@E@F@G@H@I@J@",
"K@L@M@N@O@k@P@g@g@Q@R@S@T@k@k@U@k@V@W@k@X@Y@Z@`@ #.#+#@#",
"##g.$#k@k@w@g@%#%#&#%#S@k@k@*#=#-#k@k@k@k@;#>#k@k@<.<.,#",
"@ <.'#k@k@)#g@%#S@g@g@%#k@k@!#~#{#k@k@k@k@k@]#^#k@<.<./#",
"(#_#:#k@k@<#g@[#S@g@g@%#k@k@k@k@}#S@k@k@k@k@k@|#1#<.2#3#",
"4#5#6#k@k@7#8#%#S@9#%#%#k@k@k@k@%#0#k@k@k@k@k@a#b#c#d#e#",
"f#g#}.k@k@k@h#%#S@i#j#S@k@k@k@k#l#m#k@k@k@k@k@n#o#p#/./#",
"q#r#s#t#u#k@v#%#S@w#%#S@g@x#y#z#A#B#k@k@k@C#D#E#F#G#<.H#",
"I#J#K#L#M#k@N#g@S@&#%#S@k@O#P#Q#k@k@k@k@k@k@R#S#T#U#V#W#",
"X#Y#Z#`# $.$+$f@@$#$$$%$k@k@k@k@k@k@k@k@k@&$*$=$k@U#-$;$",
">$<.4.4.4.,$<.<.<.'$'$)$<.<.<.<.<.<.<.e.4.4.4.<.<.<.!$~$",
"{$]$^$4./$<.<.-$($_$4.:$<$[$}$<.|$1$2$3$4$5$6$7$8$9$0$a$",
"b$c$d$e$R+f$g$h$i$j$k$l$m$n$o$p$q$r$s$t$u$v$w$x$y$z$A A$",
"B$C$D$E$F$r$G$H$I$J$K$L$M$N$O$P$Q$f R$~ r$Q$S$R+s$D$T$U$"};
