/* XPM */
static char * en08_xpm[] = {
"28 28 544 2",
"  	c #FFC89E",
". 	c #FFCC9F",
"+ 	c #FFCB9C",
"@ 	c #FDC9A2",
"# 	c #FFCDAE",
"$ 	c #FDC8A9",
"% 	c #FFCFA8",
"& 	c #FBC899",
"* 	c #FAEB98",
"= 	c #FDECA6",
"- 	c #F9E5A8",
"; 	c #FDE9AA",
"> 	c #FBE79E",
", 	c #FFF0A1",
"' 	c #F9E59C",
") 	c #FFECAB",
"! 	c #FEECAA",
"~ 	c #F8E79F",
"{ 	c #FFEEA5",
"] 	c #FFE1A3",
"^ 	c #F9CEA3",
"/ 	c #FFCFAF",
"( 	c #FDC7A3",
"_ 	c #FDC99A",
": 	c #FFC99D",
"< 	c #FFCAA4",
"[ 	c #FCC19F",
"} 	c #FFCCA9",
"| 	c #FEC8A4",
"1 	c #FFCFA4",
"2 	c #FCCC9E",
"3 	c #F4C494",
"4 	c #FFCD9D",
"5 	c #F7BD8D",
"6 	c #FFD09E",
"7 	c #FBEAA4",
"8 	c #FCEAAA",
"9 	c #FAE6AB",
"0 	c #FFEFB4",
"a 	c #FAE6A7",
"b 	c #F9E6A2",
"c 	c #FDEAA6",
"d 	c #FBE7A8",
"e 	c #F6E4A2",
"f 	c #FFF2B4",
"g 	c #F5E1A4",
"h 	c #FFECAF",
"i 	c #F6D0A1",
"j 	c #F6C5A5",
"k 	c #FFCBAD",
"l 	c #FFCCA4",
"m 	c #FFCCA2",
"n 	c #FFC9A2",
"o 	c #FFC6A4",
"p 	c #FFCEA9",
"q 	c #FCE9A7",
"r 	c #F8E9A8",
"s 	c #F4E39E",
"t 	c #FFF4AB",
"u 	c #FFE7A7",
"v 	c #FAD1A3",
"w 	c #F6C7A9",
"x 	c #FCE4A6",
"y 	c #FFEBAA",
"z 	c #F8E49F",
"A 	c #FAE7A3",
"B 	c #FFEDAD",
"C 	c #FAE8A8",
"D 	c #FFEEA9",
"E 	c #FCECA1",
"F 	c #FDEF96",
"G 	c #F9E8A0",
"H 	c #F7E6A0",
"I 	c #FEEC9A",
"J 	c #FFE896",
"K 	c #FFE1A6",
"L 	c #FACA99",
"M 	c #FFCA94",
"N 	c #F7C7A1",
"O 	c #FFD0A9",
"P 	c #FCC49F",
"Q 	c #FFCBA4",
"R 	c #FFEAA1",
"S 	c #F8E3A2",
"T 	c #FFF0B3",
"U 	c #FFEDA8",
"V 	c #FCE69A",
"W 	c #FFE19E",
"X 	c #FCD2AA",
"Y 	c #F8C5B4",
"Z 	c #FFE2A6",
"` 	c #FFEEA7",
" .	c #FFEC9C",
"..	c #FFEB9F",
"+.	c #FBE7A2",
"@.	c #FFEDAB",
"#.	c #FAE8A0",
"$.	c #F8E795",
"%.	c #FCEB9D",
"&.	c #FFEAB5",
"*.	c #FCE6B7",
"=.	c #FDEAA5",
"-.	c #FDEA9D",
";.	c #FFEAB1",
">.	c #FACDA4",
",.	c #FFCAA2",
"'.	c #FBD0AE",
").	c #F6C6A2",
"!.	c #FFCEA6",
"~.	c #FDC69D",
"{.	c #FFE7B5",
"].	c #D1806E",
"^.	c #DD8677",
"/.	c #E4BF9C",
"(.	c #FCE5A7",
"_.	c #E3BE8D",
":.	c #E68B7C",
"<.	c #DC8278",
"[.	c #B75D6B",
"}.	c #ECB88F",
"|.	c #FBDE9C",
"1.	c #FFE8A8",
"2.	c #FFE6B0",
"3.	c #A94C66",
"4.	c #F6CFA4",
"5.	c #FEE4A7",
"6.	c #FDE4AC",
"7.	c #D47A75",
"8.	c #F6CBA3",
"9.	c #EFBE9D",
"0.	c #FAC2A5",
"a.	c #FFCA9E",
"b.	c #F8E2A8",
"c.	c #D07873",
"d.	c #D17774",
"e.	c #CC7671",
"f.	c #D78373",
"g.	c #FECEA6",
"h.	c #FFCDA1",
"i.	c #FFEA9D",
"j.	c #FCDCA3",
"k.	c #6B333C",
"l.	c #6F334F",
"m.	c #4F1636",
"n.	c #4E1D32",
"o.	c #CA9FA9",
"p.	c #C3A49F",
"q.	c #B89996",
"r.	c #C3A6A2",
"s.	c #C1A69F",
"t.	c #C1A49C",
"u.	c #BA9896",
"v.	c #CAA2AA",
"w.	c #431829",
"x.	c #4E1D3D",
"y.	c #6C3646",
"z.	c #853B50",
"A.	c #7E344E",
"B.	c #793550",
"C.	c #B2868A",
"D.	c #BFA196",
"E.	c #C7A4A2",
"F.	c #C0A298",
"G.	c #F3B897",
"H.	c #F9C596",
"I.	c #F5EEA0",
"J.	c #FFECB7",
"K.	c #4F1A36",
"L.	c #53184E",
"M.	c #4A1446",
"N.	c #451934",
"O.	c #C09DA3",
"P.	c #BAA298",
"Q.	c #C1A9A7",
"R.	c #B6A0A2",
"S.	c #B9A4A1",
"T.	c #BDA59B",
"U.	c #C3A6A0",
"V.	c #BF9BA5",
"W.	c #4C213D",
"X.	c #4D1447",
"Y.	c #6F3146",
"Z.	c #793449",
"`.	c #551245",
" +	c #471546",
".+	c #C2A4AC",
"++	c #BCA595",
"@+	c #BEA19D",
"#+	c #C0A39F",
"$+	c #F1B795",
"%+	c #FFD1A2",
"&+	c #F9EAAF",
"*+	c #F1D48C",
"=+	c #4D153C",
"-+	c #571143",
";+	c #411E48",
">+	c #531637",
",+	c #B5A6A1",
"'+	c #C5A399",
")+	c #C4A0A0",
"!+	c #C092AE",
"~+	c #D1A0A4",
"{+	c #B6B285",
"]+	c #C499A3",
"^+	c #C0A1A6",
"/+	c #44183C",
"(+	c #55123E",
"_+	c #71374F",
":+	c #6B374D",
"<+	c #4B123B",
"[+	c #501740",
"}+	c #CAA0AC",
"|+	c #C0A699",
"1+	c #B8A191",
"2+	c #C6A09F",
"3+	c #F3CB9A",
"4+	c #F9EEAE",
"5+	c #EAD9AF",
"6+	c #4A1C4A",
"7+	c #4A1E42",
"8+	c #4E143A",
"9+	c #451746",
"0+	c #906473",
"a+	c #7D7171",
"b+	c #BA9791",
"c+	c #B7B2AC",
"d+	c #B89DA4",
"e+	c #B9A58D",
"f+	c #8A6378",
"g+	c #8C647E",
"h+	c #4C1D41",
"i+	c #4A1E3F",
"j+	c #6E2C48",
"k+	c #712B50",
"l+	c #511E47",
"m+	c #401530",
"n+	c #86626E",
"o+	c #896C70",
"p+	c #C1A5A2",
"q+	c #ABA2A7",
"r+	c #F7E486",
"s+	c #CC7570",
"t+	c #4B104A",
"u+	c #511936",
"v+	c #4A1B3F",
"w+	c #4D103A",
"x+	c #976872",
"y+	c #836171",
"z+	c #C3A7A3",
"A+	c #B3A78F",
"B+	c #C5A8A4",
"C+	c #B99C96",
"D+	c #976773",
"E+	c #8B605A",
"F+	c #4E1536",
"G+	c #7A3A4B",
"H+	c #6C3145",
"I+	c #47133A",
"J+	c #561B3B",
"K+	c #8D6377",
"L+	c #7C6472",
"M+	c #C09CA0",
"N+	c #C3AA96",
"O+	c #CF7A70",
"P+	c #FDC798",
"Q+	c #FFECB1",
"R+	c #E4897B",
"S+	c #451D38",
"T+	c #521A3D",
"U+	c #471838",
"V+	c #4C1D47",
"W+	c #885F6D",
"X+	c #926967",
"Y+	c #CA9CB6",
"Z+	c #B4A192",
"`+	c #BEA199",
" @	c #C3A29B",
".@	c #81687D",
"+@	c #8E687D",
"@@	c #4C1B39",
"#@	c #411850",
"$@	c #762C3B",
"%@	c #78324E",
"&@	c #451551",
"*@	c #49173A",
"=@	c #916564",
"-@	c #85666C",
";@	c #906787",
">@	c #846182",
",@	c #BE7472",
"'@	c #FFCF90",
")@	c #F0ED9E",
"!@	c #511A5D",
"~@	c #3E1A36",
"{@	c #591649",
"]@	c #46193A",
"^@	c #86676C",
"/@	c #8B5C6E",
"(@	c #B7A9A6",
"_@	c #C19A95",
":@	c #BAA6A8",
"<@	c #CDA0A3",
"[@	c #875C87",
"}@	c #7F6264",
"|@	c #591550",
"1@	c #461944",
"2@	c #7F3146",
"3@	c #832F49",
"4@	c #45123B",
"5@	c #4F2440",
"6@	c #93636F",
"7@	c #8D5E68",
"8@	c #8E5C68",
"9@	c #8E635C",
"0@	c #F3C69F",
"a@	c #FFED9E",
"b@	c #E6C99D",
"c@	c #7F6072",
"d@	c #9A5F69",
"e@	c #0D9DC4",
"f@	c #8B686D",
"g@	c #82777E",
"h@	c #836D78",
"i@	c #664863",
"j@	c #744760",
"k@	c #422041",
"l@	c #423E5D",
"m@	c #876870",
"n@	c #926677",
"o@	c #FFD2AE",
"p@	c #F4E1B6",
"q@	c #E6C794",
"r@	c #A5536E",
"s@	c #7FC4FF",
"t@	c #70B4F3",
"u@	c #87B8FD",
"v@	c #85B9F5",
"w@	c #71B4FB",
"x@	c #8BB2FF",
"y@	c #84BBF3",
"z@	c #7FB2FF",
"A@	c #7EB4FA",
"B@	c #71B3FF",
"C@	c #0C95D1",
"D@	c #0B95D1",
"E@	c #7AB2FF",
"F@	c #83B4F7",
"G@	c #E38C7F",
"H@	c #FBEB9E",
"I@	c #EDED93",
"J@	c #FFEFAA",
"K@	c #EBC688",
"L@	c #A4546F",
"M@	c #20518C",
"N@	c #264A84",
"O@	c #1D4D7D",
"P@	c #1780AE",
"Q@	c #0C9AC9",
"R@	c #264F91",
"S@	c #1F5696",
"T@	c #1F4D9A",
"U@	c #274F8C",
"V@	c #1B4F81",
"W@	c #315472",
"X@	c #16619B",
"Y@	c #1E4B9C",
"Z@	c #1E518A",
"`@	c #E18C81",
" #	c #FAE2A6",
".#	c #FFEBAD",
"+#	c #F3D0AA",
"@#	c #9F5B77",
"##	c #0C99CB",
"$#	c #009DC4",
"%#	c #70B1F1",
"&#	c #85BBFD",
"*#	c #0C98CD",
"=#	c #70BCF6",
"-#	c #8EB0F8",
";#	c #0C9BC7",
">#	c #FFE9A9",
",#	c #D68E8A",
"'#	c #0D9BCA",
")#	c #099DC4",
"!#	c #0C9ACB",
"~#	c #8CACE9",
"{#	c #6CB0EB",
"]#	c #80B2FB",
"^#	c #63B1ED",
"/#	c #0D9CC6",
"(#	c #FFEBAB",
"_#	c #F8C488",
":#	c #FFD3B6",
"<#	c #0D9AC8",
"[#	c #0C9DC4",
"}#	c #7CC4FF",
"|#	c #254381",
"1#	c #7ABCFF",
"2#	c #21568E",
"3#	c #F6C4A7",
"4#	c #F8E0A0",
"5#	c #FFCFA2",
"6#	c #E6A48B",
"7#	c #B5606F",
"8#	c #089DC4",
"9#	c #72B2FC",
"0#	c #24528E",
"a#	c #86B5F9",
"b#	c #20587D",
"c#	c #0C95D0",
"d#	c #A84D67",
"e#	c #DD8777",
"f#	c #FCE4A4",
"g#	c #FFCA99",
"h#	c #CE7A71",
"i#	c #7BB3F7",
"j#	c #A0ACFF",
"k#	c #16517D",
"l#	c #7CACF8",
"m#	c #205299",
"n#	c #A15874",
"o#	c #F8CA99",
"p#	c #B15669",
"q#	c #0C98CC",
"r#	c #81BEF7",
"s#	c #84AEF6",
"t#	c #7DB2FE",
"u#	c #26528F",
"v#	c #265485",
"w#	c #89B3FF",
"x#	c #7AB8FF",
"y#	c #81C9F9",
"z#	c #1B4A80",
"A#	c #0C9CC7",
"B#	c #7FBAFC",
"C#	c #75B7FF",
"D#	c #A35671",
"E#	c #FFEAAA",
"F#	c #FBCFB4",
"G#	c #EDB090",
"H#	c #CE8686",
"I#	c #82B8FF",
"J#	c #7BB6FF",
"K#	c #1F4C8F",
"L#	c #185488",
"M#	c #28508B",
"N#	c #304A85",
"O#	c #1E477D",
"P#	c #2A5393",
"Q#	c #0C9CC6",
"R#	c #8FB4FF",
"S#	c #204E8C",
"T#	c #E48B7E",
"U#	c #FEE0BD",
"V#	c #F6DE9E",
"W#	c #FFC796",
"X#	c #FABEA3",
"Y#	c #9E5C78",
"Z#	c #57AEEB",
"`#	c #86B0F3",
" $	c #1A5891",
".$	c #7DB1FF",
"+$	c #87B5F8",
"@$	c #255188",
"#$	c #DC8676",
"$$	c #FEE6A6",
"%$	c #F9C8A7",
"&$	c #DC8677",
"*$	c #877494",
"=$	c #B9929D",
"-$	c #DB8D86",
";$	c #CB7A7B",
">$	c #A7506B",
",$	c #E28C80",
"'$	c #D68372",
")$	c #FEE5AD",
"!$	c #F6D09F",
"~$	c #F4D0A0",
"{$	c #FDDCB1",
"]$	c #C3696F",
"^$	c #F6CBA0",
"/$	c #FEE7BC",
"($	c #D88473",
"_$	c #F8C7A9",
":$	c #FFD1B1",
"<$	c #F5C8A7",
"[$	c #F4CA9C",
"}$	c #F2BF99",
"|$	c #CC816B",
"1$	c #FCE1AA",
"2$	c #F7CFA1",
"3$	c #F6CFA1",
"4$	c #D98574",
"5$	c #CB806B",
"6$	c #BD7962",
"7$	c #FFE4B5",
"8$	c #FFE9B1",
"9$	c #FFEAAC",
"0$	c #FFE9A6",
"a$	c #FFE8A5",
"b$	c #FFECAD",
"c$	c #F4E0A3",
"d$	c #FFEEB3",
"e$	c #F5DFA5",
"f$	c #FFEEB2",
"g$	c #FFEFAD",
"h$	c #FAD9A3",
"i$	c #FBD0A5",
"j$	c #FFCBA6",
"k$	c #FFC8A3",
"l$	c #FBC39E",
"m$	c #FECAA3",
"n$	c #FCCCA4",
"o$	c #FCEBA3",
"p$	c #FCEBA5",
"q$	c #F9E8A2",
"r$	c #FBEAA2",
"s$	c #F5E59A",
"t$	c #FAE9A1",
"u$	c #FFF0AB",
"v$	c #F4E2A4",
"w$	c #FEE9AA",
"x$	c #FEE9A8",
"y$	c #FBE7A0",
"z$	c #FAE89E",
"A$	c #F6E49A",
"B$	c #FDECA4",
"C$	c #FFF4AD",
"D$	c #F1E09B",
"E$	c #FCEAA2",
"F$	c #FAE69F",
"G$	c #FAE79B",
"H$	c #FFE4A4",
"I$	c #FDD1A0",
"J$	c #FCC79D",
"K$	c #FFC9A1",
"L$	c #FFCCA3",
"M$	c #FFCDA4",
"N$	c #FCC79F",
"O$	c #FCEBA6",
"P$	c #FBE9A9",
"Q$	c #F6E4A4",
"R$	c #FFEFA7",
"S$	c #F7E59B",
"  . + @ # $ % & * = - ; > , ' ) ! ~ { ] ^ / ( _ : < [ } ",
"| @ 1 2 3 4 5 6 7 8 9 0 a b c d e f g h i j k l m n o p ",
"q 8 r s t u v w x y z A B C D E F G H I J K L M N O P Q ",
"R S T U V W X Y Z `  ...+.@.#.$.%.&.*.=.-.;.>.,.'.).!.~.",
"{.].^./.(._.:.<.[.}.|.1.2.3.4.5.6.:.3.7.9 8.9.0.:.:.:.a.",
"b.:.c.3.7.3.:.3.3.3.:.:.:.3.3.d.:.:.3.3.3.3.e.f.:.:.g.h.",
"i.j.:.k.l.m.n.o.p.q.r.s.t.u.v.w.x.y.z.A.B.C.D.E.F.3.G.H.",
"I.J.:.K.L.M.N.O.P.Q.R.S.T.U.V.W.X.Y.Z.`. +.+++@+#+3.$+%+",
"&+*+[.=+-+;+>+,+'+)+!+~+{+]+^+/+(+_+:+<+[+}+|+1+2+3.:.3+",
"4+5+[.6+7+8+9+0+a+b+c+d+e+f+g+h+i+j+k+l+m+n+o+p+q+3.:.% ",
"r+s+3.t+u+v+w+x+y+z+A+B+C+D+E+F+ +G+H+I+J+K+L+M+N+3.O+P+",
"Q+R+7.S+T+U+V+W+X+Y+Z+`+ @.@+@@@#@$@%@&@*@=@-@;@>@[.,@'@",
")@R+7.!@~@{@]@^@/@(@_@:@<@[@}@|@1@2@3@4@5@6@7@8@9@3.3.0@",
"a@b@3.c@d@e@e@e@e@f@g@h@e@e@e@i@j@e@e@k@l@e@e@m@n@:.:.o@",
"p@q@r@s@t@u@e@e@e@e@e@v@w@e@x@y@z@A@B@C@D@E@F@e@e@G@H@I@",
"J@K@L@e@M@N@O@P@e@e@Q@e@R@S@e@T@U@V@W@X@e@e@Y@Z@e@`@ #.#",
"+#f.@#e@##$#e@e@e@%#&#*#e@e@e@e@=#-#e@e@e@;#e@e@e@:.:.>#",
"+ :.,#e@'#$#)#e@e@!#~#{#e@e@e@e@e@]#^#e@e@e@e@e@/#:.:.(#",
"_#:#,#<#e@)#[#e@e@e@e@}#|#e@e@e@e@e@1#2#e@e@e@e@e@:.3#4#",
"5#6#7#$#8#e@e@e@e@e@e@9#0#e@e@e@e@e@a#b#e@e@e@e@c#d#e#f#",
"g#h#[.e@e@e@e@e@e@e@i#j#k#e@e@e@e@e@l#m#e@e@e@e@e@n#^.(#",
"o#p#r@q#e@e@e@$#r#s#t#u#v#e@e@e@w#x#y#z#A#A#B#C#e@D#:.E#",
"F#G#H#e@e@I#J#e@K#L#M#e@e@e@e@e@e@N#O#P#Q#Q#R#S#e@T#U#V#",
"W#X#Y#e@Z#`# $e@e@e@e@e@e@e@e@e@e@e@e@e@e@.$+$@$e@T##$$$",
"%$:.3.3.3.&$:.:.:.*$*$=$:.:.:.:.G@-$-$;$L@>$3.:.,$:.'$)$",
"!$~${$3.]$:.:.#$^$/$3.($_$:$<$:.[$}$|$1$2$3$4$5$6$7$8$9$",
"0$a$b$c$Q+d$e$f$g$h$i$j$k$l$m$n$o$p$q$r$s$t$u$v$w$x$z y$",
"z$A$B$C$D$p$E$F$G$H$I$J$K$L$M$N$O$e P$! p$O$Q$Q+q$B$R$S$"};
