/* XPM */
static char * enl00_xpm[] = {
"28 28 90 1",
" 	c #FFC9A2",
".	c #FDE9A6",
"+	c #8F87C9",
"@	c #516DD2",
"#	c #476AD3",
"$	c #D2ADB7",
"%	c #5877D2",
"&	c #1761D6",
"*	c #596FD2",
"=	c #0071FF",
"-	c #8C86CA",
";	c #787CCE",
">	c #8E96CA",
",	c #3A7AFB",
"'	c #0C72FF",
")	c #2E75FD",
"!	c #4077F9",
"~	c #D1C6B9",
"{	c #1561D6",
"]	c #095FD6",
"^	c #035FD6",
"/	c #0862DE",
"(	c #4D7BFA",
"_	c #D7CBB7",
":	c #1573FE",
"<	c #0360D8",
"[	c #0171FF",
"}	c #4F72D3",
"|	c #0170FC",
"1	c #589FFD",
"2	c #529FFF",
"3	c #0660D8",
"4	c #7486CF",
"5	c #006FFB",
"6	c #0070FC",
"7	c #0165E4",
"8	c #4C6BD3",
"9	c #4265D0",
"0	c #015FD6",
"a	c #476FD3",
"b	c #005FD6",
"c	c #1A73FE",
"d	c #EBA0A9",
"e	c #E39EAF",
"f	c #77204E",
"g	c #5EA4FD",
"h	c #DEA8BC",
"i	c #DAA3BC",
"j	c #7A1536",
"k	c #7D0914",
"l	c #E59DAB",
"m	c #E29CAE",
"n	c #7D0608",
"o	c #64A1F9",
"p	c #E99DA6",
"q	c #E89CA8",
"r	c #780B15",
"s	c #780A11",
"t	c #006AEF",
"u	c #7D0915",
"v	c #7D0607",
"w	c #7D070E",
"x	c #621112",
"y	c #4B96F8",
"z	c #7C0F25",
"A	c #7B112B",
"B	c #681010",
"C	c #5F1212",
"D	c #0371FF",
"E	c #780909",
"F	c #621111",
"G	c #621213",
"H	c #7D080E",
"I	c #700C0C",
"J	c #680F10",
"K	c #601212",
"L	c #7B112C",
"M	c #78090B",
"N	c #651011",
"O	c #611318",
"P	c #539FFF",
"Q	c #7D070B",
"R	c #700E14",
"S	c #681012",
"T	c #0D72FF",
"U	c #2274FD",
"V	c #0B60D6",
"W	c #2174FD",
"X	c #0A5FD6",
"Y	c #1E5FD5",
"        ............        ",
"        ............        ",
"......  ..............      ",
"......  ..............      ",
"........  ............      ",
"........  ............      ",
"..........  ........ +@#$   ",
"....%&%...  ........*+=-;   ",
"...>,'%...         $#)=!@   ",
"...>='%~{]^^^^^^^^^^^/(=*   ",
".._%:<^^[[[[[[[[[[[[[[==**  ",
"..}'|[1[[[[[[[222[[[[[[|3#  ",
"..4'5[[[[[[[[[222[[[[[[678  ",
"..%9[[[[[[[[22222[[[[[[[[0  ",
"..ab=====ccc22222========b..",
"..bb=====22222222=========b.",
" b=======22222222=========b.",
" b====deff222ghijk========b.",
" b====lmnn222opqrst=======b.",
" b====uvwxy222zABCt=======b.",
" 0DDDDvEFGy222HIJKDDDDDDDD0.",
" ^DDDDLMNOPPPPQRSKDDDDDDDD^.",
" ^TTTTTTTPPPPPPPPTTTTTTTTT^.",
" ^TTTTTTTTTTTTTTTTTTTTTTTT^.",
" ^^^UUUUUUUUUUUUUUUUUUU^^^..",
"  ]VWUWWWWWWWWUWUWUWWWWX]X..",
"....YYYYYYYYYYYYYYYYYYY.....",
"..........      ............"};
