/* XPM */
static char * enr01_xpm[] = {
"28 28 88 1",
" 	c #FFC9A2",
".	c #FDE9A6",
"+	c #D1C6B9",
"@	c #476FD3",
"#	c #5173D3",
"$	c #8E96CA",
"%	c #7788CE",
"&	c #8B95CB",
"*	c #0071FF",
"=	c #5877D2",
"-	c #596FD2",
";	c #1760D6",
">	c #3F7AF9",
",	c #2E77FD",
"'	c #0D72FF",
")	c #3B77FB",
"!	c #8F87C9",
"~	c #4C7FFA",
"{	c #0862DE",
"]	c #035FD6",
"^	c #095FD6",
"/	c #1660D6",
"(	c #D2ADB7",
"_	c #0171FF",
":	c #0360D8",
"<	c #1672FE",
"[	c #D9B1B4",
"}	c #0660D8",
"|	c #0170FC",
"1	c #529FFF",
"2	c #589FFD",
"3	c #506CD3",
"4	c #4B71D3",
"5	c #0165E4",
"6	c #0070FC",
"7	c #006FFB",
"8	c #757BCE",
"9	c #015FD6",
"0	c #4265D0",
"a	c #005FD6",
"b	c #1A73FE",
"c	c #7D0914",
"d	c #7A1536",
"e	c #DAA3BC",
"f	c #DEA8BC",
"g	c #5EA4FD",
"h	c #77204E",
"i	c #E39EAF",
"j	c #EBA0A9",
"k	c #006AEF",
"l	c #780A11",
"m	c #780B15",
"n	c #E89CA8",
"o	c #E99DA6",
"p	c #64A1F9",
"q	c #7D0608",
"r	c #E29CAE",
"s	c #E59DAB",
"t	c #5F1212",
"u	c #681010",
"v	c #7B112B",
"w	c #7C0F25",
"x	c #4B96F8",
"y	c #621112",
"z	c #7D070E",
"A	c #7D0607",
"B	c #7D0915",
"C	c #0371FF",
"D	c #601212",
"E	c #680F10",
"F	c #700C0C",
"G	c #7D080E",
"H	c #621213",
"I	c #621111",
"J	c #780909",
"K	c #681012",
"L	c #700E14",
"M	c #7D070B",
"N	c #539FFF",
"O	c #611318",
"P	c #651011",
"Q	c #78090B",
"R	c #7B112C",
"S	c #2274FD",
"T	c #0A5FD6",
"U	c #2174FD",
"V	c #0B60D6",
"W	c #1E5FD5",
"        ............        ",
"        ............        ",
"......  ..............      ",
"......  ..............      ",
"........  ............      ",
"........  ............      ",
"...+@#$...  ........        ",
"...%&*$=..  ........ -;-    ",
"...#>*,@+.           -')!   ",
"...=*~{]]]]]]]]]]]^/(-'*!   ",
"..==**______________]]:<-[  ",
"..@}|______111_______2_|'3  ",
"..456______111_________7'8  ",
"..9________11111________0-  ",
"..a********11111bbb*****a@..",
".a*********11111111*****aa..",
" a*********11111111*******a.",
" a********cdefg111hhij****a.",
" a*******klmnop111qqrs****a.",
" a*******ktuvw111xyzAB****a.",
" 9CCCCCCCCDEFG111xHIJACCCC9.",
" ]CCCCCCCCDKLMNNNNOPQRCCCC].",
" ]'''''''''NNNNNNNN'''''''].",
" ]''''''''''''''''''''''''].",
"  ]]]SSSSSSSSSSSSSSSSSSS]]].",
"  T^TUUUUSUSUSUUUUUUUUSUV^..",
".....WWWWWWWWWWWWWWWWWWW....",
"..........      ............"};
