/* XPM */
static char *_ecd069f0500436c9e2a7ed4fdb1eda1[] = {
/* columns rows colors chars-per-pixel */
"28 28 64 1 ",
"  c #A14A00",
". c #A24C00",
"X c #BD7C31",
"o c #ED6A00",
"O c #EE6E00",
"+ c #F07A00",
"@ c #E56D1E",
"# c #DF742F",
"$ c #DA6F35",
"% c #DD7532",
"& c #DA7838",
"* c #E47124",
"= c #E0742C",
"- c #CD784C",
"; c #D07647",
": c #D47D41",
"> c #F18200",
", c #F28700",
"< c #F19F18",
"1 c #F6A100",
"2 c #F8AB00",
"3 c #F5A00A",
"4 c #DAA937",
"5 c #DFB03B",
"6 c #FBC000",
"7 c #FCC500",
"8 c #FDC900",
"9 c #FDCD00",
"0 c #FED300",
"q c #FFD600",
"w c #FFD800",
"e c #FFDB12",
"r c #FFDD1D",
"t c #FFDD21",
"y c #FFDE27",
"u c #FFDF2D",
"i c #CB8852",
"p c #D09C50",
"a c #D7AA5E",
"s c #C49965",
"d c #C49F6B",
"f c #DAAF62",
"g c #C9AE79",
"h c #EECA4A",
"j c #F7D952",
"k c #F3D55E",
"l c #FFE346",
"z c #FFE44B",
"x c #FFE44E",
"c c #FFE553",
"v c #FFE556",
"b c #FFE65A",
"n c #FFEA75",
"m c #CDB780",
"M c #E9B793",
"N c #DECB90",
"B c #E3D094",
"V c #EDDA9B",
"C c #F1DE9E",
"Z c #FFF19E",
"A c #FFC9A2",
"S c #FAE7A4",
"D c #FDE9A6",
"F c #FFF1A1",
/* pixels */
"AAAAAAAADDDDDDDDDDDDAAAAAAAA",
"AAAAAAAADDDDDDDDDDDDAAAAAAAA",
"DDDDDDAADDDDDDDDDDDDDDAAAAAA",
"DDDDDDAADDDDDDDDDDDDDDAAAAAA",
"DDDDDDDDAADDDDDDDDDDDDAAAAAA",
"DDDDDDDDAADDDDDDDDDDDDAAAAAA",
"DDDDDDDDDDAADDDDDDDDAAAAAAAA",
"DDDDDDDDDDAADDDDDDDDAAAAAAAA",
"DDDDDDDDDDAAAAAAAAAAAAAAAAAA",
"DDDDDDDDDDAAAAAAAAAAAAAAAAAA",
"DDDDDDDD$ooooooooooo@AAAAAAA",
"DDDDooowwwwwwwwwwwww9oAAAAAA",
"DDmi868wwwwwwrlywwwww7;-AAAA",
"DDgowwwwwwwwwtbuwwwwwwooAAAA",
"D:<8wwwwwwwcxvbuwwwwww98#SDD",
"Do1wwwwweeebbbbuwwwwwwww+BCD",
"Ao1wwwwwzbbbbbbuwwwwwwwwwOdD",
"owwwwwwwcbbbbbbuwwwwwwwwwosD",
"owwwwZF hbbbbnZp.wwwwwwwwOdD",
"owwwwaf jbbbbkaX wwwwwwwwosD",
"owwww   hbbbb4   wwwwwwwwOdD",
"owwqw   jbbbb5   wwwwwwwwosD",
"owqqw   hbbbb4   wwwwwwwwOdD",
"owqwwwwwcbbbbbbuwwwwwwwwwosD",
"owwwwwwwwwwwwwwwwwwwwwwwwOdD",
"M,2wwwwwwwwwwwwwwwwwww>,>NVD",
"D&39q90900909q9q9q9090=%*SDD",
"DDgoooooooooooooooooooDDDDDD"
};
