/* XPM */
static char *_68ade6c70b6418e92a7c9c14e954b0a[] = {
/* columns rows colors chars-per-pixel */
"32 68 101 2 ",
"   c #4C1840",
".  c #532C49",
"X  c #73314C",
"o  c #74344E",
"O  c #723550",
"+  c #6C4964",
"@  c #875F6D",
"#  c #A94C66",
"$  c #AC5067",
"%  c #AC5568",
"&  c #B05B6B",
"*  c #8B6472",
"=  c #8C6573",
"-  c #8A6675",
";  c #8E6976",
":  c #8F6C78",
">  c #CE7673",
",  c #C37978",
"<  c #E3887C",
"1  c #E68B7C",
"2  c #747A93",
"3  c #826E81",
"4  c #877983",
"5  c #9A7E87",
"6  c #1794BA",
"7  c #2D93B8",
"8  c #2999BF",
"9  c #3E94B8",
"0  c #4C91B1",
"q  c #6386A3",
"w  c #6397B6",
"e  c #6D9EBA",
"r  c #709FB9",
"t  c #079BC2",
"y  c #039CC3",
"u  c #079CC3",
"i  c #019DC4",
"p  c #079DC4",
"a  c #0B9CC3",
"s  c #0D9DC4",
"d  c #109BC2",
"f  c #129CC3",
"g  c #189BC2",
"h  c #229DC3",
"j  c #299DC3",
"k  c #3E9DC1",
"l  c #34A0C5",
"z  c #4AA1C3",
"x  c #7EB1CB",
"c  c #86818E",
"v  c #9A818A",
"b  c #868998",
"n  c #A68F96",
"m  c #A9939A",
"M  c #AB979D",
"N  c #A2989F",
"B  c #AD999F",
"V  c #BEA29E",
"C  c #AD99A0",
"Z  c #AF9FA7",
"A  c #A9A4AF",
"S  c #B2A0A6",
"D  c #B1A4AB",
"F  c #B7A8AD",
"G  c #B9AAAE",
"H  c #B6AAB0",
"J  c #BCADB2",
"K  c #AFB3BC",
"L  c #B5B3B8",
"P  c #BFBABE",
"I  c #DC9D8A",
"U  c #E6AB91",
"Y  c #C5BABF",
"T  c #C8BCBF",
"R  c #FFC9A2",
"E  c #FDE9A6",
"W  c #80AEC6",
"Q  c #91B6CC",
"!  c #A1BACC",
"~  c #A8BDCD",
"^  c #B0B7C1",
"/  c #BFBCC1",
"(  c #B8C0C9",
")  c #C4C0C7",
"_  c #C3C3C9",
"`  c #C5C4CB",
"'  c #CDCACE",
"]  c #D0C6C9",
"[  c #C8CED5",
"{  c #D3CED3",
"}  c #D5CDD0",
"|  c #D5D2D4",
" . c #D2D6DC",
".. c #DCD6D8",
"X. c #E8E0DF",
"o. c #DDDFE2",
"O. c #E3E0E1",
"+. c #EFEFF0",
"@. c #F1EFF0",
"#. c #F4F2F3",
"$. c #F0F3F6",
/* pixels */
"# R R E E E E E E E R R R R E E E E R R E E E E E E E E R R R R ",
"# R R E E E E E E E R R R R E E E E R R E E E E E E E E R R R R ",
"# 1 1 R E E E E R R E E E E E E E E E E R R R R R R R R R R R R ",
"# 1 1 R E E E E R R E E E E E E E E E E R R R R R R R R R R R R ",
"# E E R R R R R R R E E E E E E E E E E E E R R R R R R R R R R ",
"# E E R R R R R R R E E E E E E E E E E E E R R R R R R R R R R ",
"# E E E E E E E R R E E E E E E E E E E E E E E R R R R R R R R ",
"# E E E E E E E R R E E E E E E E E E E E E E E R R R R R R R R ",
"# E E E E E E E E E R R E E E E E E E E E E E E R R R R R R E E ",
"# E E E E E E E E E R R E E E E E E E E E E E E R R R R R R E E ",
"# 1 1 E E E E E E E E E R R E E E E E E E E R R R R R R R R E E ",
"# 1 1 E E E E E E E E E R R E E E E E E E E R R R R R R R R E E ",
"# 1 1 E E E E E E E E E R R R R R R R R R R R R R R R R R R E E ",
"# 1 1 E E E E E E E E E R R R R R R R R R R R R R R R R R R E E ",
"1 E E E E E E E E E R R E E E E E E E E E E R R R R R R R R E E ",
"1 E E E E E E E E E R R E E E E E E E E E E R R R R R R R R E E ",
"# R R E E E E E R R E E E E E E E E E E E E E E R R R R R R R R ",
"# R R E E E E E R R E E E E E E E E E E E E E E R R R R R R R R ",
"# R R E E E E E R R E E E E E E E E E E E E E E R R E E E E E E ",
"# R R E E E E E R R E E E E E E E E E E E E E E R R E E E E E E ",
"1 1 1 R R R R R R R E E E E E E E E E E E E E E R R E E E E E E ",
"1 1 1 R R R R R R R E E E E E E E E E E E E E E R R E E E E E E ",
"1 R R R R R R R R R R R E E E E E E E E E E R R E E E E E E E E ",
"1 R R R R R R R R R R R E E E E E E E E E E R R E E E E E E E E ",
"1 R R R R R E E E E R R R R E E E E E E R R E E E E E E E E E E ",
"1 R R R R R E E E E R R R R E E E E E E R R E E E E E E E E E E ",
"# 1 1 R E E E E E E E E R R R R R R R R E E E E E E E E E E E E ",
"# 1 1 R E E E E E E E E R R R R R R R R E E E E E E E E E E E E ",
"# 1 1 R E E E E E E E E R R R R R R E E E E E E E E E E E E E E ",
"# 1 1 R E E E E E E E E R R R R R R E E E E E E E E E E E E E E ",
"# # # E E E E E E E E E R R R R R R E E E E E E E E E E E E R R ",
"# # # E E E E E E E E E R R R R R R E E E E E E E E E E E E R R ",
"# # & I 1 1 1 1 R R 1 1 1 1 R R E E E E R R 1 1 R R E E R R 1 1 ",
"# % , U 1 1 1 1 R R 1 1 1 1 R R E E E E R R 1 1 R R E E R R 1 1 ",
"$ > 1 1 1 1 1 1 1 1 1 1 # # 1 1 1 1 1 1 1 1 # # # # # # 1 1 1 1 ",
"< 1 1 1 1 1 1 1 1 1 1 1 # # 1 1 1 1 1 1 1 1 # # # # # # 1 1 1 1 ",
"* *     * * * * X X             X X * * * * X X         * * * * ",
"* *     * * * * X X             X X * * * * X X         * * * * ",
"* *     * * X X * * * * V V * *     * * * * X X         * * * * ",
"* *     * * X X * * * * V V * *     * * * * X X         * * * * ",
"* *     X X X X * * V V V V V V     X X X X X X         * * * * ",
"* *     X X X X * * V V V V V V     X X X X X X         * * * * ",
"X X     X X     V V V V V V V V     X X     V V V V * * X X X X ",
"X X     X X     V V V V V V V V     X X     V V V V * * X X X X ",
"X X X X         V V V V V V V V     X X     V V V V V V V V X X ",
"X X X X         V V V V V V V V     X X     V V V V V V V V X X ",
"X X X X         * * V V V V * *     X X     * * V V V V V V X X ",
"X X X X         * * V V V V * *     X X     * * V V V V V V X X ",
"X X X X         * * V V V V * *     X X     * * * * * * * * X X ",
"X X X X         * * V V V V * *     X X     * * * * * * * * X X ",
"* * * * * *     * * * * * * X X X X         X X * * * * * *     ",
"* * * * * *     * * * * * * X X X X         X X * * * * * *     ",
"* * * * * *     X X X X         X X * * * * X X * * * * * *     ",
"* * * * * *     X X X X         X X * * * * X X * * * * * *     ",
"X X X X X X     X X         * * V V V V V V     * * * * * *     ",
"X X X X X X     X X         * * V V V V V V     * * * * * *     ",
"X X X X X X                 V V V V V V V V     * * * * * *     ",
"X X X X X X                 V V V V V V V V     * * * * * *     ",
"X X X X     * * * * * *     * * * * * * * *     X X * * * *     ",
"X X X X     * * * * * *     * * * * * * * *     X X * * * *     ",
"    X X     * * * * * *     * * * * * * * *     X X * * X X     ",
"    X X     * * * * * *     * * * * * * * *     X X * * X X     ",
"* *         X X X X X X     * * * * * * * *     X o X X X X - 3 ",
"* *         X X X X X X     * * * * * * * *     X X 5 5 O + 2 q ",
"V X.4 P : @ B X X X X X     * * * * * * = * X X X X | L _ ~ r e ",
"' O.c / Y v C G ..] S M .   * * * * * * * ; n @.} H ^ 0 z l k k ",
"j h t 6 8 8 9 w ` #.D ( K N T 5 m J m F Z { +.[ g 7 u y s p s s ",
"i i i i a p f g d a a g W b ) A o. .$.! Q x g a u i i i i i i i "
};
