/* XPM */
static char * n1_xpm[] = {
"32 32 57 1",
" 	c #009DC4",
".	c #AFCFE0",
"+	c #C4DAE7",
"@	c #C3DAE7",
"#	c #BED7E5",
"$	c #CBDEE9",
"%	c #C7DCE8",
"&	c #DC6D22",
"*	c #D2E2ED",
"=	c #7FB8D2",
"-	c #9EC6DB",
";	c #C6DCE7",
">	c #027CAC",
",	c #90BFD7",
"'	c #51A8CA",
")	c #ABC0D3",
"!	c #B9C7D7",
"~	c #FFE349",
"{	c #B8D3E3",
"]	c #CEE0EA",
"^	c #B5C5D6",
"/	c #B2C4D5",
"(	c #BCCAD9",
"_	c #B1C3D4",
":	c #DCE9F1",
"<	c #E6EEF4",
"[	c #E4EDF3",
"}	c #047DAC",
"|	c #C4CFDC",
"1	c #B0CFE0",
"2	c #087DAC",
"3	c #759ABA",
"4	c #D7E6EE",
"5	c #A9CBDE",
"6	c #BBC9D8",
"7	c #ABCCDE",
"8	c #C1CCDB",
"9	c #B9D4E3",
"0	c #73B3D0",
"a	c #D9E7EF",
"b	c #ABBFD3",
"c	c #88BBD4",
"d	c #A6BCD1",
"e	c #C7D0DC",
"f	c #C6DBE8",
"g	c #B2D0E0",
"h	c #6F97B9",
"i	c #3783AF",
"j	c #E2EDF3",
"k	c #BFCCDA",
"l	c #DBE8F0",
"m	c #E8F0F5",
"n	c #BAD4E4",
"o	c #0D7DAC",
"p	c #ACC0D3",
"q	c #82A0BE",
"r	c #6693B7",
"  .+    .@       ##     $$      ",
" #%$     $.   &&&&&&&    *    =-",
"*#%;*>>  $.>&&&&&&&&&>    $>>$,'",
"    )!> ##  &&~~~~~~~>>###{]^#  ",
"   >>//>&&&&~~~~~~~~~$(_##:<[}  ",
"      $(&&&&~~~~~~~~~.>}  }|!}}}",
"     1*#~~~~~~~~~~~~~ }}}}}}}!22",
"    #$  ~~~~~~~~~~~~~.}}>    *3}",
" 1#*#   ~~~~~~~~~~~~~_2}      ==",
"$4] +. >~~~~~~~~~~~~~_#}>     '5",
"1   (6>>~~~~~~~~~~~~~} (/7]$**--",
"   >// >>     ~~~~~~~   !8[.    ",
"   > * >>     ~~~~~~~  77 }}>}}2",
"     * >>     ~~~~~~~  99  }22> ",
"     $1 >     ~~~~~~~  *  >>    ",
"     *  >    .~~~~~~~*:#  }}    ",
"    ]]**!_.  .~~~~~~~}__  2    0",
"   a#   b#$$ #~~~~~~~>6____   =c",
"  *]   >>>>b(d~~~~~~~ 4a#__*$#-'",
" #+   >>   >>(~~~~~~~ $. >}}be= ",
"*.+  >>      #~~~~~~~ $. >}}(!22",
"   *>>       @~~~~~~~.*  >>*   >",
"   !)>       *~~~~~~~]]  >_#   >",
"   $. >    #$*~~~~~~~be>>>##  > ",
"   4:$__ #:]fg~~~~~~~>_(>>]]$^h.",
"   $..__$+    ~~~~~~~  *^_@#.bi ",
"   $. >>b!_ >2~~~~~~~ ]4jkb  222",
".. $. >>>_!!> ~~~~~~~*]  4>}}}}>",
"$$lmn >>]*g!^_~~~~~~~    (>o2>  ",
"  .p6 >>]   _6~~~~~~~  }>(  2   ",
"   >(6>(   >>>~~~~~~~ >2 *  2   ",
"    'h33   >  'qr>   2   == 2   "};
