/* XPM */
static char * n2_xpm[] = {
"32 32 185 2",
"  	c #009DC4",
". 	c #AFCFE0",
"+ 	c #C4DAE7",
"@ 	c #C3DAE7",
"# 	c #BED7E5",
"$ 	c #CBDEE9",
"% 	c #C7DCE8",
"& 	c #3E9ABE",
"* 	c #C77962",
"= 	c #DC6D22",
"- 	c #D8A498",
"; 	c #7FB8D2",
"> 	c #9EC6DB",
", 	c #D2E2ED",
"' 	c #C6DCE7",
") 	c #4A7BA5",
"! 	c #BE7164",
"~ 	c #BE7D71",
"{ 	c #CFCCD1",
"] 	c #457BA6",
"^ 	c #027CAC",
"/ 	c #90BFD7",
"( 	c #51A8CA",
"_ 	c #B2B9C8",
": 	c #D29081",
"< 	c #D3C0C0",
"[ 	c #B5C5D6",
"} 	c #8C778D",
"| 	c #DF7A26",
"1 	c #F9D243",
"2 	c #FFE349",
"3 	c #F3C33E",
"4 	c #E2CCC9",
"5 	c #E4EDF3",
"6 	c #047DAC",
"7 	c #8B8EA1",
"8 	c #E07F28",
"9 	c #F6CB41",
"0 	c #E4922E",
"a 	c #D2B8AF",
"b 	c #B9C7D7",
"c 	c #9E9B9B",
"d 	c #F5C840",
"e 	c #C0AA7A",
"f 	c #087DAC",
"g 	c #DADABC",
"h 	c #C0B389",
"i 	c #759ABA",
"j 	c #B0CFE0",
"k 	c #D8DBC0",
"l 	c #EED860",
"m 	c #9FB9A6",
"n 	c #A2BAA5",
"o 	c #A2AB92",
"p 	c #CFCDB1",
"q 	c #E6E5C7",
"r 	c #D1CFB3",
"s 	c #F9D851",
"t 	c #D7E6EE",
"u 	c #CEE0EA",
"v 	c #DBDDC2",
"w 	c #FEE34B",
"x 	c #FEE24A",
"y 	c #E2D576",
"z 	c #BBC9D8",
"A 	c #B1C3D4",
"B 	c #F6D254",
"C 	c #A9CBDE",
"D 	c #C0CBD5",
"E 	c #C5CDCD",
"F 	c #638FA4",
"G 	c #63A8BA",
"H 	c #56A5BD",
"I 	c #F3D04E",
"J 	c #E3CDA2",
"K 	c #B2C4D5",
"L 	c #3C9BBF",
"M 	c #A18891",
"N 	c #D7B4B0",
"O 	c #CBABA8",
"P 	c #A17580",
"Q 	c #F5D04A",
"R 	c #DAC69C",
"S 	c #277CAA",
"T 	c #5198BA",
"U 	c #F7CF42",
"V 	c #ADAA8A",
"W 	c #1C7CAB",
"X 	c #B9726A",
"Y 	c #B2CDDD",
"Z 	c #3A9BBF",
"` 	c #D06F47",
" .	c #DE7926",
"..	c #EEB539",
"+.	c #EEB439",
"@.	c #FBDA46",
"#.	c #A3AB92",
"$.	c #B08383",
"%.	c #D97539",
"&.	c #DB6D26",
"*.	c #E08229",
"=.	c #E3D575",
"-.	c #A0AA93",
";.	c #6590A3",
">.	c #CFD9E1",
",.	c #D1CED2",
"'.	c #D99A88",
").	c #DD7023",
"!.	c #F4C73F",
"~.	c #D0CD88",
"{.	c #73B3D0",
"].	c #D9E7EF",
"^.	c #CAB9BC",
"/.	c #DD7324",
"(.	c #DE7826",
"_.	c #FBD946",
":.	c #F8E066",
"<.	c #BEC8C9",
"[.	c #B9C6CD",
"}.	c #88BBD4",
"|.	c #F2C03D",
"1.	c #FEDF48",
"2.	c #FFE249",
"3.	c #FBE36D",
"4.	c #F7E489",
"5.	c #BFD7E4",
"6.	c #99979C",
"7.	c #D3DFDC",
"8.	c #B0CFDF",
"9.	c #ABBFD3",
"0.	c #C7D0DC",
"a.	c #FBDD4C",
"b.	c #D1CD87",
"c.	c #EADF9A",
"d.	c #E7D890",
"e.	c #D1C679",
"f.	c #D0DEE1",
"g.	c #BCCAD9",
"h.	c #C0A97B",
"i.	c #F3D052",
"j.	c #D9C094",
"k.	c #F4D150",
"l.	c #4F99BA",
"m.	c #5598B9",
"n.	c #D3D8E0",
"o.	c #BECBD6",
"p.	c #C2CDD8",
"q.	c #B7BBC8",
"r.	c #557AA2",
"s.	c #B5C6D3",
"t.	c #CDD4DC",
"u.	c #D0D6DD",
"v.	c #BFD4E1",
"w.	c #DAC79C",
"x.	c #DC6E29",
"y.	c #DC6F29",
"z.	c #DB6D27",
"A.	c #DC6E28",
"B.	c #C9BABD",
"C.	c #E9D2A8",
"D.	c #D3C1C1",
"E.	c #6F97B9",
"F.	c #E08128",
"G.	c #E18429",
"H.	c #CDBCBA",
"I.	c #3783AF",
"J.	c #BFB38A",
"K.	c #DBE8F0",
"L.	c #E8F0F5",
"M.	c #D7D8BC",
"N.	c #A6AB90",
"O.	c #ACC0D3",
"P.	c #D7D3B5",
"Q.	c #D7D3B6",
"R.	c #FFE34C",
"S.	c #A1BAA6",
"T.	c #62ABC7",
"U.	c #8DA3B0",
"V.	c #91A6B1",
"W.	c #7BB1C0",
"X.	c #99AAB4",
"Y.	c #87A0AE",
"Z.	c #648FA4",
"`.	c #97BEC7",
" +	c #3BA1C1",
"    . +         . @               # #           $ $             ",
"  # % $     & * = = = = = = = = = = = = = = = = = -         ; > ",
", # % ' , ) ! = = = = = = = = = = = = = = = = = = ~ { ] ^ $ / ( ",
"        _ : = = = = = = = = = = = = = = = = = = = = = < [ #     ",
"      ^ } = | 1 2 2 2 2 2 2 2 2 2 2 2 2 2 2 2 2 2 3 = 4 5 6     ",
"        7 8 9 2 2 2 2 2 2 2 2 2 2 2 2 2 2 2 2 2 2 9 0 a b 6 6 6 ",
"        c d 2 2 2 2 2 2 2 2 2 2 2 2 2 2 2 2 2 2 2 2 2 e 6 b f f ",
"        g 2 2 2 2 2 2 2 2 2 2 2 2 2 2 2 2 2 2 2 2 2 2 h   , i 6 ",
"  j # , k 2 2 2 2 2 l m n n o p p q k n r s 2 2 2 2 2 h     ; ; ",
"$ t u   v 2 w x x w y         ^ z A 6 6 6 B 2 2 2 2 2 h     ( C ",
"j       D E F F G G H         # u   ^ ^ 6 I 2 2 2 2 2 J , , > > ",
"      ^ K K   ^ ^ L M M M M M N O M M P P Q 2 2 2 2 2 R         ",
"      ^   ,   S ^ T = = = = = = = = = = = U 2 2 2 2 2 V ^ 6 6 f ",
"          ,   W X * = = = = = = = = = = = U 2 2 2 2 2 o f f ^   ",
"          $ Y Z `  .....................+.@.2 2 2 2 2 #.        ",
"          , $.%.&.*.2 2 2 2 2 2 2 2 2 2 2 2 2 2 2 =.-.;.        ",
"        >.,.'.).!.1 2 2 2 2 2 2 2 2 2 2 2 2 2 2 2 ~.f         {.",
"      ].^.= /.(._.2 2 2 2 2 2 2 2 2 2 2 2 2 2 :.<.[.A       ; }.",
"    , u 7 = |.1.2.2 2 2 2 2 2 2 2 2 2 2 2 2 3.4.5.A A , $ # > ( ",
"  # +   6.0 9 2 2 2 2 2 2 2 2 2 2 2 2 2 2 2 7.8.  ^ 6 6 9.0.;   ",
", . +   h 2 2 2 2 2 a.b.b.c.d.e.e.e.b.b.b.b.f..   ^ 6 6 g.b f f ",
"      , h.2 2 2 2 2 i.    @ $ # A , $ $ . . ,     ^ ^ ,       ^ ",
"      b j.2 2 2 2 2 k.l.m.n.o.p.q.r.s.s.t.u.u.m.m.r.q.v.      ^ ",
"      $ w.2 2 2 2 2 U x.y.y.z.z.&.&.&.&.&.A.A.&.&.&.= B.    ^   ",
"      t C.2 2 2 2 2 U = = = = = = = = = = = = = = = = D.$ [ E.. ",
"      $ w.2 2 2 2 2 1 F.G.G.G.G.G.G.G.G.G.G.G.G.G.G.G.H.. 9.I.  ",
"      $ w.2 2 2 2 2 2 2.2.2.2.2.2.2.2.2.2.2.2.2.2.2.2 J.  f f f ",
". .   $ w.2 2 2 2 2 2 2 2 2 2 2 2 2 2 2 2 2 2 2 2 2 2 h.6 6 6 ^ ",
"$ $ K.L.M.2 2 2 2 2 2 2 2 2 2 2 2 2 2 2 2 2 2 2 2 2 2 N.f ^     ",
"    . O.P.2 2 2 2 2 2 2 2 2 2 2 2 2 2 2 2 2 2 2 2 2 2 n f       ",
"      ^ Q.2 x R.w w w x x x x R.R.R.w w w w x x w R.2 S.f       ",
"        T.U.V.V.G G G F G G W.X.Y.F G G G Z.G G G `.`. +f       "};
