/* XPM */
static char * n4_xpm[] = {
"32 32 111 2",
"  	c #009DC4",
". 	c #AFCFE0",
"+ 	c #C4DAE7",
"@ 	c #C3DAE7",
"# 	c #BED7E5",
"$ 	c #CBDEE9",
"% 	c #C7DCE8",
"& 	c #A18891",
"* 	c #DC6D22",
"= 	c #B4817E",
"- 	c #7FB8D2",
"; 	c #9EC6DB",
"> 	c #D2E2ED",
", 	c #C6DCE7",
"' 	c #A17580",
") 	c #B4736F",
"! 	c #027CAC",
"~ 	c #D7E6EE",
"{ 	c #D1978C",
"] 	c #D4B2AD",
"^ 	c #90BFD7",
"/ 	c #51A8CA",
"( 	c #ABC0D3",
"_ 	c #E7C67E",
": 	c #FFE349",
"< 	c #E8C760",
"[ 	c #B9D4E3",
"} 	c #F2CF6E",
"| 	c #E7C984",
"1 	c #CEE0EA",
"2 	c #B5C5D6",
"3 	c #E6C57D",
"4 	c #F1CE6C",
"5 	c #EECF8B",
"6 	c #E6EEF4",
"7 	c #E4EDF3",
"8 	c #047DAC",
"9 	c #D7BD74",
"0 	c #EECB65",
"a 	c #F3D06F",
"b 	c #D7B769",
"c 	c #C4CFDC",
"d 	c #B9C7D7",
"e 	c #E6C882",
"f 	c #EFCC67",
"g 	c #B1C3D4",
"h 	c #ABCCDE",
"i 	c #ECF3F7",
"j 	c #087DAC",
"k 	c #EBCC87",
"l 	c #E8C459",
"m 	c #BCCAD9",
"n 	c #F1CF6D",
"o 	c #759ABA",
"p 	c #B0CFE0",
"q 	c #ABBFD3",
"r 	c #EFCB65",
"s 	c #E5C882",
"t 	c #BBC9D8",
"u 	c #A9CBDE",
"v 	c #E7C77E",
"w 	c #E8C761",
"x 	c #EBCD88",
"y 	c #B2C4D5",
"z 	c #EDC551",
"A 	c #A08892",
"B 	c #D7B4B0",
"C 	c #CBABA8",
"D 	c #A07581",
"E 	c #EDC44D",
"F 	c #F0D18C",
"G 	c #ECCD89",
"H 	c #F3C33E",
"I 	c #F9D444",
"J 	c #EEB439",
"K 	c #EEB539",
"L 	c #73B3D0",
"M 	c #D9E7EF",
"N 	c #D7BC74",
"O 	c #E6C57C",
"P 	c #88BBD4",
"Q 	c #CAC087",
"R 	c #BDC596",
"S 	c #C7D0DC",
"T 	c #899E9B",
"U 	c #BDBA85",
"V 	c #BBC497",
"W 	c #E1DDAF",
"X 	c #DCD4A2",
"Y 	c #BBB986",
"Z 	c #BAC398",
"` 	c #F4D656",
" .	c #EECC6A",
"..	c #E8CA85",
"+.	c #DCE9F1",
"@.	c #C6DBE8",
"#.	c #B2D0E0",
"$.	c #6F97B9",
"%.	c #E9CB86",
"&.	c #3783AF",
"*.	c #E4C47C",
"=.	c #F0CE6B",
"-.	c #DBE8F0",
";.	c #E8F0F5",
">.	c #BAD4E4",
",.	c #F2CF6D",
"'.	c #0D7DAC",
").	c #ACC0D3",
"!.	c #D1CD87",
"~.	c #82A0BE",
"{.	c #6693B7",
"    . +         . @               # #           $ $             ",
"  # % $   & * * * * * =             + $ = * * * * * &       - ; ",
"> # % , > ' * * * * * ) !             ~ { * * * * * ] ! ! $ ^ / ",
"        ( _ : : : : : < ! !           [ } : : : : : | 1 2 #     ",
"      ! ! 3 : : : : : < ! !           # 4 : : : : : 5 6 7 8     ",
"          9 : : : : : 0 !             > a : : : : : b c d 8 8 8 ",
"          e : : : : : f g #       h @ i } : : : : : b 8 8 d j j ",
"        # k : : : : : l # g m $ $ ~ $   n : : : : : 9     > o 8 ",
"  p # > # 9 : : : : : <     8 q q ~ #   r : : : : : 9       - - ",
"$ ~ 1   + s : : : : : <       ! t g 8 8 l : : : : : 9       / u ",
"p       m v : : : : : w       # 1   ! ! l : : : : : x $ > > ; ; ",
"      ! y 3 : : : : : z A & & B C & & D E : : : : : F .         ",
"      !   G : : : : : H * * * * * * * * H : : : : : b 8 ! 8 8 j ",
"          G : : : : : I J K K K K K K J I : : : : : 9 8 j j !   ",
"          k : : : : : : : : : : : : : : : : : : : : b !         ",
"          G : : : : : : : : : : : : : : : : : : : : b 8         ",
"        1 x : : : : : : : : : : : : : : : : : : : : b         L ",
"      M # N : : : : : : : : : : : : : : : : : : : : O       - P ",
"    > 1   Q : : : : : : : : : : : : : : : : : : : : O > $ # ; / ",
"  # +     R : : : : : : : : : : : : : : : : : : : : b 8 q S -   ",
"> . +     T U V V V V V V W X Y Y Y V Z ` : : : : : b 8 m d j j ",
"      > ! !               @ $ # g > $ $  .: : : : : b >       ! ",
"      d ( !               > [ # g ! . . n : : : : : O #       ! ",
"      $ .   !         # $ >     ! ! 8 8 l : : : : : ..#     !   ",
"      ~ +.$ g g   # +.1 @.#.    8 8 8 8 < : : : : : x 1 $ 2 $.. ",
"      $ . . g g $ +         8 8 8       < : : : : : %.# . q &.  ",
"      $ .   ! ! q d g   ! j 8 8 !       < : : : : : *.    j j j ",
". .   $ .   ! ! ! g d d !               =.: : : : : b 8 8 8 8 ! ",
"$ $ -.;.>.  ! ! 1 > #.d 2 g #.        # ,.: : : : : b '.j !     ",
"    . ).t   ! ! 1       g t ).      >   !.: : : : : V   j       ",
"      ! m t ! m       ! ! ! ! d m d     !.: : : : : V   j       ",
"        / $.o o       !     / ~.{.!       j       - -   j       "};
