/* XPM */
static char * n5_xpm[] = {
"32 32 172 2",
"  	c #009DC4",
". 	c #AFCFE0",
"+ 	c #C4DAE7",
"@ 	c #319BC0",
"# 	c #5598B9",
"$ 	c #B5C6D3",
"% 	c #C6D0DA",
"& 	c #C2CDD8",
"* 	c #CDD4DC",
"= 	c #BED7E5",
"- 	c #C7DCE8",
"; 	c #CBDEE9",
"> 	c #8A8EA2",
", 	c #DC6D22",
"' 	c #DB6D27",
") 	c #DC6F29",
"! 	c #DC6E29",
"~ 	c #7FB8D2",
"{ 	c #9EC6DB",
"] 	c #D2E2ED",
"^ 	c #C6DCE7",
"/ 	c #D6C2C3",
"( 	c #8B778E",
"_ 	c #027CAC",
": 	c #90BFD7",
"< 	c #51A8CA",
"[ 	c #C2ABAB",
"} 	c #E18429",
"| 	c #D5C3BE",
"1 	c #B5C5D6",
"2 	c #BFA87B",
"3 	c #FFE349",
"4 	c #FFE249",
"5 	c #EDD5AA",
"6 	c #E4EDF3",
"7 	c #047DAC",
"8 	c #C0B389",
"9 	c #E1C79A",
"0 	c #B9C7D7",
"a 	c #A6AB90",
"b 	c #087DAC",
"c 	c #DFCAA0",
"d 	c #A2BAA5",
"e 	c #759ABA",
"f 	c #B0CFE0",
"g 	c #FEE34B",
"h 	c #FEE24A",
"i 	c #FFE34C",
"j 	c #FFE34B",
"k 	c #A1BAA6",
"l 	c #D7E6EE",
"m 	c #CEE0EA",
"n 	c #E1CBA0",
"o 	c #F5D351",
"p 	c #5DA7BB",
"q 	c #63A8BA",
"r 	c #638FA4",
"s 	c #C5CDCD",
"t 	c #BDC7C9",
"u 	c #648FA4",
"v 	c #C8D9D9",
"w 	c #3BA1C1",
"x 	c #A9CBDE",
"y 	c #DEC498",
"z 	c #F3D152",
"A 	c #BCCAD9",
"B 	c #B2C4D5",
"C 	c #ABCCDE",
"D 	c #DBC294",
"E 	c #F6D048",
"F 	c #B4817F",
"G 	c #B4817E",
"H 	c #D8A498",
"I 	c #D09D92",
"J 	c #B4736F",
"K 	c #439ABD",
"L 	c #C1CCDB",
"M 	c #A9B9A0",
"N 	c #F7CF42",
"O 	c #5698B9",
"P 	c #ABCBDD",
"Q 	c #D1744D",
"R 	c #D58E79",
"S 	c #B9D3E2",
"T 	c #A3BBA5",
"U 	c #FCDC47",
"V 	c #F3C33E",
"W 	c #DF7C27",
"X 	c #DB815C",
"Y 	c #51A4BE",
"Z 	c #DDE2D6",
"` 	c #DDD37C",
" .	c #DC6F22",
"..	c #B3817F",
"+.	c #EFE3A4",
"@.	c #FDE359",
"#.	c #FBDA46",
"$.	c #C47A69",
"%.	c #8A788F",
"&.	c #73B3D0",
"*.	c #D9E7EF",
"=.	c #32A0C2",
"-.	c #45A2BF",
";.	c #F7DF67",
">.	c #8C8EA1",
",.	c #88BBD4",
"'.	c #227FAB",
").	c #D7C975",
"!.	c #E7D367",
"~.	c #F3C23E",
"{.	c #2F80AA",
"].	c #5FA7BB",
"^.	c #E9A434",
"/.	c #A18C87",
"(.	c #ABBFD3",
"_.	c #C7D0DC",
":.	c #47A3BF",
"<.	c #BBC497",
"[.	c #E1DDAF",
"}.	c #DCD4A2",
"|.	c #BBB986",
"1.	c #BBC498",
"2.	c #F9DA4D",
"3.	c #C0AA7A",
"4.	c #327BA9",
"5.	c #557AA2",
"6.	c #4999BC",
"7.	c #C3DAE7",
"8.	c #B1C3D4",
"9.	c #F6D357",
"0.	c #E6CFA4",
"a.	c #BEA8AE",
"b.	c #C37B6A",
"c.	c #B9D4E3",
"d.	c #F7D458",
"e.	c #C1B4B9",
"f.	c #CD7657",
"g.	c #C9BBBE",
"h.	c #D1BFC0",
"i.	c #8B8EA1",
"j.	c #8B788E",
"k.	c #89778F",
"l.	c #F6D14E",
"m.	c #DEC8C2",
"n.	c #E07F28",
"o.	c #E4CEA3",
"p.	c #6F97B9",
"q.	c #D3D2B2",
"r.	c #DFC99F",
"s.	c #3783AF",
"t.	c #D1D7BC",
"u.	c #FAD745",
"v.	c #E9A333",
"w.	c #E9A534",
"x.	c #D1D7BB",
"y.	c #A2AB92",
"z.	c #DBE8F0",
"A.	c #E8F0F5",
"B.	c #C4D6D9",
"C.	c #D9D180",
"D.	c #A3AC92",
"E.	c #ACC0D3",
"F.	c #BBC9D8",
"G.	c #56A5BD",
"H.	c #DDCD70",
"I.	c #EFDC87",
"J.	c #81B0B2",
"K.	c #4986A8",
"L.	c #F4DE79",
"M.	c #F0E39F",
"N.	c #82A0BE",
"O.	c #6693B7",
"    . + @ # # # $ % # # # # # # # & & # # # # # * * # @         ",
"  = - ; > , ' ' ' ) ! ' ' ' ' ' ' ' ! ) ' ' ' ' ' ) , >     ~ { ",
"] = - ^ / , , , , , , , , , , , , , , , , , , , , , , ( _ ; : < ",
"        [ } } } } } } } } } } } } } } } } } } } } } } | 1 =     ",
"      _ 2 3 4 4 4 4 4 4 4 4 4 4 4 4 4 4 4 4 4 4 4 4 3 5 6 7     ",
"        8 3 3 3 3 3 3 3 3 3 3 3 3 3 3 3 3 3 3 3 3 3 3 9 0 7 7 7 ",
"        8 3 3 3 3 3 3 3 3 3 3 3 3 3 3 3 3 3 3 3 3 3 3 a 7 0 b b ",
"        c 3 3 3 3 3 3 3 3 3 3 3 3 3 3 3 3 3 3 3 3 3 3 d   ] e 7 ",
"  f = ] c 3 3 3 3 3 3 g g g h g g i i g j j h h g g 3 k     ~ ~ ",
"; l m   n 3 3 3 3 3 o p q q q r s t u u u t v u r q q w     < x ",
"f       y 3 3 3 3 3 z         = m   _ _ 7 7   A B C m ; ] ] { { ",
"      _ D 3 3 3 3 3 E F G G G H I G G J J F K   0 L 6 .         ",
"      _ M 3 3 3 3 3 N , , , , , , , , , , , O P C   7 7 _ 7 7 b ",
"        d 3 3 3 3 3 N , , , , , , , , , , , Q R S     7 b b _   ",
"        T 3 3 3 3 3 U V V V V V V V V V V V W X O K _ _         ",
"        Y Z ` 3 3 3 3 3 3 3 3 3 3 3 3 3 3 3 }  ., ..7 7         ",
"        m m +.@.i 3 3 3 3 3 3 3 3 3 3 3 3 3 #.N  .$.%.O       &.",
"      *.=   =.-.;.3 3 3 3 3 3 3 3 3 3 3 3 3 3 #.} W , >.    ~ ,.",
"    ] m       '.).!.3 3 3 3 3 3 3 3 3 3 3 3 3 3 3 ~., / ; = { < ",
"  = +       _ {.  ].3 3 3 3 3 3 3 3 3 3 3 3 3 3 3 N ^./.(._.~   ",
"] . +     _ _     :.<.<.<.[.}.|.|.|.<.<.1.2.3 3 3 3 3 3.A 0 b b ",
"      ] 4.5.# # # # 6.    7.; = 8.] ; ; . 9.3 3 3 3 3 0.      _ ",
"      0 a., ' ' ' ' b.    ] c.= 8._ . . ; d.3 3 3 3 3 c       _ ",
"      ; e., , , , , f.g.h./ i.i.( ( j.j.k.l.3 3 3 3 3 c     _   ",
"      l m.} } } } } n., , , , , , , , , , N 3 3 3 3 3 o.; 1 p.. ",
"      ; q.3 4 4 4 4 N , , , , , , , , , , N 3 3 3 3 3 r.. (.s.  ",
"      ; t.3 3 3 3 3 u.v.w.w.w.w.w.w.w.w.v.u.3 3 3 3 3 M   b b b ",
". .   ; x.3 3 3 3 3 3 3 3 3 3 3 3 3 3 3 3 3 3 3 3 3 3 y.7 7 7 _ ",
"; ; z.A.B.C.3 3 3 3 3 3 3 3 3 3 3 3 3 3 3 3 3 3 3 3 3 D.b _     ",
"    . E.F.G.H.3 3 3 3 3 3 3 3 3 3 3 3 3 3 3 3 3 3 I.J.Y b       ",
"      _ A F.K.L.3 3 3 3 3 3 3 3 3 3 3 3 3 3 3 3 3 M.    b       ",
"        < p.e e       _     < N.O._       b       ~ ~   b       "};
