/* XPM */
static char * n6_xpm[] = {
"32 32 182 2",
"  	c #009DC4",
". 	c #AFCFE0",
"+ 	c #C4DAE7",
"@ 	c #B5C7D5",
"# 	c #C6D0DA",
"$ 	c #5598B9",
"% 	c #C2CDD8",
"& 	c #4F99BA",
"* 	c #CBDEE9",
"= 	c #BED7E5",
"- 	c #C7DCE8",
"; 	c #CF7552",
"> 	c #DC6F29",
", 	c #DC6E29",
"' 	c #DB6D27",
") 	c #D2E2ED",
"! 	c #7FB8D2",
"~ 	c #9EC6DB",
"{ 	c #C6DCE7",
"] 	c #027CAC",
"^ 	c #717999",
"/ 	c #8C8EA1",
"( 	c #D47244",
"_ 	c #DC6D22",
": 	c #7194AF",
"< 	c #90BFD7",
"[ 	c #51A8CA",
"} 	c #ABC0D3",
"| 	c #B9C7D7",
"1 	c #B5736E",
"2 	c #E08128",
"3 	c #E18429",
"4 	c #D29D92",
"5 	c #B8D3E3",
"6 	c #CEE0EA",
"7 	c #B5C5D6",
"8 	c #CE9388",
"9 	c #D77D59",
"0 	c #FBD845",
"a 	c #FFE249",
"b 	c #D8815F",
"c 	c #DCA799",
"d 	c #E4D9DA",
"e 	c #E4EDF3",
"f 	c #047DAC",
"g 	c #8B8EA1",
"h 	c #E5942E",
"i 	c #EAA634",
"j 	c #FCDD47",
"k 	c #FFE349",
"l 	c #E9A636",
"m 	c #E59430",
"n 	c #CDB4B5",
"o 	c #F3C43E",
"p 	c #D7C673",
"q 	c #557BA2",
"r 	c #327CA9",
"s 	c #087DAC",
"t 	c #D8C4AB",
"u 	c #F0DC65",
"v 	c #D2CE86",
"w 	c #84B0B1",
"x 	c #759ABA",
"y 	c #B0CFE0",
"z 	c #DFCAA0",
"A 	c #FEE34B",
"B 	c #FEE24A",
"C 	c #FFE34C",
"D 	c #FFE34B",
"E 	c #FFE34A",
"F 	c #A2BAA5",
"G 	c #D7E6EE",
"H 	c #E1CBA0",
"I 	c #F5D351",
"J 	c #5DA7BB",
"K 	c #63A8BA",
"L 	c #638FA4",
"M 	c #C5CDCD",
"N 	c #BDC7C9",
"O 	c #648FA4",
"P 	c #C8D9D9",
"Q 	c #3BA1C1",
"R 	c #A9CBDE",
"S 	c #DEC498",
"T 	c #F3D152",
"U 	c #BCCAD9",
"V 	c #B2C4D5",
"W 	c #ABCCDE",
"X 	c #DBC294",
"Y 	c #F6D048",
"Z 	c #B4817F",
"` 	c #B4817E",
" .	c #D8A498",
"..	c #D09D92",
"+.	c #B4736F",
"@.	c #439ABD",
"#.	c #C1CCDB",
"$.	c #C0B389",
"%.	c #F7CF42",
"&.	c #5698B9",
"*.	c #ABCBDD",
"=.	c #D1744D",
"-.	c #D58E79",
";.	c #B9D3E2",
">.	c #FCDC47",
",.	c #F3C33E",
"'.	c #DF7C27",
").	c #DB815C",
"!.	c #DC6F22",
"~.	c #B3817F",
"{.	c #E4CEA3",
"].	c #FBDA46",
"^.	c #C47A69",
"/.	c #8A788F",
"(.	c #73B3D0",
"_.	c #D9E7EF",
":.	c #88BBD4",
"<.	c #F3C23E",
"[.	c #D6C2C3",
"}.	c #E9A434",
"|.	c #A18C87",
"1.	c #ABBFD3",
"2.	c #C7D0DC",
"3.	c #F9DA4D",
"4.	c #BBC498",
"5.	c #BBC497",
"6.	c #E1DDAF",
"7.	c #DCD4A2",
"8.	c #BBB986",
"9.	c #C0AA7A",
"0.	c #C0A97B",
"a.	c #F3D052",
"b.	c #C3DAE7",
"c.	c #B1C3D4",
"d.	c #F6D357",
"e.	c #E6CFA4",
"f.	c #D9C094",
"g.	c #B9D4E3",
"h.	c #F7D458",
"i.	c #DAC69C",
"j.	c #F5D04D",
"k.	c #C9BBBE",
"l.	c #D1BFC0",
"m.	c #8B778E",
"n.	c #8B788E",
"o.	c #89778F",
"p.	c #F6D14E",
"q.	c #DFC99F",
"r.	c #E9DDB9",
"s.	c #E3D8B4",
"t.	c #6F97B9",
"u.	c #D1D7BC",
"v.	c #D8DBC0",
"w.	c #3783AF",
"x.	c #D1D7BB",
"y.	c #FAD745",
"z.	c #E9A333",
"A.	c #E9A534",
"B.	c #A3BBA5",
"C.	c #C1D3CF",
"D.	c #EAD565",
"E.	c #F8E47E",
"F.	c #7696A0",
"G.	c #DBE8F0",
"H.	c #E8F0F5",
"I.	c #BAD4E4",
"J.	c #D2C679",
"K.	c #EADB93",
"L.	c #0D7DAC",
"M.	c #ACC0D3",
"N.	c #BBC9D8",
"O.	c #6C92A2",
"P.	c #869D9B",
"Q.	c #FBE368",
"R.	c #F4DC59",
"S.	c #C8CECB",
"T.	c #BDCAD8",
"U.	c #F0DC64",
"V.	c #F0DA5D",
"W.	c #169EC3",
"X.	c #82A0BE",
"Y.	c #6693B7",
"    . +         @ # $ $ $ $ $ $ $ % % $ $ $ $ & * *             ",
"  = - *         ; > , ' ' ' ' ' ' ' , > ' ' ' ;   )         ! ~ ",
") = - { ) ] ^ / ( _ _ _ _ _ _ _ _ _ _ _ _ _ _ ( / : * ] ] * < [ ",
"        } | 1 _ 2 3 3 3 3 3 3 3 3 3 3 3 3 3 3 2 _ 4 5 6 7 =     ",
"      ] ^ 8 9 _ 0 a a a a a a a a a a a a a a 0 _ b c d e f     ",
"        g _ h i j k k k k k k k k k k k k k k j l m _ n | f f f ",
"        g _ o k k k k k k k k k k k k k k k k k k p q r f | s s ",
"        t o 0 k k k k k k k k k k k k k k k k k k u v w   ) x f ",
"  y = ) z k k k k k k A A A B A A C C A D D B B A E k F     ! ! ",
"* G 6   H k k k k k I J K K K L M N O O O N P O L K K Q     [ R ",
"y       S k k k k k T         = 6   ] ] f f   U V W 6 * ) ) ~ ~ ",
"      ] X k k k k k Y Z ` ` `  ...` ` +.+.Z @.  | #.e .         ",
"      ] $.k k k k k %._ _ _ _ _ _ _ _ _ _ _ &.*.W   f f ] f f s ",
"        $.k k k k k %._ _ _ _ _ _ _ _ _ _ _ =.-.;.    f s s ]   ",
"        $.k k k k k >.,.,.,.,.,.,.,.,.,.,.,.'.).&.@.] ]         ",
"        $.k k k k k k k k k k k k k k k k k 3 !._ ~.f f         ",
"        {.k k k k k k k k k k k k k k k k k ].%.!.^./.&.      (.",
"      _.z k k k k k k k k k k k k k k k k k k ].3 '._ /     ! :.",
"    ) 6 $.k k k k k k k k k k k k k k k k k k k k <._ [.* = ~ [ ",
"  = +   $.k k k k k k k k k k k k k k k k k k k k %.}.|.1.2.!   ",
") . +   $.k k k k k 3.4.5.6.7.8.8.8.5.5.4.3.k k k k k 9.U | s s ",
"      ) 0.k k k k k a.    b.* = c.) * * . d.k k k k k e.      ] ",
"      | f.k k k k k T     ) g.= c.] . . * h.k k k k k z       ] ",
"      * i.k k k k k j.k.l.[.g g m.m.n.n.o.p.k k k k k q.    ]   ",
"      G r.k k k k k %._ _ _ _ _ _ _ _ _ _ %.k k k k k s.* 7 t.. ",
"      * u.k k k k k %._ _ _ _ _ _ _ _ _ _ %.k k k k k v.. 1.w.  ",
"      * x.k k k k k y.z.A.A.A.A.A.A.A.A.z.y.k k k k k B.  s s s ",
". .   * C.5.D.k k k k k k k k k k k k k k k k k k E.8.F.f f f ] ",
"* * G.H.I.  J.k k k k k k k k k k k k k k k k k k K.] L.s ]     ",
"    . M.N.  O.P.Q.k k k k k k k k k k k k k k R.P.S.    s       ",
"      ] U N.] T.U.k k k k k k k k k k k k k k V.W.)     s       ",
"        [ t.x x       ]     [ X.Y.]       s       ! !   s       "};
