/* XPM */
static char *cd3fae5501b14abab9247984b62cfc1e[] = {
/* columns rows colors chars-per-pixel */
"28 28 66 1 ",
"  c #A04800",
". c #A24C00",
"X c #BD7C31",
"o c #ED6A00",
"O c #EE6E00",
"+ c #F07A00",
"@ c #E56F1F",
"# c #DF742F",
"$ c #DD7532",
"% c #DA7736",
"& c #DA7838",
"* c #E47124",
"= c #E0742C",
"- c #D47D41",
"; c #CC7A50",
": c #F18000",
"> c #F18500",
", c #F19F18",
"< c #F6A100",
"1 c #F8AB00",
"2 c #F5A00A",
"3 c #DAA937",
"4 c #DFB03B",
"5 c #FBC000",
"6 c #FCC500",
"7 c #FDCB00",
"8 c #FDCD00",
"9 c #FED100",
"0 c #FFD500",
"q c #FFD800",
"w c #FFDA10",
"e c #FFDD1D",
"r c #FFDD21",
"t c #FFDE27",
"y c #FFDF2D",
"u c #CD854E",
"i c #D08249",
"p c #D09C50",
"a c #D7AA5D",
"s c #C68763",
"d c #C58A67",
"f c #C58B68",
"g c #CA9776",
"h c #CF9E7D",
"j c #DAAF62",
"k c #C9AE79",
"l c #EECA4A",
"z c #F7D852",
"x c #F3D55E",
"c c #FFE346",
"v c #FFE44B",
"b c #FFE44E",
"n c #FFE551",
"m c #FFE556",
"M c #FFE65A",
"N c #FFEA75",
"B c #EFBC97",
"V c #DECB90",
"C c #E3D094",
"Z c #E7D597",
"A c #F1DE9E",
"S c #FFF19F",
"D c #FFC9A2",
"F c #FBE7A5",
"G c #FDE9A6",
"H c #FFF1A1",
/* pixels */
"DDDDDDDDGGGGGGGGGGGGDDDDDDDD",
"DDDDDDDDGGGGGGGGGGGGDDDDDDDD",
"GGGGGGDDGGGGGGGGGGGGGGDDDDDD",
"GGGGGGDDGGGGGGGGGGGGGGDDDDDD",
"GGGGGGGGDDGGGGGGGGGGGGDDDDDD",
"GGGGGGGGDDGGGGGGGGGGGGDDDDDD",
"GGGGGGGGGGDDGGGGGGGGDDDDDDDD",
"GGGGGGGGGGDDGGGGGGGGDDDDDDDD",
"GGGGGGGGGGDDDDDDDDDDDDDDDDDD",
"GGGGGGGGGGDDDDDDDDDDDDDDDDDD",
"GGGGGGG@ooooooooooo%DDDDDDDD",
"GGGGGGo8qqqqqqqqqqqqqoooDDDD",
"GGGGui6qqqqqtceqqqqqq757;hDD",
"GGGGooqqqqqqyMrqqqqqqqqqogDD",
"GGF#78qqqqqqyMmbnqqqqqqq7,-G",
"GAC+qqqqqqqqyMMMMwwwqqqqq<oG",
"DdOqqqqqqqqqyMMMMMMvqqqqq<oG",
"DsoqqqqqqqqqyMMMMMMnqqqqqqqo",
"DfOqqqqqqqq.pSNMMMMl HSqqqqo",
"Dsoqqqqqqqq XaxMMMMz jaqqqqo",
"DfOqqqqqqqq   3MMMMl   qqqqo",
"Dsoqqqqqqqq   4MMMMz   qqqqo",
"DfOqqqqqqqq   3MMMMl   qqqqo",
"DsoqqqqqqqqqyMMMMMMnqqqqqqqo",
"DfOqqqqqqqqqqqqqqqqqqqqqqqqo",
"DBV:>:qqqqqqqqqqqqqqqqqqq1>Z",
"GGF*$=98980808089899898082&G",
"GGGGGGoooooooooooooooooookGG"
};
