/* XPM */
static char *_520f4ef27bd4cd899d53d03d961420d[] = {
/* columns rows colors chars-per-pixel */
"32 32 56 1 ",
"  c #027CAC",
". c #047DAC",
"X c #087DAC",
"o c #0D7DAC",
"O c #3783AF",
"+ c #6693B7",
"@ c #6F97B9",
"# c #759ABA",
"$ c #009DC4",
"% c #51A8CA",
"& c #73B3D0",
"* c #7FB8D2",
"= c #82A0BE",
"- c #88BBD4",
"; c #90BFD7",
": c #A6BCD1",
"> c #ABBFD3",
", c #9EC6DB",
"< c #ABC0D3",
"1 c #ACC0D3",
"2 c #A9CBDE",
"3 c #ABCCDE",
"4 c #B1C3D4",
"5 c #B2C4D5",
"6 c #B5C5D6",
"7 c #B9C7D7",
"8 c #BBC9D8",
"9 c #BCCAD9",
"0 c #BFCCDA",
"q c #AFCFE0",
"w c #B0CFE0",
"e c #B2D0E0",
"r c #B8D3E3",
"t c #B9D4E3",
"y c #BAD4E4",
"u c #BED7E5",
"i c #C1CCDB",
"p c #C4CFDC",
"a c #C7D0DC",
"s c #C3DAE7",
"d c #C4DAE7",
"f c #C6DCE7",
"g c #C6DBE8",
"h c #C7DCE8",
"j c #CBDEE9",
"k c #CEE0EA",
"l c #D2E2ED",
"z c #D7E6EE",
"x c #D9E7EF",
"c c #DBE8F0",
"v c #DCE9F1",
"b c #E2EDF3",
"n c #E4EDF3",
"m c #E6EEF4",
"M c #E8F0F5",
"N c #ECF3F7",
/* pixels */
"$$qd$$$$qs$$$$$$$uu$$$$$jj$$$$$$",
"$uhj$$$$$jq$$$$$$$dj$$$$$l$$$$*,",
"luhfl  $$jq  $$$$$$z9 $$$$j  j;%",
"$$$$<7 $uu$$  $$$$$tl  uuurk6u$$",
"$$$  55 uv$$  $$$$$udj94uuvmn.$$",
"$$$$$$j94$l> $$$$$$lzq .$$.p7...",
"$$$$$wlu  $74u$$$3sNl$.......7XX",
"$$$$uj$$$   u49jjzj$jq.. $$$$l#.",
"$wulu$$$   $$$.>>zu$44X.$$$$$$**",
"jzk$dq$  $$$$$$ 84...4u. $$$$$%2",
"w$$$98  $$$$$$$uk$  ..$953kjll,,",
"$$$ 55$  $$$$$$lt$$..$$$7inq$$$$",
"$$$ $l$  $$$$$klt$ .$$$33$.. ..X",
"$$$$$l$  $$$$$jquu. $$$tt$$.XX $",
"$$$$$jw$ $$$$$l$$784q$$l$$  $$$$",
"$$$$$l$$ $$$$qj$$.>47lvu$$..$$$$",
"$$$$kkll74q$$qj$$.$$..44$$X$$$$&",
"$$$xu$$$>ujj$uu$ .$$$ 84444$$$*-",
"$$lk$$$    >9:l$ .$$$$zxu44lju,%",
"$ud$$$  $$$  9.$  $$$$jq$ ..>a*$",
"lqd$$  $$$$$$u4. .$$$$jq$ ..97XX",
"$$$l  $$$$$$$sju4ljjqql$$  l$$$ ",
"$$$7< $$$$$$$ltu4 qqjkk$$ 4u$$$ ",
"$$$jq$ $$$$ujl$$  .. >a   uu$$ $",
"$$$zvj44$uvkge$$....$ 49  kkj6@q",
"$$$jqq44jd$$$$...$$$$$$l64suq>O$",
"$$$jq$  >74$ X.. $$$$$kzb0>$$XXX",
"qq$jq$   477 $$$$$$$ulk$$z .... ",
"jjcMy$  kle764e$$$$uk$$$$9 oX $$",
"$$q18$  k$$$481$$$l$$$$. 9$$X$$$",
"$$$ 98 9$$$    797$$$$ X$l$$X$$$",
"$$$$%@##$$$ $$%=+ $$$X$$$**$X$$$"
};
