/* XPM */
static char * t00_xpm[] = {
"28 28 106 2",
"  	c #FFC9A2",
". 	c #FFCE9A",
"+ 	c #FDE9A6",
"@ 	c #FFCD9B",
"# 	c #FDE9A1",
"$ 	c #FDE9A5",
"% 	c #FFCD9C",
"& 	c #FDE9A0",
"* 	c #FDE9A4",
"= 	c #FFCAA0",
"- 	c #FFCB9E",
"; 	c #FFC9A1",
"> 	c #FAE7A4",
", 	c #FFCD9A",
"' 	c #CCB979",
") 	c #FFD800",
"! 	c #ED6A00",
"~ 	c #CBB979",
"{ 	c #F4E0A0",
"] 	c #F6E2A1",
"^ 	c #E6B591",
"/ 	c #EF7900",
"( 	c #CB8851",
"_ 	c #DCAE43",
": 	c #D8BC4E",
"< 	c #FCC500",
"[ 	c #FBC200",
"} 	c #FCC800",
"| 	c #FBC000",
"1 	c #FDC900",
"2 	c #D67C3F",
"3 	c #CB8852",
"4 	c #D9C58B",
"5 	c #FBBD00",
"6 	c #D4C087",
"7 	c #CBB17B",
"8 	c #D5743F",
"9 	c #FED200",
"0 	c #FDCA00",
"a 	c #FFE44C",
"b 	c #FFE035",
"c 	c #FED300",
"d 	c #F3CF24",
"e 	c #E3C33F",
"f 	c #E3B38F",
"g 	c #FAE6A4",
"h 	c #E4D194",
"i 	c #C6A771",
"j 	c #F18200",
"k 	c #FFDA10",
"l 	c #FFDB12",
"m 	c #FFDA0D",
"n 	c #FFE346",
"o 	c #FFE031",
"p 	c #D6AA84",
"q 	c #E8B792",
"r 	c #D5A483",
"s 	c #F6A100",
"t 	c #FFE65A",
"u 	c #FFD803",
"v 	c #ECC630",
"w 	c #ED6B05",
"x 	c #F39000",
"y 	c #FFD903",
"z 	c #FFE13B",
"A 	c #EE6B05",
"B 	c #FFD801",
"C 	c #FFD80D",
"D 	c #FFD911",
"E 	c #FED80F",
"F 	c #FFE659",
"G 	c #FCE258",
"H 	c #EC6C0A",
"I 	c #F2DF9F",
"J 	c #FFDF40",
"K 	c #FEE55A",
"L 	c #FBE7A5",
"M 	c #FED400",
"N 	c #FFD700",
"O 	c #FFE351",
"P 	c #F2DF9E",
"Q 	c #FFDB27",
"R 	c #FFE454",
"S 	c #ED6C00",
"T 	c #FDE459",
"U 	c #EF7500",
"V 	c #ED6D00",
"W 	c #FFE138",
"X 	c #EF7400",
"Y 	c #FFDC18",
"Z 	c #FFDA0F",
"` 	c #FFDC1A",
" .	c #EE6F00",
"..	c #E47124",
"+.	c #FDCB00",
"@.	c #FFD500",
"#.	c #FDCD00",
"$.	c #FFD600",
"%.	c #FDCE00",
"&.	c #FED007",
"*.	c #FEDE54",
"=.	c #FEDC53",
"-.	c #FED100",
";.	c #DE7C32",
">.	c #EA6D12",
",.	c #FBBE00",
"    .           + + + + + + + + + + + +                 ",
"      @         + + + + + + + + + + + +                 ",
"+ + + + # +     + + + + + + + + + + + + + +             ",
"+ + + + + $ %   + + + + + + + + + + + + + +             ",
"+ + + + + + + &     + + + + + + + + + + + +             ",
"+ + + + + + + + @   + + + + + + + + + + + +             ",
"+ + + + + + + + + * =   + + + + + + + +                 ",
"+ + + + + + + + + +   - # $ + + + + + +                 ",
"+ + + + + + + + + +             @ - ;                   ",
"+ + + + + + > + + +                           @ , @ @ @ ",
"+ + + + + ' ) !     + + + + + + + + + +                 ",
"+ + + + + ~ ) )     { ! ! ! ! ! ! ! + +                 ",
"+ + + + + ] ^ / ( _ : < < [ } | 1 | 2 3 4 +             ",
"+ + + + + +   ! ! 5 ) ) ) ) ) ) ) ) ! ! 6 +             ",
"+ + + + + 7 8 9 0 ) ) ) ) ) ) a b ) c 1 d e f   + + + + ",
"+ + + g h i j ) ) ) ) ) k l m n o ) ) ) ) ) p q + + + + ",
"      r ! s ) ) ) ) ) ) t t t u ) ) ) ) ) ) ) v + + + + ",
"    w x ) ) ) ) ) ) y t t t t t z ) ) ) ) ) ) ) ) + + + ",
"  A 9 ) ) ) B C D E F t t t t t t G ) ) ) ) ) ) ) H I + ",
"  ! ) ) ) ) ) ) ) J t t t t t K t t ) ) ) ) ) ) ) ! L + ",
"  ! M ) ) ) N ) O t t t t t t t t t ) ) ) ) ) ) ) ! P + ",
"  ! ) ) ) ) ) Q R t t t t t t t t t t ) ) ) ) ) ) ) S + ",
"  ! M ) ) ) ) t t t t t t t t t t T t ) ) ) ) ) ) ) U + ",
"  ! ) ) ) ) ) t t t t t t t t t t t ) ) ) ) ) ) ) ) V + ",
"  ! M ) ) ) ) ) ) ) t t t t t t W ) ) ) ) ) ) ) ) ) X + ",
"  ! N ) ) ) ) ) Y Z ` t t t l Y m ) ) ) ) ) ) ) ) )  .+ ",
"+ ..+.@.#.$.#.@.%.c &.*.*.=.c %.@.#.$.#.@.%.) ) ) -.;.+ ",
"+ + >.! ! ! ! ! ! ! ! ! ! ! ! ! ! ! ! ! ! ! ,.) ) ! ] + "};
