/* XPM */
static char *_e863861dcd349db90c9e192ee94fe2b[] = {
/* columns rows colors chars-per-pixel */
"32 68 188 2 ",
"   c #4C1840",
".  c #532C49",
"X  c #73314C",
"o  c #74344E",
"O  c #723550",
"+  c #6C4964",
"@  c #A34C5D",
"#  c #AB4D5B",
"$  c #AF485D",
"%  c #A94C5E",
"&  c #B3475E",
"*  c #A4575D",
"=  c #875F6D",
"-  c #9E5163",
";  c #A04765",
":  c #A34E63",
">  c #A64964",
",  c #A94C66",
"<  c #B94C69",
"1  c #AC5065",
"2  c #A85368",
"3  c #B15061",
"4  c #A14F73",
"5  c #8B6472",
"6  c #8C6573",
"7  c #8A6675",
"8  c #8E6976",
"9  c #8F6C78",
"0  c #DD8776",
"q  c #DE8879",
"w  c #DF8E7B",
"e  c #DA887C",
"r  c #E68467",
"t  c #E18077",
"y  c #E78777",
"u  c #EC8576",
"i  c #E38B77",
"p  c #E78B76",
"a  c #E28E74",
"s  c #E58D77",
"d  c #EA8A71",
"f  c #E5877B",
"g  c #ED8278",
"h  c #E9877A",
"j  c #ED8779",
"k  c #E8857F",
"l  c #EC857C",
"z  c #E08E79",
"x  c #E78C79",
"c  c #E38A7C",
"v  c #E68B7C",
"b  c #E78B7E",
"n  c #E28F7D",
"m  c #E58F7E",
"M  c #E88B7A",
"N  c #EA8D7B",
"B  c #EA8A7C",
"V  c #EF897D",
"C  c #EA8E7F",
"Z  c #F2887B",
"A  c #E2907B",
"S  c #E3967A",
"D  c #E59479",
"F  c #E3927F",
"G  c #E9927F",
"H  c #747A93",
"J  c #826E81",
"K  c #877983",
"L  c #9A7E87",
"P  c #1794BA",
"I  c #2D93B8",
"U  c #2999BF",
"Y  c #3E94B8",
"T  c #4C91B1",
"R  c #6386A3",
"E  c #6397B6",
"W  c #6D9EBA",
"Q  c #709FB9",
"!  c #079BC2",
"~  c #039CC3",
"^  c #079CC3",
"/  c #019DC4",
"(  c #079DC4",
")  c #0B9CC3",
"_  c #0D9DC4",
"`  c #109BC2",
"'  c #129CC3",
"]  c #189BC2",
"[  c #229DC3",
"{  c #299DC3",
"}  c #3E9DC1",
"|  c #34A0C5",
" . c #4AA1C3",
".. c #7EB1CB",
"X. c #86818E",
"o. c #9A818A",
"O. c #868998",
"+. c #A68F96",
"@. c #A9939A",
"#. c #AB979D",
"$. c #A2989F",
"%. c #AD999F",
"&. c #BEA29E",
"*. c #AD99A0",
"=. c #AF9FA7",
"-. c #A9A4AF",
";. c #B2A0A6",
":. c #B1A4AB",
">. c #B7A8AD",
",. c #B9AAAE",
"<. c #B6AAB0",
"1. c #BCADB2",
"2. c #AFB3BC",
"3. c #B5B3B8",
"4. c #BFBABE",
"5. c #DE8982",
"6. c #DD8F82",
"7. c #DF9280",
"8. c #DF9D87",
"9. c #E38585",
"0. c #E08B86",
"q. c #EF8A82",
"w. c #EF8F81",
"e. c #E4838C",
"r. c #E08B88",
"t. c #E68889",
"y. c #F18885",
"u. c #E79180",
"i. c #EEB496",
"p. c #C5BABF",
"a. c #C8BCBF",
"s. c #FFBBA4",
"d. c #FFCC94",
"f. c #FAC39A",
"g. c #FCC79B",
"h. c #FFC29C",
"j. c #FBC49F",
"k. c #FFCA9E",
"l. c #FBCF9E",
"z. c #F5E49F",
"x. c #FFC3A3",
"c. c #FFC4A2",
"v. c #FFC4A5",
"b. c #FFC9A2",
"n. c #FFCDA0",
"m. c #FFCCA4",
"M. c #FFC6A9",
"N. c #FFC8A9",
"B. c #FFCCA8",
"V. c #FFC9AD",
"C. c #FED6A3",
"Z. c #FADEAC",
"A. c #FFDCB1",
"S. c #FFE4A2",
"D. c #FBEAA2",
"F. c #F9EDA3",
"G. c #FBEAA4",
"H. c #FDE9A6",
"J. c #FBE7A8",
"K. c #FDE7AB",
"L. c #F4EBA8",
"P. c #FEEFAA",
"I. c #FFEBAF",
"U. c #80AEC6",
"Y. c #91B6CC",
"T. c #A1BACC",
"R. c #A8BDCD",
"E. c #B0B7C1",
"W. c #BFBCC1",
"Q. c #B8C0C9",
"!. c #C4C0C7",
"~. c #C3C3C9",
"^. c #C5C4CB",
"/. c #CDCACE",
"(. c #D0C6C9",
"). c #C8CED5",
"_. c #D3CED3",
"`. c #D5CDD0",
"'. c #D5D2D4",
"]. c #D2D6DC",
"[. c #DCD6D8",
"{. c #E8E0DF",
"}. c #DDDFE2",
"|. c #E3E0E1",
" X c #EFEFF0",
".X c #F1EFF0",
"XX c #F4F2F3",
"oX c #F0F3F6",
/* pixels */
", , 6.N ; : < - 4 $ k p u b 7.M d 9.1 @ 5.s y y.n b b C 0 m f l ",
", , e.q.2 * & > , # 0.F p y B g F r.% 3 t.c u.e h V j y G A i N ",
", , v.d.Z.G.g.V.Z z c.C.z.F.P.L.f.M.q t w.a h.n.i x b w v.v.c.b.",
", , 8.k.A.I.m.N.r S s.B.J.D.S.K.N.v.D M b w v.n.x x i a x.c.n.l.",
", , H.H.b.b.b.b.b.b.H.H.H.H.H.H.H.H.H.H.H.H.b.b.b.b.b.b.b.b.b.b.",
", , H.H.b.b.b.b.b.b.H.H.H.H.H.H.H.H.H.H.H.H.b.b.b.b.b.b.b.b.b.b.",
", , H.H.H.H.H.H.b.b.H.H.H.H.H.H.H.H.H.H.H.H.H.H.b.b.b.b.b.b.b.b.",
", , H.H.H.H.H.H.b.b.H.H.H.H.H.H.H.H.H.H.H.H.H.H.b.b.b.b.b.b.b.b.",
", , H.H.H.H.H.H.H.H.b.b.H.H.H.H.H.H.H.H.H.H.H.H.b.b.b.b.b.b.H.H.",
", , H.H.H.H.H.H.H.H.b.b.H.H.H.H.H.H.H.H.H.H.H.H.b.b.b.b.b.b.H.H.",
", , b b H.H.H.H.H.H.H.H.b.b.H.H.H.H.H.H.H.H.b.b.b.b.b.b.b.b.H.H.",
", , b b H.H.H.H.H.H.H.H.b.b.H.H.H.H.H.H.H.H.b.b.b.b.b.b.b.b.H.H.",
", , b b H.H.H.H.H.H.H.H.b.b.b.b.b.b.b.b.b.b.b.b.b.b.b.b.b.b.H.H.",
", , b b H.H.H.H.H.H.H.H.b.b.b.b.b.b.b.b.b.b.b.b.b.b.b.b.b.b.H.H.",
"b b H.H.H.H.H.H.H.H.b.b.H.H.H.H.H.H.H.H.H.H.b.b.b.b.b.b.b.b.H.H.",
"b b H.H.H.H.H.H.H.H.b.b.H.H.H.H.H.H.H.H.H.H.b.b.b.b.b.b.b.b.H.H.",
", , b.b.H.H.H.H.b.b.H.H.H.H.H.H.H.H.H.H.H.H.H.H.b.b.b.b.b.b.b.b.",
", , b.b.H.H.H.H.b.b.H.H.H.H.H.H.H.H.H.H.H.H.H.H.b.b.b.b.b.b.b.b.",
", , b.b.H.H.H.H.b.b.H.H.H.H.H.H.H.H.H.H.H.H.H.H.b.b.H.H.H.H.H.H.",
", , b.b.H.H.H.H.b.b.H.H.H.H.H.H.H.H.H.H.H.H.H.H.b.b.H.H.H.H.H.H.",
"b b b b b.b.b.b.b.b.H.H.H.H.H.H.H.H.H.H.H.H.H.H.b.b.H.H.H.H.H.H.",
"b b b b b.b.b.b.b.b.H.H.H.H.H.H.H.H.H.H.H.H.H.H.b.b.H.H.H.H.H.H.",
"b b b.b.b.b.b.b.b.b.b.b.H.H.H.H.H.H.H.H.H.H.b.b.H.H.H.H.H.H.H.H.",
"b b b.b.b.b.b.b.b.b.b.b.H.H.H.H.H.H.H.H.H.H.b.b.H.H.H.H.H.H.H.H.",
"b b b.b.b.b.H.H.H.H.b.b.b.b.H.H.H.H.H.H.b.b.H.H.H.H.H.H.H.H.H.H.",
"b b b.b.b.b.H.H.H.H.b.b.b.b.H.H.H.H.H.H.b.b.H.H.H.H.H.H.H.H.H.H.",
", , b b H.H.H.H.H.H.H.H.b.b.b.b.b.b.b.b.H.H.H.H.H.H.H.H.H.H.H.H.",
", , b b H.H.H.H.H.H.H.H.b.b.b.b.b.b.b.b.H.H.H.H.H.H.H.H.H.H.H.H.",
", , b b H.H.H.H.H.H.H.H.b.b.b.b.b.b.H.H.H.H.H.H.H.H.H.H.H.H.H.H.",
", , b b H.H.H.H.H.H.H.H.b.b.b.b.b.b.H.H.H.H.H.H.H.H.H.H.H.H.H.H.",
", , , , H.H.H.H.H.H.H.H.b.b.b.b.b.b.H.H.H.H.H.H.H.H.H.H.H.H.b.b.",
", , , , H.H.H.H.H.H.H.H.b.b.b.b.b.b.H.H.H.H.H.H.H.H.H.H.H.H.b.b.",
"b.b.i.i.b b b b b.b.b b b b b.b.H.H.H.H.b.b.b b b.b.H.H.b.b.b b ",
"b.b.j.j.b b b b b.b.b b b b b.b.H.H.H.H.b.b.b b b.b.H.H.b.b.b b ",
"b b b b b b b b b b b b , , b b b b b b b b , , , , , , b b b b ",
"b b b b b b b b b b b b , , b b b b b b b b , , , , , , b b b b ",
"5 5     5 5 5 5 X X             X X 5 5 5 5 X X         5 5 5 5 ",
"5 5     5 5 5 5 X X             X X 5 5 5 5 X X         5 5 5 5 ",
"5 5     5 5 X X 5 5 5 5 &.&.5 5     5 5 5 5 X X         5 5 5 5 ",
"5 5     5 5 X X 5 5 5 5 &.&.5 5     5 5 5 5 X X         5 5 5 5 ",
"5 5     X X X X 5 5 &.&.&.&.&.&.    X X X X X X         5 5 5 5 ",
"5 5     X X X X 5 5 &.&.&.&.&.&.    X X X X X X         5 5 5 5 ",
"X X     X X     &.&.&.&.&.&.&.&.    X X     &.&.&.&.5 5 X X X X ",
"X X     X X     &.&.&.&.&.&.&.&.    X X     &.&.&.&.5 5 X X X X ",
"X X X X         &.&.&.&.&.&.&.&.    X X     &.&.&.&.&.&.&.&.X X ",
"X X X X         &.&.&.&.&.&.&.&.    X X     &.&.&.&.&.&.&.&.X X ",
"X X X X         5 5 &.&.&.&.5 5     X X     5 5 &.&.&.&.&.&.X X ",
"X X X X         5 5 &.&.&.&.5 5     X X     5 5 &.&.&.&.&.&.X X ",
"X X X X         5 5 &.&.&.&.5 5     X X     5 5 5 5 5 5 5 5 X X ",
"X X X X         5 5 &.&.&.&.5 5     X X     5 5 5 5 5 5 5 5 X X ",
"5 5 5 5 5 5     5 5 5 5 5 5 X X X X         X X 5 5 5 5 5 5     ",
"5 5 5 5 5 5     5 5 5 5 5 5 X X X X         X X 5 5 5 5 5 5     ",
"5 5 5 5 5 5     X X X X         X X 5 5 5 5 X X 5 5 5 5 5 5     ",
"5 5 5 5 5 5     X X X X         X X 5 5 5 5 X X 5 5 5 5 5 5     ",
"X X X X X X     X X         5 5 &.&.&.&.&.&.    5 5 5 5 5 5     ",
"X X X X X X     X X         5 5 &.&.&.&.&.&.    5 5 5 5 5 5     ",
"X X X X X X                 &.&.&.&.&.&.&.&.    5 5 5 5 5 5     ",
"X X X X X X                 &.&.&.&.&.&.&.&.    5 5 5 5 5 5     ",
"X X X X     5 5 5 5 5 5     5 5 5 5 5 5 5 5     X X 5 5 5 5     ",
"X X X X     5 5 5 5 5 5     5 5 5 5 5 5 5 5     X X 5 5 5 5     ",
"    X X     5 5 5 5 5 5     5 5 5 5 5 5 5 5     X X 5 5 X X     ",
"    X X     5 5 5 5 5 5     5 5 5 5 5 5 5 5     X X 5 5 X X     ",
"5 5         X X X X X X     5 5 5 5 5 5 5 5     X o X X X X 7 J ",
"5 5         X X X X X X     5 5 5 5 5 5 5 5     X X L L O + H R ",
"&.{.K 4.9 = %.X X X X X     5 5 5 5 5 5 6 5 X X X X '.3.~.R.Q W ",
"/.|.X.W.p.o.*.,.[.(.;.#..   5 5 5 5 5 5 5 8 +..X`.<.E.T  .| } } ",
"{ [ ! P U U Y E ^.XX:.Q.2.$.a.L @.1.@.>.=._. X).] I ^ ~ _ ( _ _ ",
"/ / / / ) ( ' ] ` ) ) ] U.O.!.-.}.].oXT.Y...] ) ^ / / / / / / / "
};
