/* XPM */
static char *fda03c077e934c37b294498f02108c4e[] = {
/* columns rows colors chars-per-pixel */
"32 68 165 2 ",
"   c #4C1840",
".  c #532C49",
"X  c #73314C",
"o  c #723550",
"O  c #6C4964",
"+  c #9F4C5C",
"@  c #AA4358",
"#  c #A54C5E",
"$  c #AC4B5D",
"%  c #B3475E",
"&  c #B04A5F",
"*  c #A05157",
"=  c #A4545D",
"-  c #AE5159",
";  c #9F4868",
":  c #875F6D",
">  c #9D5365",
",  c #A04765",
"<  c #AF4667",
"1  c #A44A64",
"2  c #AA4C66",
"3  c #A6476C",
"4  c #AB4C6D",
"5  c #B44A67",
"6  c #B04F6E",
"7  c #A45465",
"8  c #AD5265",
"9  c #A85865",
"0  c #A5516B",
"q  c #A85368",
"w  c #B25163",
"e  c #B3536E",
"r  c #A34E73",
"t  c #B04B71",
"y  c #A95274",
"u  c #8B6472",
"i  c #8E6976",
"p  c #8F6C78",
"a  c #DE876C",
"s  c #D4896C",
"d  c #DD8776",
"f  c #D68B76",
"g  c #DB8B76",
"h  c #DF867A",
"j  c #DD8C7C",
"k  c #DD9676",
"l  c #DF917A",
"z  c #E68467",
"x  c #E48475",
"c  c #EB8676",
"v  c #E38C76",
"b  c #EA8A71",
"n  c #E5877D",
"m  c #EB857B",
"M  c #E68B7C",
"N  c #EA8C7B",
"B  c #F2887B",
"V  c #F8887C",
"C  c #E3937C",
"Z  c #E9927F",
"A  c #747A93",
"S  c #826E81",
"D  c #877983",
"F  c #9A7E87",
"G  c #1794BA",
"H  c #2D93B8",
"J  c #2A99BF",
"K  c #3E94B8",
"L  c #4C91B1",
"P  c #6386A3",
"I  c #6397B6",
"U  c #6D9EBA",
"Y  c #709FB9",
"T  c #039DC4",
"R  c #0C9CC3",
"E  c #119CC3",
"W  c #189AC1",
"Q  c #269DC3",
"!  c #3E9DC1",
"~  c #34A0C5",
"^  c #4AA1C3",
"/  c #7EB1CB",
"(  c #86818E",
")  c #9A818A",
"_  c #868998",
"`  c #A68F96",
"'  c #AA949B",
"]  c #A2989F",
"[  c #AD999F",
"{  c #BEA29E",
"}  c #AE9CA4",
"|  c #A9A4AF",
" . c #B2A0A6",
".. c #B5A7AD",
"X. c #B7A8AD",
"o. c #B6AAB0",
"O. c #BCADB2",
"+. c #AFB3BC",
"@. c #B5B3B8",
"#. c #BFBABE",
"$. c #DD8C82",
"%. c #DF9280",
"&. c #DF9D87",
"*. c #E88583",
"=. c #E38C83",
"-. c #EE8A81",
";. c #E4838C",
":. c #EE8788",
">. c #E38A89",
",. c #F18885",
"<. c #F08A88",
"1. c #E79180",
"2. c #EEB496",
"3. c #C5BABF",
"4. c #C8BCBF",
"5. c #FFBBA4",
"6. c #FFCC94",
"7. c #F7C19F",
"8. c #FDC49C",
"9. c #FECA9D",
"0. c #EFE495",
"q. c #F3E49A",
"w. c #FFE49F",
"e. c #F2F698",
"r. c #FFC5A4",
"t. c #F6C8A4",
"y. c #FFC9A2",
"u. c #FFC6A9",
"i. c #FFCBAB",
"p. c #FED6A3",
"a. c #FDDDAE",
"s. c #FFDCB1",
"d. c #FFE6A3",
"f. c #FDE9A6",
"g. c #FCECA4",
"h. c #F5E4AC",
"j. c #FAE6AA",
"k. c #FEE7AD",
"l. c #F5EAA9",
"z. c #FEEFAA",
"x. c #FFEBAF",
"c. c #F7F1A3",
"v. c #FBF5A9",
"b. c #FFE4B2",
"n. c #F9EEB6",
"m. c #80AEC6",
"M. c #91B6CC",
"N. c #A5BCCD",
"B. c #B0B7C1",
"V. c #BFBCC1",
"C. c #B8C0C9",
"Z. c #C4C0C7",
"A. c #C4C4CA",
"S. c #CDCACE",
"D. c #D0C6C9",
"F. c #C8CED5",
"G. c #D4CED2",
"H. c #D4D4D8",
"J. c #DCD6D8",
"K. c #E8E0DF",
"L. c #DDDFE2",
"P. c #E3E0E1",
"I. c #EFEFF0",
"U. c #F1EFF0",
"Y. c #F2F3F5",
/* pixels */
"$.N , 1 5 > r $ n v c M %.N b *.8 # $.v c ,.M v v N d M n m y.y.",
";.-.q = % 1 2 $ =.C v c N m C >.$ w >.M 1.j m m m c Z C v N y.y.",
"r.6.a.g.8.i.B v r.p.q.g.z.l.8.u.h x -.v 8.y.v M v j r.r.N j v v ",
"&.9.s.x.y.u.z C 5.i.j.g.d.k.u.r.C N M j r.y.M M v v r.r.-.;.:.*.",
"y.y.y.y.y.y.y.y.y.y.f.f.f.f.f.f.f.f.f.f.f.f.y.y.y.y.y.y.6.r.f k ",
"y.y.y.y.y.y.y.y.y.y.f.f.f.f.f.f.f.f.f.f.f.f.y.y.y.y.y.y.9.&.w @ ",
"f.f.f.f.f.f.f.f.y.y.f.f.f.f.f.f.f.f.f.f.f.f.f.f.y.y.y.y.0.d.+ e ",
"f.f.f.f.f.f.f.f.y.y.f.f.f.f.f.f.f.f.f.f.f.f.f.f.y.y.y.y.v.0.0 < ",
"f.f.f.f.f.f.f.f.f.f.y.y.f.f.f.f.f.f.f.f.f.f.f.f.y.y.y.y.l.z.3 6 ",
"f.f.f.f.f.f.f.f.f.f.y.y.f.f.f.f.f.f.f.f.f.f.f.f.y.y.y.y.j.w.4 * ",
"f.f.f.f.f.f.f.f.f.f.f.f.y.y.f.f.f.f.f.f.f.f.y.y.y.y.y.y.h.n.# 7 ",
"f.f.f.f.f.f.f.f.f.f.f.f.y.y.f.f.f.f.f.f.f.f.y.y.y.y.y.y.z.e.a.b.",
"f.f.f.f.f.f.f.f.f.f.f.f.y.y.y.y.y.y.y.y.y.y.y.y.y.y.y.y.l a w 2 ",
"f.f.f.f.f.f.f.f.f.f.f.f.y.y.y.y.y.y.y.y.y.y.y.y.y.y.y.y.x V , 4 ",
"f.f.f.f.f.f.f.f.f.f.y.y.f.f.f.f.f.f.f.f.f.f.y.y.y.y.y.y.g v > > ",
"f.f.f.f.f.f.f.f.f.f.y.y.f.f.f.f.f.f.f.f.f.f.y.y.y.y.y.y.j N < < ",
"f.f.f.f.f.f.f.f.y.y.f.f.f.f.f.f.f.f.f.f.f.f.f.f.y.y.y.y.k.w.M v ",
"f.f.f.f.f.f.f.f.y.y.f.f.f.f.f.f.f.f.f.f.f.f.f.f.y.y.y.y.l.c.h M ",
"y.y.f.f.f.f.f.f.y.y.f.f.f.f.f.f.f.f.f.f.f.f.f.f.y.y.f.f.r.i.# t ",
"y.y.f.f.f.f.f.f.y.y.f.f.f.f.f.f.f.f.f.f.f.f.f.f.y.y.f.f.8.7.9 3 ",
"f.f.y.y.y.y.y.y.y.y.f.f.f.f.f.f.f.f.f.f.f.f.f.f.y.y.f.f.y.i.= 4 ",
"f.f.y.y.y.y.y.y.y.y.f.f.f.f.f.f.f.f.f.f.f.f.f.f.y.y.f.f.u.r.- & ",
"f.f.y.y.y.y.y.y.y.y.y.y.f.f.f.f.f.f.f.f.f.f.y.y.f.f.f.f.n g =.$.",
"f.f.y.y.y.y.y.y.y.y.y.y.f.f.f.f.f.f.f.f.f.f.y.y.f.f.f.f.=.v -.C ",
"f.f.y.y.y.y.f.f.f.f.y.y.y.y.f.f.f.f.f.f.y.y.f.f.f.f.f.f.u.r.x N ",
"f.f.y.y.y.y.f.f.f.f.y.y.y.y.f.f.f.f.f.f.y.y.f.f.f.f.f.f.9.8.=.j ",
"f.f.y.y.f.f.f.f.f.f.f.f.y.y.y.y.y.y.y.y.f.f.f.f.f.f.f.f.t.t.=.c ",
"f.f.y.y.f.f.f.f.f.f.f.f.y.y.y.y.y.y.y.y.f.f.f.f.f.f.f.f.y.9.v v ",
"f.f.y.y.f.f.f.f.f.f.f.f.y.y.y.y.y.y.f.f.f.f.f.f.f.f.f.f.j M $ > ",
"f.f.y.y.f.f.f.f.f.f.f.f.y.y.y.y.y.y.f.f.f.f.f.f.f.f.f.f.s N $ y ",
"y.y.f.f.f.f.f.f.f.f.f.f.y.y.y.y.y.y.f.f.f.f.f.f.f.f.f.f.<.-.# ; ",
"y.y.f.f.f.f.f.f.f.f.f.f.y.y.y.y.y.y.f.f.f.f.f.f.f.f.f.f.$.h 8 2 ",
"y.y.2.2.M M M M y.y.M M M M y.y.f.f.f.f.y.y.M M y.y.f.f.# 8 r t ",
"y.y.8.8.M M M M y.y.M M M M y.y.f.f.f.f.y.y.M M y.y.f.f.9 # 0 $ ",
"M M M M M M M M M M M M 2 2 M M M M M M M M 2 2 2 2 2 2 M M M M ",
"M M M M M M M M M M M M 2 2 M M M M M M M M 2 2 2 2 2 2 M M M M ",
"u u     u u u u X X             X X u u u u X X         u u u u ",
"u u     u u u u X X             X X u u u u X X         u u u u ",
"u u     u u X X u u u u { { u u     u u u u X X         u u u u ",
"u u     u u X X u u u u { { u u     u u u u X X         u u u u ",
"u u     X X X X u u { { { { { {     X X X X X X         u u u u ",
"u u     X X X X u u { { { { { {     X X X X X X         u u u u ",
"X X     X X     { { { { { { { {     X X     { { { { u u X X X X ",
"X X     X X     { { { { { { { {     X X     { { { { u u X X X X ",
"X X X X         { { { { { { { {     X X     { { { { { { { { X X ",
"X X X X         { { { { { { { {     X X     { { { { { { { { X X ",
"X X X X         u u { { { { u u     X X     u u { { { { { { X X ",
"X X X X         u u { { { { u u     X X     u u { { { { { { X X ",
"X X X X         u u { { { { u u     X X     u u u u u u u u X X ",
"X X X X         u u { { { { u u     X X     u u u u u u u u X X ",
"u u u u u u     u u u u u u X X X X         X X u u u u u u     ",
"u u u u u u     u u u u u u X X X X         X X u u u u u u     ",
"u u u u u u     X X X X         X X u u u u X X u u u u u u     ",
"u u u u u u     X X X X         X X u u u u X X u u u u u u     ",
"X X X X X X     X X         u u { { { { { {     u u u u u u     ",
"X X X X X X     X X         u u { { { { { {     u u u u u u     ",
"X X X X X X                 { { { { { { { {     u u u u u u     ",
"X X X X X X                 { { { { { { { {     u u u u u u     ",
"X X X X     u u u u u u     u u u u u u u u     X X u u u u     ",
"X X X X     u u u u u u     u u u u u u u u     X X u u u u     ",
"    X X     u u u u u u     u u u u u u u u     X X u u X X     ",
"    X X     u u u u u u     u u u u u u u u     X X u u X X     ",
"u u         X X X X X X     u u u u u u u u     X X X X X X u S ",
"u u         X X X X X X     u u u u u u u u     X X F F o O A P ",
"{ K.D #.p : [ X X X X X     u u u u u u u u X X X X H.@.A.N.Y U ",
"S.P.( V.3.) } X.J.D. .' .   u u u u u u u i ` U.G.o.B.L ^ ~ ! ! ",
"Q Q T G J J K I A.Y...C.+.] 4.F ' O.' X.} G.I.F.W H T T R T R R ",
"T T T T R T E W E R R W m._ Z.| L.H.Y.N.M./ W R T T T T T T T T "
};
